# Blender v3.6.0 OBJ File: 'AllModels.blend'
# www.blender.org
mtllib Prop_PlanetRings.mtl
o Prop_PlanetRings_Cylinder
v -8.792107 -0.000018 -111.714294
v 0.000000 -0.000029 -180.464935
v -17.530006 -0.000018 -110.680099
v 14.159117 -0.000029 -179.908630
v -26.159832 -0.000018 -108.963531
v 28.230938 -0.000029 -178.243118
v -34.628368 -0.000017 -106.575142
v 42.128708 -0.000029 -175.478668
v -42.883411 -0.000017 -103.529694
v 55.766735 -0.000028 -171.632370
v -50.874062 -0.000016 -99.845955
v 69.060944 -0.000027 -166.727875
v -58.551052 -0.000016 -95.546638
v 81.929367 -0.000026 -160.795441
v -65.867058 -0.000015 -90.658234
v 94.292664 -0.000025 -153.871658
v -72.776978 -0.000014 -85.210892
v 106.074623 -0.000024 -145.999207
v -79.238205 -0.000013 -79.238205
v 117.202599 -0.000022 -137.226624
v -85.210899 -0.000012 -72.776978
v 127.607986 -0.000021 -127.607986
v -90.658234 -0.000011 -65.867058
v 137.226624 -0.000019 -117.202599
v -95.546638 -0.000010 -58.551052
v 145.999207 -0.000017 -106.074623
v -99.845955 -0.000008 -50.874065
v 153.871658 -0.000015 -94.292671
v -103.529694 -0.000007 -42.883408
v 160.795441 -0.000013 -81.929375
v -106.575142 -0.000006 -34.628368
v 166.727844 -0.000011 -69.060944
v -108.963516 -0.000004 -26.159832
v 171.632370 -0.000009 -55.766735
v -110.680099 -0.000003 -17.530008
v 175.478668 -0.000007 -42.128708
v -111.714294 -0.000001 -8.792107
v 178.243103 -0.000005 -28.230938
v -112.059738 0.000000 0.000000
v 179.908630 -0.000002 -14.159117
v -111.714294 0.000001 8.792107
v 180.464935 0.000000 0.000000
v -110.680099 0.000003 17.530006
v 179.908630 0.000002 14.159117
v -108.963531 0.000004 26.159832
v 178.243118 0.000005 28.230938
v -106.575142 0.000006 34.628368
v 175.478668 0.000007 42.128708
v -103.529694 0.000007 42.883411
v 171.632370 0.000009 55.766735
v -99.845955 0.000008 50.874062
v 166.727875 0.000011 69.060944
v -95.546638 0.000010 58.551052
v 160.795441 0.000013 81.929367
v -90.658234 0.000011 65.867058
v 153.871658 0.000015 94.292664
v -85.210892 0.000012 72.776978
v 145.999207 0.000017 106.074623
v -79.238205 0.000013 79.238205
v 137.226624 0.000019 117.202599
v -72.776978 0.000014 85.210899
v 127.607986 0.000021 127.607986
v -65.867058 0.000015 90.658234
v 117.202599 0.000022 137.226624
v -58.551052 0.000016 95.546638
v 106.074623 0.000024 145.999207
v -50.874065 0.000016 99.845955
v 94.292671 0.000025 153.871658
v -42.883408 0.000017 103.529694
v 81.929375 0.000026 160.795441
v -34.628368 0.000017 106.575142
v 69.060944 0.000027 166.727844
v -26.159832 0.000018 108.963516
v 55.766735 0.000028 171.632370
v -17.530008 0.000018 110.680099
v 42.128708 0.000029 175.478668
v -8.792107 0.000018 111.714294
v 28.230938 0.000029 178.243103
v 0.000000 0.000018 112.059746
v 14.159117 0.000029 179.908630
v 8.792107 0.000018 111.714294
v 0.000000 0.000029 180.464935
v 17.530006 0.000018 110.680099
v -14.159117 0.000029 179.908630
v 26.159832 0.000018 108.963531
v -28.230938 0.000029 178.243118
v 34.628368 0.000017 106.575142
v -42.128708 0.000029 175.478668
v 42.883411 0.000017 103.529694
v -55.766735 0.000028 171.632370
v 50.874062 0.000016 99.845955
v -69.060944 0.000027 166.727875
v 58.551052 0.000016 95.546638
v -81.929367 0.000026 160.795441
v 65.867058 0.000015 90.658234
v -94.292664 0.000025 153.871658
v 72.776978 0.000014 85.210892
v -106.074623 0.000024 145.999207
v 79.238205 0.000013 79.238205
v -117.202599 0.000022 137.226624
v 85.210899 0.000012 72.776978
v -127.607986 0.000021 127.607986
v 90.658234 0.000011 65.867058
v -137.226624 0.000019 117.202599
v 95.546638 0.000010 58.551052
v -145.999207 0.000017 106.074623
v 99.845955 0.000008 50.874065
v -153.871658 0.000015 94.292671
v 103.529694 0.000007 42.883408
v -160.795441 0.000013 81.929375
v 106.575142 0.000006 34.628368
v -166.727844 0.000011 69.060944
v 108.963516 0.000004 26.159832
v -171.632370 0.000009 55.766735
v 110.680099 0.000003 17.530008
v -175.478668 0.000007 42.128708
v 111.714294 0.000001 8.792107
v -178.243103 0.000005 28.230938
v 112.059746 0.000000 0.000000
v -179.908630 0.000002 14.159117
v 111.714294 -0.000001 -8.792107
v -180.464951 0.000000 0.000000
v 110.680099 -0.000003 -17.530006
v -179.908630 -0.000002 -14.159117
v 108.963531 -0.000004 -26.159832
v -178.243118 -0.000005 -28.230938
v 106.575142 -0.000006 -34.628368
v -175.478668 -0.000007 -42.128708
v 103.529694 -0.000007 -42.883411
v -171.632370 -0.000009 -55.766735
v 99.845955 -0.000008 -50.874062
v -166.727875 -0.000011 -69.060944
v 95.546638 -0.000010 -58.551052
v -160.795441 -0.000013 -81.929367
v 90.658234 -0.000011 -65.867058
v -153.871658 -0.000015 -94.292664
v 85.210892 -0.000012 -72.776978
v -145.999207 -0.000017 -106.074623
v 79.238205 -0.000013 -79.238205
v -137.226624 -0.000019 -117.202599
v 72.776978 -0.000014 -85.210899
v -127.607986 -0.000021 -127.607986
v 65.867058 -0.000015 -90.658234
v -117.202599 -0.000022 -137.226624
v 58.551052 -0.000016 -95.546638
v -106.074623 -0.000024 -145.999207
v 50.874065 -0.000016 -99.845955
v -94.292671 -0.000025 -153.871658
v 42.883408 -0.000017 -103.529694
v -81.929375 -0.000026 -160.795441
v 34.628368 -0.000017 -106.575142
v -69.060944 -0.000027 -166.727844
v 26.159832 -0.000018 -108.963516
v -55.766735 -0.000028 -171.632370
v 17.530008 -0.000018 -110.680099
v -42.128708 -0.000029 -175.478668
v 0.000000 -0.000018 -112.059746
v -28.230938 -0.000029 -178.243103
v 8.792107 -0.000018 -111.714294
v -14.159117 -0.000029 -179.908630
v -4.399445 -0.000018 -111.973343
v 7.085021 -0.000029 -180.325790
v -13.171209 -0.000018 -111.282982
v 21.211378 -0.000029 -179.214020
v -21.861771 -0.000018 -109.906532
v 35.206963 -0.000029 -176.997330
v -30.417549 -0.000018 -107.852478
v 48.985481 -0.000028 -173.689423
v -38.785789 -0.000017 -105.133461
v 62.461990 -0.000028 -169.310623
v -46.914902 -0.000017 -101.766281
v 75.553398 -0.000027 -163.887985
v -54.754768 -0.000016 -97.771667
v 88.178986 -0.000026 -157.454910
v -62.257046 -0.000015 -93.174255
v 100.260941 -0.000024 -150.051102
v -69.375504 -0.000014 -88.002403
v 111.724747 -0.000023 -141.722168
v -76.066231 -0.000013 -82.287979
v 122.499725 -0.000022 -132.519455
v -82.287979 -0.000012 -76.066231
v 132.519455 -0.000020 -122.499725
v -88.002403 -0.000011 -69.375496
v 141.722153 -0.000018 -111.724747
v -93.174263 -0.000010 -62.257046
v 150.051102 -0.000016 -100.260941
v -97.771667 -0.000009 -54.754768
v 157.454910 -0.000014 -88.178993
v -101.766281 -0.000008 -46.914902
v 163.887970 -0.000012 -75.553398
v -105.133461 -0.000006 -38.785786
v 169.310623 -0.000010 -62.461990
v -107.852478 -0.000005 -30.417549
v 173.689407 -0.000008 -48.985481
v -109.906525 -0.000004 -21.861771
v 176.997345 -0.000006 -35.206963
v -111.282982 -0.000002 -13.171209
v 179.214020 -0.000003 -21.211378
v -111.973328 -0.000001 -4.399445
v 180.325775 -0.000001 -7.085020
v -111.973343 0.000001 4.399445
v 180.325790 0.000001 7.085021
v -111.282982 0.000002 13.171209
v 179.214020 0.000003 21.211378
v -109.906532 0.000004 21.861771
v 176.997330 0.000006 35.206963
v -107.852478 0.000005 30.417549
v 173.689423 0.000008 48.985481
v -105.133461 0.000006 38.785789
v 169.310623 0.000010 62.461990
v -101.766281 0.000008 46.914902
v 163.887985 0.000012 75.553398
v -97.771667 0.000009 54.754768
v 157.454910 0.000014 88.178986
v -93.174255 0.000010 62.257046
v 150.051102 0.000016 100.260941
v -88.002403 0.000011 69.375504
v 141.722168 0.000018 111.724747
v -82.287979 0.000012 76.066231
v 132.519455 0.000020 122.499725
v -76.066231 0.000013 82.287979
v 122.499725 0.000022 132.519455
v -69.375496 0.000014 88.002403
v 111.724747 0.000023 141.722153
v -62.257046 0.000015 93.174263
v 100.260941 0.000024 150.051102
v -54.754768 0.000016 97.771667
v 88.178993 0.000026 157.454910
v -46.914902 0.000017 101.766281
v 75.553398 0.000027 163.887970
v -38.785786 0.000017 105.133461
v 62.461990 0.000028 169.310623
v -30.417549 0.000018 107.852478
v 48.985481 0.000028 173.689407
v -21.861771 0.000018 109.906525
v 35.206963 0.000029 176.997345
v -13.171209 0.000018 111.282982
v 21.211378 0.000029 179.214020
v -4.399445 0.000018 111.973343
v 7.085020 0.000029 180.325775
v 4.399445 0.000018 111.973343
v -7.085021 0.000029 180.325790
v 13.171209 0.000018 111.282982
v -21.211378 0.000029 179.214020
v 21.861771 0.000018 109.906532
v -35.206963 0.000029 176.997330
v 30.417549 0.000018 107.852478
v -48.985481 0.000028 173.689423
v 38.785789 0.000017 105.133461
v -62.461990 0.000028 169.310623
v 46.914902 0.000017 101.766281
v -75.553398 0.000027 163.887985
v 54.754768 0.000016 97.771667
v -88.178986 0.000026 157.454910
v 62.257046 0.000015 93.174255
v -100.260941 0.000024 150.051102
v 69.375504 0.000014 88.002403
v -111.724747 0.000023 141.722168
v 76.066231 0.000013 82.287979
v -122.499725 0.000022 132.519455
v 82.287979 0.000012 76.066231
v -132.519455 0.000020 122.499725
v 88.002403 0.000011 69.375496
v -141.722153 0.000018 111.724747
v 93.174263 0.000010 62.257046
v -150.051102 0.000016 100.260941
v 97.771667 0.000009 54.754768
v -157.454910 0.000014 88.178993
v 101.766281 0.000008 46.914902
v -163.887970 0.000012 75.553398
v 105.133461 0.000006 38.785786
v -169.310623 0.000010 62.461990
v 107.852478 0.000005 30.417549
v -173.689407 0.000008 48.985481
v 109.906525 0.000004 21.861771
v -176.997345 0.000006 35.206963
v 111.282982 0.000002 13.171209
v -179.214020 0.000003 21.211378
v 111.973343 0.000001 4.399445
v -180.325775 0.000001 7.085020
v 111.973343 -0.000001 -4.399445
v -180.325790 -0.000001 -7.085020
v 111.282982 -0.000002 -13.171209
v -179.214020 -0.000003 -21.211378
v 109.906532 -0.000004 -21.861771
v -176.997330 -0.000006 -35.206963
v 107.852478 -0.000005 -30.417549
v -173.689423 -0.000008 -48.985481
v 105.133461 -0.000006 -38.785789
v -169.310623 -0.000010 -62.461990
v 101.766281 -0.000008 -46.914902
v -163.887985 -0.000012 -75.553398
v 97.771667 -0.000009 -54.754768
v -157.454910 -0.000014 -88.178986
v 93.174255 -0.000010 -62.257046
v -150.051102 -0.000016 -100.260941
v 88.002403 -0.000011 -69.375504
v -141.722168 -0.000018 -111.724747
v 82.287979 -0.000012 -76.066231
v -132.519455 -0.000020 -122.499725
v 76.066231 -0.000013 -82.287979
v -122.499725 -0.000022 -132.519455
v 69.375496 -0.000014 -88.002403
v -111.724747 -0.000023 -141.722153
v 62.257046 -0.000015 -93.174263
v -100.260941 -0.000024 -150.051102
v 54.754768 -0.000016 -97.771667
v -88.178993 -0.000026 -157.454910
v 46.914902 -0.000017 -101.766281
v -75.553398 -0.000027 -163.887970
v 38.785786 -0.000017 -105.133461
v -62.461990 -0.000028 -169.310623
v 30.417549 -0.000018 -107.852478
v -48.985481 -0.000028 -173.689407
v 21.861771 -0.000018 -109.906525
v -35.206963 -0.000029 -176.997345
v 13.171209 -0.000018 -111.282982
v -21.211378 -0.000029 -179.214020
v 4.399445 -0.000018 -111.973343
v -7.085020 -0.000029 -180.325775
vt 0.094918 1.000000
vt 0.088774 1.000000
vt 0.088774 0.000000
vt 0.094918 0.000000
vt 0.408264 0.000000
vt 0.408264 1.000000
vt 0.402120 1.000000
vt 0.402120 0.000000
vt 0.525001 1.000000
vt 0.518857 1.000000
vt 0.518857 0.000000
vt 0.525001 0.000000
vt 0.082630 1.000000
vt 0.082630 0.000000
vt 0.758475 1.000000
vt 0.752331 1.000000
vt 0.752331 0.000000
vt 0.758475 0.000000
vt 0.512713 1.000000
vt 0.512713 0.000000
vt 0.205511 1.000000
vt 0.199367 1.000000
vt 0.199367 0.000000
vt 0.205511 0.000000
vt 0.746187 1.000000
vt 0.746187 0.000000
vt 0.635594 1.000000
vt 0.629450 1.000000
vt 0.629450 0.000000
vt 0.635594 0.000000
vt 0.193223 1.000000
vt 0.193223 0.000000
vt 0.869069 1.000000
vt 0.862925 1.000000
vt 0.862925 0.000000
vt 0.869069 0.000000
vt 0.623306 1.000000
vt 0.623306 0.000000
vt 0.316104 1.000000
vt 0.309960 1.000000
vt 0.309960 0.000000
vt 0.316104 0.000000
vt 0.856781 1.000000
vt 0.856781 0.000000
vt 0.979662 1.000000
vt 0.973518 1.000000
vt 0.973518 -0.000000
vt 0.979662 -0.000000
vt 0.303816 1.000000
vt 0.303816 0.000000
vt 0.426697 1.000000
vt 0.420552 1.000000
vt 0.420552 0.000000
vt 0.426697 0.000000
vt 0.967374 1.000000
vt 0.967374 -0.000000
vt 0.740043 1.000000
vt 0.740043 0.000000
vt 0.414408 1.000000
vt 0.414408 0.000000
vt 0.107206 1.000000
vt 0.101062 1.000000
vt 0.101062 0.000000
vt 0.107206 0.000000
vt 0.733899 1.000000
vt 0.733899 0.000000
vt 0.537290 1.000000
vt 0.531146 1.000000
vt 0.531146 0.000000
vt 0.537290 0.000000
vt 0.770764 1.000000
vt 0.764620 1.000000
vt 0.764620 0.000000
vt 0.770764 0.000000
vt 0.217799 1.000000
vt 0.211655 1.000000
vt 0.211655 0.000000
vt 0.217799 0.000000
vt 0.647882 1.000000
vt 0.641738 1.000000
vt 0.641738 0.000000
vt 0.647882 0.000000
vt 0.881357 1.000000
vt 0.875213 1.000000
vt 0.875213 0.000000
vt 0.881357 0.000000
vt 0.328392 1.000000
vt 0.322248 1.000000
vt 0.322248 0.000000
vt 0.328392 0.000000
vt 1.000000 1.000000
vt 0.989831 1.000000
vt 0.989831 -0.000000
vt 1.000000 -0.000000
vt 0.438985 1.000000
vt 0.432841 1.000000
vt 0.432841 0.000000
vt 0.438985 0.000000
vt 0.119494 1.000000
vt 0.113350 1.000000
vt 0.113350 0.000000
vt 0.119494 0.000000
vt 0.549578 1.000000
vt 0.543434 1.000000
vt 0.543434 0.000000
vt 0.549578 0.000000
vt 0.783052 1.000000
vt 0.776908 1.000000
vt 0.776908 0.000000
vt 0.783052 0.000000
vt 0.230087 1.000000
vt 0.223943 1.000000
vt 0.223943 0.000000
vt 0.230087 0.000000
vt 0.660171 1.000000
vt 0.654027 1.000000
vt 0.654027 0.000000
vt 0.660171 0.000000
vt 0.893645 1.000000
vt 0.887501 1.000000
vt 0.887501 0.000000
vt 0.893645 0.000000
vt 0.340680 1.000000
vt 0.334536 1.000000
vt 0.334536 0.000000
vt 0.340680 0.000000
vt 0.021189 1.000000
vt 0.010595 1.000000
vt 0.010595 0.000000
vt 0.021189 0.000000
vt 0.451273 1.000000
vt 0.445129 1.000000
vt 0.445129 0.000000
vt 0.451273 0.000000
vt 0.000000 1.000000
vt 0.000000 0.000000
vt 0.131782 1.000000
vt 0.125638 1.000000
vt 0.125638 0.000000
vt 0.131782 0.000000
vt 0.561866 1.000000
vt 0.555722 1.000000
vt 0.555722 0.000000
vt 0.561866 0.000000
vt 0.795340 1.000000
vt 0.789196 1.000000
vt 0.789196 0.000000
vt 0.795340 0.000000
vt 0.242375 1.000000
vt 0.236231 1.000000
vt 0.236231 0.000000
vt 0.242375 0.000000
vt 0.672459 1.000000
vt 0.666315 1.000000
vt 0.666315 0.000000
vt 0.672459 0.000000
vt 0.905933 1.000000
vt 0.899789 1.000000
vt 0.899789 0.000000
vt 0.905933 0.000000
vt 0.352968 1.000000
vt 0.346824 1.000000
vt 0.346824 0.000000
vt 0.352968 0.000000
vt 0.033478 1.000000
vt 0.027334 1.000000
vt 0.027334 0.000000
vt 0.033478 0.000000
vt 0.463561 1.000000
vt 0.457417 1.000000
vt 0.457417 0.000000
vt 0.463561 0.000000
vt 0.144070 1.000000
vt 0.137926 1.000000
vt 0.137926 0.000000
vt 0.144070 0.000000
vt 0.574154 1.000000
vt 0.568010 1.000000
vt 0.568010 0.000000
vt 0.574154 0.000000
vt 0.807628 1.000000
vt 0.801484 1.000000
vt 0.801484 0.000000
vt 0.807628 0.000000
vt 0.254663 1.000000
vt 0.248519 1.000000
vt 0.248519 0.000000
vt 0.254663 0.000000
vt 0.684747 1.000000
vt 0.678603 1.000000
vt 0.678603 0.000000
vt 0.684747 0.000000
vt 0.918221 1.000000
vt 0.912077 1.000000
vt 0.912077 0.000000
vt 0.918221 0.000000
vt 0.365256 1.000000
vt 0.359112 1.000000
vt 0.359112 0.000000
vt 0.365256 0.000000
vt 0.045766 1.000000
vt 0.039622 1.000000
vt 0.039622 0.000000
vt 0.045766 0.000000
vt 0.475849 1.000000
vt 0.469705 1.000000
vt 0.469705 0.000000
vt 0.475849 0.000000
vt 0.156359 1.000000
vt 0.150214 1.000000
vt 0.150214 0.000000
vt 0.156359 0.000000
vt 0.586442 1.000000
vt 0.580298 1.000000
vt 0.580298 0.000000
vt 0.586442 0.000000
vt 0.819916 1.000000
vt 0.813772 1.000000
vt 0.813772 0.000000
vt 0.819916 0.000000
vt 0.266951 1.000000
vt 0.260807 1.000000
vt 0.260807 0.000000
vt 0.266951 0.000000
vt 0.697035 1.000000
vt 0.690891 1.000000
vt 0.690891 0.000000
vt 0.697035 0.000000
vt 0.930509 1.000000
vt 0.924365 1.000000
vt 0.924365 0.000000
vt 0.930509 0.000000
vt 0.377544 1.000000
vt 0.371400 1.000000
vt 0.371400 0.000000
vt 0.377544 0.000000
vt 0.058054 1.000000
vt 0.051910 1.000000
vt 0.051910 0.000000
vt 0.058054 0.000000
vt 0.488137 1.000000
vt 0.481993 1.000000
vt 0.481993 0.000000
vt 0.488137 0.000000
vt 0.168647 1.000000
vt 0.162503 1.000000
vt 0.162503 0.000000
vt 0.168647 0.000000
vt 0.598730 1.000000
vt 0.592586 1.000000
vt 0.592586 0.000000
vt 0.598730 0.000000
vt 0.832204 1.000000
vt 0.826060 1.000000
vt 0.826060 0.000000
vt 0.832204 0.000000
vt 0.279239 1.000000
vt 0.273095 1.000000
vt 0.273095 0.000000
vt 0.279239 0.000000
vt 0.709323 1.000000
vt 0.703179 1.000000
vt 0.703179 0.000000
vt 0.709323 0.000000
vt 0.942797 1.000000
vt 0.936653 1.000000
vt 0.936653 0.000000
vt 0.942797 0.000000
vt 0.389832 1.000000
vt 0.383688 1.000000
vt 0.383688 0.000000
vt 0.389832 0.000000
vt 0.070342 1.000000
vt 0.064198 1.000000
vt 0.064198 0.000000
vt 0.070342 0.000000
vt 0.500425 1.000000
vt 0.494281 1.000000
vt 0.494281 0.000000
vt 0.500425 0.000000
vt 0.180935 1.000000
vt 0.174791 1.000000
vt 0.174791 0.000000
vt 0.180935 0.000000
vt 0.611018 1.000000
vt 0.604874 1.000000
vt 0.604874 0.000000
vt 0.611018 0.000000
vt 0.844492 1.000000
vt 0.838348 1.000000
vt 0.838348 0.000000
vt 0.844492 0.000000
vt 0.291527 1.000000
vt 0.285383 1.000000
vt 0.285383 0.000000
vt 0.291527 0.000000
vt 0.721611 1.000000
vt 0.715467 1.000000
vt 0.715467 0.000000
vt 0.721611 0.000000
vt 0.955086 1.000000
vt 0.948942 1.000000
vt 0.948942 -0.000000
vt 0.955086 -0.000000
vt 0.395976 1.000000
vt 0.395976 0.000000
vt 0.076486 1.000000
vt 0.076486 0.000000
vt 0.506569 1.000000
vt 0.506569 0.000000
vt 0.187079 1.000000
vt 0.187079 0.000000
vt 0.617162 1.000000
vt 0.617162 0.000000
vt 0.850637 1.000000
vt 0.850637 0.000000
vt 0.297671 1.000000
vt 0.297671 0.000000
vt 0.727755 1.000000
vt 0.727755 0.000000
vt 0.961230 1.000000
vt 0.961230 -0.000000
vn 0.0000 1.0000 -0.0000
usemtl MI_PlanetRings
s 1
f 53/1/1 213/2/1 268/3/1 108/4/1
f 216/5/1 265/6/1 103/7/1 58/8/1
f 123/9/1 283/10/1 198/11/1 38/12/1
f 268/3/1 213/2/1 51/13/1 110/14/1
f 1/15/1 161/16/1 320/17/1 160/18/1
f 198/11/1 283/10/1 121/19/1 40/20/1
f 71/21/1 231/22/1 250/23/1 90/24/1
f 320/17/1 161/16/1 157/25/1 2/26/1
f 141/27/1 301/28/1 180/29/1 20/30/1
f 250/23/1 231/22/1 69/31/1 92/32/1
f 19/33/1 179/34/1 302/35/1 142/36/1
f 180/29/1 301/28/1 139/37/1 22/38/1
f 89/39/1 249/40/1 232/41/1 72/42/1
f 302/35/1 179/34/1 17/43/1 144/44/1
f 37/45/1 197/46/1 284/47/1 124/48/1
f 232/41/1 249/40/1 87/49/1 74/50/1
f 107/51/1 267/52/1 214/53/1 54/54/1
f 284/47/1 197/46/1 35/55/1 126/56/1
f 2/26/1 157/25/1 319/57/1 162/58/1
f 214/53/1 267/52/1 105/59/1 56/60/1
f 55/61/1 215/62/1 266/63/1 106/64/1
f 162/58/1 319/57/1 159/65/1 4/66/1
f 125/67/1 285/68/1 196/69/1 36/70/1
f 266/63/1 215/62/1 53/1/1 108/4/1
f 3/71/1 163/72/1 318/73/1 158/74/1
f 196/69/1 285/68/1 123/9/1 38/12/1
f 73/75/1 233/76/1 248/77/1 88/78/1
f 318/73/1 163/72/1 1/15/1 160/18/1
f 143/79/1 303/80/1 178/81/1 18/82/1
f 248/77/1 233/76/1 71/21/1 90/24/1
f 21/83/1 181/84/1 300/85/1 140/86/1
f 178/81/1 303/80/1 141/27/1 20/30/1
f 91/87/1 251/88/1 230/89/1 70/90/1
f 300/85/1 181/84/1 19/33/1 142/36/1
f 39/91/1 199/92/1 282/93/1 122/94/1
f 230/89/1 251/88/1 89/39/1 72/42/1
f 109/95/1 269/96/1 212/97/1 52/98/1
f 282/93/1 199/92/1 37/45/1 124/48/1
f 57/99/1 217/100/1 264/101/1 104/102/1
f 212/97/1 269/96/1 107/51/1 54/54/1
f 127/103/1 287/104/1 194/105/1 34/106/1
f 264/101/1 217/100/1 55/61/1 106/64/1
f 5/107/1 165/108/1 316/109/1 156/110/1
f 194/105/1 287/104/1 125/67/1 36/70/1
f 75/111/1 235/112/1 246/113/1 86/114/1
f 316/109/1 165/108/1 3/71/1 158/74/1
f 145/115/1 305/116/1 176/117/1 16/118/1
f 246/113/1 235/112/1 73/75/1 88/78/1
f 23/119/1 183/120/1 298/121/1 138/122/1
f 176/117/1 305/116/1 143/79/1 18/82/1
f 93/123/1 253/124/1 228/125/1 68/126/1
f 298/121/1 183/120/1 21/83/1 140/86/1
f 41/127/1 201/128/1 280/129/1 120/130/1
f 228/125/1 253/124/1 91/87/1 70/90/1
f 111/131/1 271/132/1 210/133/1 50/134/1
f 280/129/1 201/128/1 39/135/1 122/136/1
f 59/137/1 219/138/1 262/139/1 102/140/1
f 210/133/1 271/132/1 109/95/1 52/98/1
f 129/141/1 289/142/1 192/143/1 32/144/1
f 262/139/1 219/138/1 57/99/1 104/102/1
f 7/145/1 167/146/1 314/147/1 154/148/1
f 192/143/1 289/142/1 127/103/1 34/106/1
f 77/149/1 237/150/1 244/151/1 84/152/1
f 314/147/1 167/146/1 5/107/1 156/110/1
f 147/153/1 307/154/1 174/155/1 14/156/1
f 244/151/1 237/150/1 75/111/1 86/114/1
f 25/157/1 185/158/1 296/159/1 136/160/1
f 174/155/1 307/154/1 145/115/1 16/118/1
f 95/161/1 255/162/1 226/163/1 66/164/1
f 296/159/1 185/158/1 23/119/1 138/122/1
f 43/165/1 203/166/1 278/167/1 118/168/1
f 226/163/1 255/162/1 93/123/1 68/126/1
f 113/169/1 273/170/1 208/171/1 48/172/1
f 278/167/1 203/166/1 41/127/1 120/130/1
f 61/173/1 221/174/1 260/175/1 100/176/1
f 208/171/1 273/170/1 111/131/1 50/134/1
f 131/177/1 291/178/1 190/179/1 30/180/1
f 260/175/1 221/174/1 59/137/1 102/140/1
f 9/181/1 169/182/1 312/183/1 152/184/1
f 190/179/1 291/178/1 129/141/1 32/144/1
f 79/185/1 239/186/1 242/187/1 82/188/1
f 312/183/1 169/182/1 7/145/1 154/148/1
f 149/189/1 309/190/1 172/191/1 12/192/1
f 242/187/1 239/186/1 77/149/1 84/152/1
f 27/193/1 187/194/1 294/195/1 134/196/1
f 172/191/1 309/190/1 147/153/1 14/156/1
f 97/197/1 257/198/1 224/199/1 64/200/1
f 294/195/1 187/194/1 25/157/1 136/160/1
f 45/201/1 205/202/1 276/203/1 116/204/1
f 224/199/1 257/198/1 95/161/1 66/164/1
f 115/205/1 275/206/1 206/207/1 46/208/1
f 276/203/1 205/202/1 43/165/1 118/168/1
f 63/209/1 223/210/1 258/211/1 98/212/1
f 206/207/1 275/206/1 113/169/1 48/172/1
f 133/213/1 293/214/1 188/215/1 28/216/1
f 258/211/1 223/210/1 61/173/1 100/176/1
f 11/217/1 171/218/1 310/219/1 150/220/1
f 188/215/1 293/214/1 131/177/1 30/180/1
f 81/221/1 241/222/1 240/223/1 80/224/1
f 310/219/1 171/218/1 9/181/1 152/184/1
f 151/225/1 311/226/1 170/227/1 10/228/1
f 240/223/1 241/222/1 79/185/1 82/188/1
f 29/229/1 189/230/1 292/231/1 132/232/1
f 170/227/1 311/226/1 149/189/1 12/192/1
f 99/233/1 259/234/1 222/235/1 62/236/1
f 292/231/1 189/230/1 27/193/1 134/196/1
f 47/237/1 207/238/1 274/239/1 114/240/1
f 222/235/1 259/234/1 97/197/1 64/200/1
f 117/241/1 277/242/1 204/243/1 44/244/1
f 274/239/1 207/238/1 45/201/1 116/204/1
f 65/245/1 225/246/1 256/247/1 96/248/1
f 204/243/1 277/242/1 115/205/1 46/208/1
f 135/249/1 295/250/1 186/251/1 26/252/1
f 256/247/1 225/246/1 63/209/1 98/212/1
f 13/253/1 173/254/1 308/255/1 148/256/1
f 186/251/1 295/250/1 133/213/1 28/216/1
f 83/257/1 243/258/1 238/259/1 78/260/1
f 308/255/1 173/254/1 11/217/1 150/220/1
f 153/261/1 313/262/1 168/263/1 8/264/1
f 238/259/1 243/258/1 81/221/1 80/224/1
f 31/265/1 191/266/1 290/267/1 130/268/1
f 168/263/1 313/262/1 151/225/1 10/228/1
f 101/269/1 261/270/1 220/271/1 60/272/1
f 290/267/1 191/266/1 29/229/1 132/232/1
f 49/273/1 209/274/1 272/275/1 112/276/1
f 220/271/1 261/270/1 99/233/1 62/236/1
f 119/277/1 279/278/1 202/279/1 42/280/1
f 272/275/1 209/274/1 47/237/1 114/240/1
f 67/281/1 227/282/1 254/283/1 94/284/1
f 202/279/1 279/278/1 117/241/1 44/244/1
f 137/285/1 297/286/1 184/287/1 24/288/1
f 254/283/1 227/282/1 65/245/1 96/248/1
f 15/289/1 175/290/1 306/291/1 146/292/1
f 184/287/1 297/286/1 135/249/1 26/252/1
f 85/293/1 245/294/1 236/295/1 76/296/1
f 306/291/1 175/290/1 13/253/1 148/256/1
f 155/297/1 315/298/1 166/299/1 6/300/1
f 236/295/1 245/294/1 83/257/1 78/260/1
f 33/301/1 193/302/1 288/303/1 128/304/1
f 166/299/1 315/298/1 153/261/1 8/264/1
f 58/8/1 103/7/1 263/305/1 218/306/1
f 288/303/1 193/302/1 31/265/1 130/268/1
f 110/14/1 51/13/1 211/307/1 270/308/1
f 218/306/1 263/305/1 101/269/1 60/272/1
f 40/20/1 121/19/1 281/309/1 200/310/1
f 270/308/1 211/307/1 49/273/1 112/276/1
f 92/32/1 69/31/1 229/311/1 252/312/1
f 200/310/1 281/309/1 119/277/1 42/280/1
f 22/38/1 139/37/1 299/313/1 182/314/1
f 252/312/1 229/311/1 67/281/1 94/284/1
f 144/44/1 17/43/1 177/315/1 304/316/1
f 182/314/1 299/313/1 137/285/1 24/288/1
f 74/50/1 87/49/1 247/317/1 234/318/1
f 304/316/1 177/315/1 15/289/1 146/292/1
f 4/66/1 159/65/1 317/319/1 164/320/1
f 234/318/1 247/317/1 85/293/1 76/296/1
f 126/56/1 35/55/1 195/321/1 286/322/1
f 164/320/1 317/319/1 155/297/1 6/300/1
f 286/322/1 195/321/1 33/301/1 128/304/1
f 105/59/1 265/6/1 216/5/1 56/60/1
