# Blender v3.6.0 OBJ File: 'AllModels.blend'
# www.blender.org
mtllib Prop_Computer.mtl
o Prop_Computer_Plane.001
v 0.320041 1.571521 -0.061488
v -0.320040 1.571521 -0.061488
v 0.320041 1.300442 0.213342
v -0.320040 1.300442 0.213342
v -0.255724 1.253530 -0.045615
v 0.255724 1.253530 -0.045615
v -0.255724 -0.001192 0.216230
v -0.255724 -0.001192 -0.086748
v 0.255724 -0.001192 -0.086748
v -0.133175 -0.001192 0.181372
v 0.133175 -0.001192 0.181372
v 0.133175 0.577932 0.181372
v -0.133175 0.577932 0.181372
v 0.164846 0.627980 0.216230
v -0.164846 0.627980 0.216230
v -0.255724 0.796893 0.216230
v 0.255724 0.796893 0.216230
v -0.163740 1.253530 -0.216230
v 0.163740 1.253530 -0.216230
v -0.164846 -0.001192 0.216230
v -0.163740 -0.001192 -0.216230
v 0.163740 -0.001192 -0.216230
v 0.163740 1.253530 -0.045615
v -0.163740 1.253530 -0.045615
v -0.121261 1.054939 -0.013688
v 0.121261 1.054939 -0.013688
v 0.121261 1.054939 0.106855
v -0.121261 1.054939 0.106855
v 0.121261 1.337976 0.106855
v -0.121261 1.337976 0.106855
v -0.121261 1.455674 -0.013688
v 0.121261 1.455674 -0.013688
v 0.255724 -0.001192 0.064741
v -0.255724 -0.001192 0.064741
v -0.113880 0.255703 0.215112
v 0.113880 0.255703 0.215112
v 0.113880 -0.000000 0.026141
v -0.113880 -0.000000 0.026141
v 0.113880 0.000000 0.346229
v 0.113880 0.121103 0.325335
v -0.113880 0.121103 0.325335
v -0.113880 0.000000 0.346229
v 0.244753 1.253530 -0.151489
v 0.209732 1.253530 -0.045615
v 0.244753 -0.001192 -0.151489
v -0.210285 0.712437 0.216230
v -0.244753 1.253530 -0.151489
v -0.209732 1.253530 -0.045615
v -0.244753 -0.001192 -0.151489
v -0.210285 -0.001192 0.216230
v -0.255724 1.062912 -0.086747
v 0.163740 1.062912 -0.216230
v 0.255724 1.062912 -0.086747
v -0.163740 1.062912 -0.216230
v -0.255724 1.062912 0.145003
v -0.163740 1.062912 0.145003
v -0.209732 1.062912 0.145003
v 0.244753 1.062912 -0.151489
v -0.244753 1.062912 -0.151489
v 0.255724 1.062912 0.145003
v -0.163740 1.195223 -0.216230
v -0.255724 1.195223 -0.086747
v 0.163740 1.195223 -0.216230
v 0.255724 1.195223 -0.086747
v 0.244753 1.195223 -0.151489
v -0.244753 1.195223 -0.151489
v -0.255724 0.896803 0.216230
v 0.255724 1.062912 0.047585
v -0.255724 1.062912 0.047585
v -0.209920 0.896803 0.216230
v -0.164028 0.896803 0.216230
v 0.164846 -0.001192 0.216230
v 0.255724 -0.001192 0.216230
v 0.210285 0.712437 0.216230
v 0.210285 -0.001192 0.216230
v 0.163740 1.062912 0.145003
v 0.209732 1.062912 0.145003
v 0.255724 0.896803 0.216230
v 0.209920 0.896803 0.216230
v 0.164028 0.896803 0.216230
v 0.217237 1.195223 -0.186855
v 0.217237 1.062912 -0.186855
v -0.217237 -0.001192 -0.186855
v 0.217237 1.253530 -0.186855
v -0.217237 1.195223 -0.186855
v -0.217237 1.253530 -0.186855
v 0.177410 1.253530 -0.186855
v 0.217237 -0.001192 -0.186855
v -0.217237 1.062912 -0.186855
v -0.177410 1.253530 -0.186855
v -0.255724 0.936302 0.216230
v -0.255724 1.030847 0.177069
v -0.255724 0.969240 0.210984
v -0.255724 1.003846 0.196650
v -0.163908 0.936302 0.216230
v -0.163740 1.030847 0.177069
v -0.163824 0.969240 0.210984
v -0.163762 1.003846 0.196650
v -0.209842 0.936302 0.216230
v -0.209732 1.030847 0.177069
v -0.209787 0.969240 0.210984
v -0.209747 1.003846 0.196650
v 0.163740 1.030847 0.177069
v 0.163908 0.936302 0.216230
v 0.163762 1.003846 0.196650
v 0.163824 0.969240 0.210984
v 0.255724 1.030847 0.177069
v 0.255724 0.936302 0.216230
v 0.255724 1.003846 0.196650
v 0.255724 0.969240 0.210984
v 0.209842 0.936302 0.216230
v 0.209732 1.030847 0.177069
v 0.209787 0.969240 0.210984
v 0.209747 1.003846 0.196650
v 0.287490 1.578003 -0.123905
v 0.323068 1.568366 -0.114269
v 0.300290 1.576712 -0.122614
v 0.313313 1.573185 -0.119087
v 0.357785 1.543817 -0.089719
v 0.371676 1.519846 -0.065749
v 0.364731 1.537011 -0.082913
v 0.369815 1.528237 -0.074139
v 0.371676 1.291808 0.162290
v 0.357785 1.267837 0.186261
v 0.369815 1.283418 0.170680
v 0.364731 1.274644 0.179454
v 0.323068 1.243288 0.210810
v 0.287490 1.233651 0.220447
v 0.313313 1.238470 0.215628
v 0.300291 1.234942 0.219155
v -0.371676 1.519846 -0.065748
v -0.357785 1.543817 -0.089719
v -0.369815 1.528237 -0.074139
v -0.364731 1.537011 -0.082913
v -0.323068 1.568366 -0.114268
v -0.287490 1.578003 -0.123905
v -0.313313 1.573185 -0.119087
v -0.300291 1.576712 -0.122614
v -0.287490 1.233651 0.220447
v -0.323067 1.243288 0.210810
v -0.300290 1.234942 0.219156
v -0.313313 1.238470 0.215628
v -0.357785 1.267837 0.186261
v -0.371676 1.291808 0.162290
v -0.364731 1.274644 0.179454
v -0.369815 1.283418 0.170680
v 0.325390 1.534826 -0.032327
v 0.316995 1.549382 -0.046883
v 0.324232 1.540047 -0.037548
v 0.321229 1.545232 -0.042732
v 0.288915 1.569237 -0.066738
v 0.266622 1.575076 -0.072576
v 0.283183 1.572065 -0.069565
v 0.275245 1.574209 -0.071710
v 0.266622 1.284981 0.217519
v 0.288915 1.290819 0.211681
v 0.275245 1.285847 0.216652
v 0.283183 1.287991 0.214508
v 0.316995 1.310674 0.191825
v 0.325390 1.325230 0.177269
v 0.321229 1.314825 0.187675
v 0.324232 1.320009 0.182491
v -0.325390 1.325230 0.177269
v -0.316994 1.310674 0.191826
v -0.324232 1.320009 0.182491
v -0.321229 1.314825 0.187675
v -0.288915 1.290819 0.211681
v -0.266622 1.284981 0.217519
v -0.283183 1.287991 0.214508
v -0.275245 1.285847 0.216653
v -0.266622 1.575076 -0.072576
v -0.288915 1.569237 -0.066738
v -0.275245 1.574209 -0.071709
v -0.283183 1.572065 -0.069565
v -0.316994 1.549382 -0.046883
v -0.325390 1.534826 -0.032326
v -0.321229 1.545232 -0.042732
v -0.324232 1.540047 -0.037548
v -0.344724 1.556495 -0.068042
v -0.358619 1.532513 -0.044061
v -0.351672 1.549686 -0.061233
v -0.356758 1.540908 -0.052455
v -0.312197 1.579495 -0.091042
v -0.276576 1.589132 -0.100679
v -0.302437 1.584313 -0.095861
v -0.289398 1.587841 -0.099388
v 0.344724 1.556495 -0.068043
v 0.358619 1.532513 -0.044061
v 0.351672 1.549685 -0.061233
v 0.356758 1.540908 -0.052455
v 0.312197 1.579495 -0.091042
v 0.276576 1.589132 -0.100680
v 0.302436 1.584313 -0.095861
v 0.289398 1.587841 -0.099388
v 0.344724 1.289514 0.198938
v 0.358619 1.313496 0.174957
v 0.351672 1.296323 0.192129
v 0.356758 1.305101 0.183351
v 0.312198 1.266514 0.221938
v 0.276576 1.256877 0.231575
v 0.302437 1.261696 0.226757
v 0.289398 1.258168 0.230284
v -0.344724 1.289514 0.198938
v -0.358619 1.313496 0.174957
v -0.351671 1.296323 0.192129
v -0.356758 1.305101 0.183351
v -0.312197 1.266514 0.221938
v -0.276576 1.256877 0.231575
v -0.302436 1.261696 0.226757
v -0.289398 1.258168 0.230284
v -0.348708 1.536111 -0.033611
v -0.346846 1.544510 -0.042010
v -0.341758 1.553292 -0.050792
v -0.334809 1.560104 -0.057604
v 0.268270 1.591564 -0.089065
v 0.281120 1.590273 -0.087774
v 0.294178 1.586745 -0.084246
v 0.303947 1.581927 -0.079427
v 0.348708 1.323946 0.178554
v 0.346846 1.315546 0.186953
v 0.341759 1.306764 0.195735
v 0.334809 1.299952 0.202547
v -0.268270 1.268492 0.234008
v -0.281120 1.269783 0.232717
v -0.294178 1.273311 0.229189
v -0.303947 1.278129 0.224370
v -0.281120 1.590273 -0.087773
v -0.268270 1.591564 -0.089065
v -0.294178 1.586746 -0.084246
v -0.303947 1.581927 -0.079427
v 0.346846 1.544510 -0.042011
v 0.348708 1.536111 -0.033611
v 0.341759 1.553292 -0.050793
v 0.334809 1.560104 -0.057605
v 0.281120 1.269783 0.232716
v 0.268270 1.268492 0.234008
v 0.294178 1.273311 0.229189
v 0.303947 1.278129 0.224370
v -0.346846 1.315547 0.186953
v -0.348708 1.323946 0.178554
v -0.341758 1.306764 0.195736
v -0.334809 1.299952 0.202548
v -0.336941 1.535462 -0.032963
v -0.335434 1.542258 -0.039758
v -0.331398 1.549224 -0.046725
v -0.325819 1.554693 -0.052194
v 0.267438 1.583243 -0.080744
v 0.278155 1.582166 -0.079667
v 0.288630 1.579337 -0.076837
v 0.296361 1.575523 -0.073024
v 0.336941 1.324594 0.177906
v 0.335434 1.317798 0.184701
v 0.331398 1.310832 0.191668
v 0.325819 1.305363 0.197137
v -0.267438 1.276813 0.225687
v -0.278155 1.277890 0.224610
v -0.288630 1.280719 0.221780
v -0.296361 1.284533 0.217967
v -0.278155 1.582166 -0.079667
v -0.267438 1.583243 -0.080744
v -0.288630 1.579337 -0.076837
v -0.296361 1.575523 -0.073023
v 0.335434 1.542258 -0.039759
v 0.336941 1.535462 -0.032963
v 0.331398 1.549224 -0.046725
v 0.325819 1.554693 -0.052194
v 0.278155 1.277890 0.224610
v 0.267438 1.276813 0.225687
v 0.288630 1.280719 0.221780
v 0.296361 1.284533 0.217966
v -0.335434 1.317798 0.184701
v -0.336941 1.324594 0.177906
v -0.331398 1.310832 0.191668
v -0.325819 1.305363 0.197137
v -0.297221 1.613431 0.029133
v -0.292268 1.382515 0.263245
v 0.086753 1.384664 0.261066
v 0.103925 1.393893 0.251709
v 0.300607 1.394597 0.250996
v 0.304106 1.447272 0.197591
v 0.285814 1.461744 0.182919
v 0.288830 1.616737 0.025782
v 0.276343 1.617286 0.025226
v 0.275014 1.624452 0.017960
v -0.294304 1.623724 0.018698
vt 0.249197 0.781500
vt 0.703951 0.781500
vt 0.703951 0.792143
vt 0.249197 0.792143
vt 0.379840 0.668857
vt 0.374426 0.632611
vt 0.397121 0.632611
vt 0.249197 0.712248
vt 0.590266 0.712248
vt 0.632963 0.712248
vt 0.703951 0.743930
vt 0.703951 0.769165
vt 0.249197 0.769165
vt 0.249197 0.740707
vt 0.249197 0.894319
vt 0.703951 0.894319
vt 0.703951 0.919554
vt 0.632963 0.951235
vt 0.590266 0.951235
vt 0.249197 0.951235
vt 0.249197 0.922777
vt 0.621392 0.668857
vt 0.607814 0.680965
vt 0.588161 0.680965
vt 0.581415 0.632611
vt 0.604110 0.632611
vt 0.533930 0.977519
vt 0.559579 0.977519
vt 0.553856 1.000000
vt 0.533930 1.000000
vt 0.249197 0.881983
vt 0.703951 0.881983
vt 0.490810 0.607519
vt 0.957326 0.607519
vt 0.920216 0.653020
vt 0.490810 0.653020
vt 0.625000 0.977519
vt 0.625000 1.000000
vt 0.586984 1.000000
vt 0.586984 0.977519
vt 0.118943 0.607519
vt -0.120562 0.607519
vt -0.120562 0.653020
vt 0.118943 0.653020
vt 0.719514 0.862501
vt 0.678560 0.862501
vt 0.678560 0.800982
vt 0.719514 0.800982
vt 0.419817 0.691022
vt 0.413071 0.680965
vt 0.581415 0.691022
vt 0.488435 0.977519
vt 0.488435 1.000000
vt 0.970502 0.472966
vt 0.291384 0.472966
vt 0.291384 0.097207
vt 0.970502 0.097207
vt 0.957326 0.607519
vt 0.490810 0.607519
vt 0.490810 0.653020
vt 0.920216 0.653020
vt 0.830037 0.500000
vt 0.669963 0.500000
vt 0.669963 0.598631
vt 0.830037 0.598631
vt 0.830037 0.500000
vt 0.830037 0.598631
vt 0.669963 0.598631
vt 0.669963 0.500000
vt 0.669928 0.501713
vt 0.669928 0.527147
vt 0.778492 0.527147
vt 0.823637 0.501713
vt 0.000000 0.168033
vt 0.354681 0.168033
vt 0.354681 0.581967
vt 0.000000 0.581967
vt 0.669928 0.527355
vt 0.669928 0.501922
vt 0.823637 0.501922
vt 0.778492 0.527355
vt 0.494854 0.404922
vt 0.494854 0.162541
vt 0.895358 0.162541
vt 0.895358 0.404922
vt 0.196816 0.366380
vt 0.196816 0.197744
vt 0.323559 0.197744
vt 0.323559 0.366380
vt 0.069222 0.366380
vt 0.020235 0.366380
vt 0.020235 0.197744
vt 0.069222 0.197744
vt 0.090534 0.366380
vt 0.090534 0.197744
vt 0.065076 0.359641
vt 0.066375 0.199890
vt 0.194935 0.296525
vt 0.149982 0.338856
vt 0.065153 0.198677
vt 0.193632 0.293626
vt 0.126001 0.349008
vt 0.065153 0.359506
vt 0.249197 0.862501
vt 0.703951 0.862501
vt 0.703951 0.871341
vt 0.249197 0.871341
vt 0.626806 0.632611
vt 0.488435 0.955037
vt 0.533930 0.955037
vt 0.562644 0.955037
vt 0.393418 0.680965
vt 0.581975 0.977920
vt 0.569250 0.977920
vt 0.569250 0.956342
vt 0.581975 0.956342
vt 0.485124 0.977920
vt 0.474555 0.977920
vt 0.474555 0.956342
vt 0.485124 0.956341
vt 0.566863 0.955037
vt 0.565074 0.977519
vt 0.461830 0.977921
vt 0.447081 0.977920
vt 0.447081 0.956341
vt 0.461830 0.956342
vt 0.596724 0.977920
vt 0.596724 0.956341
vt 0.703951 0.800982
vt 0.249197 0.800982
vt 0.496354 0.956388
vt 0.608833 0.956388
vt 0.603766 0.977998
vt 0.525096 0.977559
vt 0.561733 1.000000
vt 0.678560 0.894319
vt 0.678560 0.881983
vt 0.719514 0.881983
vt 0.719514 0.894319
vt 0.678560 0.769165
vt 0.678560 0.743930
vt 0.719514 0.769165
vt 0.678560 0.781500
vt 0.719514 0.781500
vt 0.678560 0.792143
vt 0.719514 0.792143
vt 0.678560 0.871341
vt 0.719514 0.871341
vt 0.558681 0.956341
vt 0.558681 0.977920
vt 0.496354 0.956512
vt 0.525096 0.977683
vt 0.603766 0.978122
vt 0.608832 0.956512
vt 0.183762 0.856761
vt 0.094333 0.856761
vt 0.094366 0.845993
vt 0.183729 0.845993
vt 0.625000 0.955037
vt 0.586984 0.955037
vt 0.580589 1.000000
vt 0.580589 0.977519
vt 0.183683 0.815798
vt 0.094412 0.815798
vt 0.094412 0.803437
vt 0.183683 0.803437
vt 0.678560 0.919554
vt 0.426331 0.977132
vt 0.477433 0.956512
vt 0.463690 0.958124
vt 0.449251 0.962530
vt 0.437985 0.968548
vt 0.625000 0.955037
vt 0.586984 0.955037
vt 0.586984 0.977519
vt 0.625000 0.977519
vt 0.580589 0.977519
vt 0.580589 1.000000
vt 0.586984 1.000000
vt 0.553856 1.000000
vt 0.561733 1.000000
vt 0.565074 0.977519
vt 0.559579 0.977519
vt 0.566863 0.955037
vt 0.562644 0.955037
vt 0.533930 0.955037
vt 0.533930 0.977519
vt 0.488435 0.955037
vt 0.488435 0.977519
vt 0.488435 1.000000
vt 0.533930 1.000000
vt 0.625000 1.000000
vt 0.094110 0.930042
vt 0.183985 0.930042
vt 0.580589 0.955037
vt 0.580589 0.955037
vt 0.094412 0.729950
vt 0.183683 0.729950
vt 0.419817 0.632611
vt 0.575944 1.000000
vt 0.575944 0.977526
vt 0.568302 1.000000
vt 0.569656 0.977524
vt 0.575944 0.955048
vt 0.570381 0.955045
vt 0.569656 0.977524
vt 0.570381 0.955045
vt 0.575944 0.977526
vt 0.575944 0.955048
vt 0.568302 1.000000
vt 0.575944 1.000000
vt 0.094389 0.837014
vt 0.183706 0.837014
vt 0.094406 0.824777
vt 0.183689 0.824777
vt 0.426331 0.977008
vt 0.437985 0.968424
vt 0.449250 0.962406
vt 0.463689 0.958000
vt 0.477433 0.956388
vt -0.072671 0.561914
vt -0.073103 0.573201
vt -0.107456 0.573201
vt -0.107876 0.561915
vt 1.080240 0.573200
vt 1.079808 0.561914
vt 1.115013 0.561914
vt 1.114593 0.573201
vt 0.782031 0.561914
vt 0.781598 0.573201
vt 0.747245 0.573201
vt 0.746825 0.561914
vt -0.042309 0.561914
vt 0.194744 0.561914
vt 0.194300 0.573201
vt -0.041864 0.573201
vt 0.291271 0.534312
vt 0.715866 0.534312
vt 0.715243 0.561914
vt 0.291894 0.561914
vt 0.650217 0.166778
vt 0.656234 0.167637
vt 0.662356 0.169982
vt 0.666942 0.173185
vt 0.683264 0.189507
vt 0.686529 0.194032
vt 0.688919 0.199866
vt 0.689794 0.205444
vt 0.689794 0.357056
vt 0.688920 0.362634
vt 0.686529 0.368467
vt 0.683264 0.372993
vt 0.666942 0.389314
vt 0.662356 0.392518
vt 0.656234 0.394863
vt 0.650217 0.395722
vt 0.379906 0.395722
vt 0.373888 0.394863
vt 0.367766 0.392518
vt 0.363180 0.389315
vt 0.346859 0.372993
vt 0.343594 0.368467
vt 0.341203 0.362634
vt 0.340328 0.357056
vt 0.340328 0.205444
vt 0.341203 0.199866
vt 0.343594 0.194032
vt 0.346859 0.189507
vt 0.363180 0.173185
vt 0.367766 0.169982
vt 0.373888 0.167637
vt 0.379906 0.166778
vt 0.745224 0.543394
vt 0.267830 0.543394
vt 0.268418 0.532107
vt 0.744636 0.532107
vt 0.225539 0.573201
vt 0.225106 0.561914
vt 0.260311 0.561914
vt 0.259891 0.573201
vt 0.714721 0.573201
vt 0.292416 0.573201
vt -0.072138 0.534312
vt -0.108395 0.534312
vt 0.812392 0.561914
vt 1.049446 0.561914
vt 1.049001 0.573200
vt 0.812837 0.573201
vt 0.745927 0.570996
vt 0.267127 0.570996
vt 0.811846 0.534312
vt 1.049992 0.534312
vt 1.079275 0.534312
vt 1.115531 0.534312
vt 0.782563 0.534312
vt 0.746307 0.534312
vt -0.042856 0.534312
vt 0.195291 0.534312
vt 0.803166 0.574259
vt 0.803073 0.562884
vt 0.791066 0.574278
vt 0.791176 0.562914
vt 0.725500 0.534962
vt 0.725406 0.562715
vt 0.737715 0.535325
vt 0.737949 0.563013
vt 0.204192 0.535194
vt 0.204064 0.562884
vt 0.215815 0.535235
vt 0.215961 0.562914
vt 0.224574 0.534312
vt 0.281791 0.574151
vt 0.281731 0.562715
vt 0.268992 0.574386
vt 0.269188 0.563013
vt -0.051536 0.574259
vt -0.051628 0.562884
vt -0.063636 0.574278
vt -0.063525 0.562914
vt 0.248850 0.566932
vt 0.248850 0.543394
vt -0.122627 0.561915
vt -0.122627 0.538377
vt -0.116987 0.535325
vt -0.116784 0.562929
vt 1.058894 0.535194
vt 1.058765 0.562884
vt 1.070516 0.535235
vt 1.070662 0.562914
vt 0.764204 0.532107
vt 0.764204 0.538665
vt 1.129764 0.566643
vt 1.129764 0.573201
vt 1.123693 0.574386
vt 1.123858 0.563097
vt 0.802945 0.535194
vt 0.791322 0.535235
vt 0.725345 0.574151
vt 0.738145 0.574386
vt 0.203971 0.574259
vt 0.216071 0.574277
vt 0.281636 0.534962
vt 0.269422 0.535324
vt 0.260830 0.534312
vt -0.051757 0.535194
vt -0.063380 0.535235
vt 0.248850 0.538665
vt 0.248850 0.532107
vt -0.122627 0.573201
vt -0.122627 0.566643
vt -0.116721 0.563097
vt -0.116557 0.574386
vt 1.058672 0.574259
vt 1.070772 0.574277
vt 0.764204 0.543394
vt 0.764204 0.566932
vt 1.129764 0.538377
vt 1.129764 0.561914
vt 1.123921 0.562929
vt 1.124123 0.535324
vt 0.633359 0.568487
vt 0.633774 0.564928
vt 0.634851 0.561395
vt 0.636369 0.558566
vt 0.646434 0.545034
vt 0.648489 0.543108
vt 0.651334 0.541646
vt 0.654425 0.541055
vt 0.845575 0.541055
vt 0.848666 0.541646
vt 0.851511 0.543108
vt 0.853566 0.545034
vt 0.863631 0.558566
vt 0.865149 0.561395
vt 0.866226 0.564928
vt 0.866641 0.568486
vt 0.866641 0.711332
vt 0.866226 0.714890
vt 0.865150 0.718423
vt 0.863632 0.721252
vt 0.853566 0.734784
vt 0.851512 0.736711
vt 0.848666 0.738172
vt 0.845575 0.738762
vt 0.654425 0.738763
vt 0.651334 0.738172
vt 0.648489 0.736710
vt 0.646434 0.734784
vt 0.636368 0.721252
vt 0.634851 0.718423
vt 0.633774 0.714890
vt 0.633359 0.711332
vt 0.629218 0.711765
vt 0.629758 0.716396
vt 0.625668 0.717931
vt 0.625000 0.712207
vt 0.631205 0.721144
vt 0.627491 0.723916
vt 0.633205 0.724872
vt 0.629983 0.728559
vt 0.845868 0.744329
vt 0.849709 0.743595
vt 0.850772 0.749120
vt 0.846166 0.750000
vt 0.853464 0.741667
vt 0.855453 0.746716
vt 0.856235 0.739068
vt 0.858954 0.743432
vt 0.870782 0.568053
vt 0.870241 0.563421
vt 0.874332 0.561887
vt 0.875000 0.567611
vt 0.868795 0.558674
vt 0.872509 0.555902
vt 0.866795 0.554946
vt 0.870017 0.551259
vt 0.654133 0.535489
vt 0.650291 0.536223
vt 0.649228 0.530698
vt 0.653834 0.529818
vt 0.646536 0.538151
vt 0.644547 0.533102
vt 0.643765 0.540750
vt 0.641046 0.536386
vt 0.650291 0.743595
vt 0.654132 0.744329
vt 0.653834 0.750000
vt 0.649228 0.749120
vt 0.646536 0.741667
vt 0.644547 0.746716
vt 0.643765 0.739067
vt 0.641046 0.743432
vt 0.870242 0.716396
vt 0.870782 0.711765
vt 0.875000 0.712207
vt 0.874332 0.717931
vt 0.868795 0.721144
vt 0.872509 0.723916
vt 0.866795 0.724871
vt 0.870017 0.728559
vt 0.849709 0.536223
vt 0.845867 0.535489
vt 0.846166 0.529818
vt 0.850772 0.530698
vt 0.853464 0.538151
vt 0.855453 0.533102
vt 0.856235 0.540750
vt 0.858954 0.536386
vt 0.629758 0.563422
vt 0.629218 0.568053
vt 0.625000 0.567611
vt 0.625668 0.561887
vt 0.631205 0.558674
vt 0.627491 0.555902
vt 0.633205 0.554947
vt 0.629983 0.551259
vt 0.249263 0.955266
vt 0.249646 0.955289
vt 0.248954 0.968123
vt 0.248394 0.968089
vt 0.250320 0.955024
vt 0.249974 0.967723
vt 0.251150 0.954528
vt 0.251205 0.966986
vt 0.344765 0.864850
vt 0.346101 0.863477
vt 0.360267 0.862586
vt 0.358399 0.864507
vt 0.347279 0.862160
vt 0.362017 0.860631
vt 0.348081 0.861159
vt 0.363235 0.859112
vt 0.342743 0.839389
vt 0.342360 0.839366
vt 0.349663 0.829837
vt 0.350223 0.829871
vt 0.341686 0.839630
vt 0.348644 0.830238
vt 0.346227 0.846739
vt 0.347412 0.830974
vt 0.252613 0.936416
vt 0.251277 0.937790
vt 0.238350 0.935375
vt 0.240218 0.933454
vt 0.250099 0.939106
vt 0.236600 0.937330
vt 0.249297 0.940107
vt 0.235383 0.938849
vt 0.258723 0.949008
vt 0.260125 0.947701
vt 0.262857 0.958029
vt 0.260897 0.959856
vt 0.257381 0.950157
vt 0.258904 0.961563
vt 0.256364 0.950938
vt 0.257360 0.962748
vt 0.352575 0.854536
vt 0.352560 0.854153
vt 0.368766 0.850262
vt 0.368788 0.850823
vt 0.352296 0.855204
vt 0.368366 0.851834
vt 0.351782 0.856024
vt 0.367604 0.853049
vt 0.338655 0.852259
vt 0.337253 0.853565
vt 0.335760 0.839931
vt 0.337721 0.838105
vt 0.339997 0.851109
vt 0.339713 0.836397
vt 0.341014 0.850328
vt 0.341258 0.835212
vt 0.244803 0.946730
vt 0.244818 0.947113
vt 0.229851 0.947698
vt 0.229829 0.947137
vt 0.245082 0.946061
vt 0.230252 0.946127
vt 0.245596 0.945242
vt 0.231014 0.944912
vt 0.000000 0.000000
vt 1.000000 0.000000
vt 1.000000 1.000000
vt 0.000000 1.000000
vt 0.931731 0.923325
vt 0.040208 0.947076
vt 0.662361 0.099242
vt 0.946527 0.349539
vt 0.951239 0.921301
vt 0.929654 0.949763
vt 0.035651 0.909107
vt 0.043389 0.057267
vt 0.635534 0.065195
vt 0.969638 0.101837
vt 0.975104 0.296154
vn -0.9153 0.0000 -0.4028
vn -0.6487 0.0000 -0.7610
vn 0.0000 1.0000 -0.0000
vn -1.0000 -0.0000 0.0000
vn -0.9965 -0.0000 -0.0838
vn 0.9965 -0.0000 -0.0838
vn 1.0000 0.0000 0.0000
vn -0.0000 -0.0000 1.0000
vn 0.9153 0.0000 -0.4028
vn -0.7401 0.0000 0.6725
vn 0.0000 0.7071 0.7071
vn 0.0000 -0.5715 0.8206
vn 0.2484 0.0000 -0.9686
vn -0.2484 0.0000 -0.9686
vn 0.7401 0.0000 0.6725
vn 0.0000 -1.0000 -0.0000
vn 0.0000 0.7155 0.6986
vn 0.0000 0.0000 -1.0000
vn 0.0000 0.5943 -0.8042
vn 0.0000 0.1700 0.9854
vn 0.0000 0.4155 0.9096
vn 0.0000 0.6336 0.7737
vn 0.6487 0.0000 -0.7610
vn 0.9192 0.0116 -0.3937
vn 0.7893 -0.0000 -0.6141
vn 0.0000 0.0789 0.9969
vn -0.9192 0.0116 -0.3937
vn -0.9961 0.0156 -0.0863
vn -0.9985 0.0183 -0.0520
vn -0.9908 0.0449 -0.1274
vn 0.9961 0.0156 -0.0863
vn 0.9908 0.0449 -0.1274
vn 0.9985 0.0183 -0.0520
vn 0.0000 0.6491 0.7607
vn -0.7893 -0.0000 -0.6141
vn 0.0000 0.4882 0.8727
vn 0.0000 0.2719 0.9623
vn 0.5974 0.0788 0.7981
vn 0.5149 0.2009 0.8334
vn 0.4420 0.1281 0.8878
vn 0.5110 -0.0030 0.8596
vn -0.5148 0.2009 0.8334
vn -0.5974 0.0788 0.7981
vn -0.5110 -0.0030 0.8596
vn -0.4420 0.1281 0.8878
vn -0.5974 0.7981 0.0788
vn -0.5148 0.8334 0.2009
vn -0.4420 0.8878 0.1281
vn -0.5110 0.8596 -0.0030
vn 0.7933 0.3845 0.4720
vn 0.7933 0.4720 0.3845
vn 0.6964 0.5377 0.4753
vn 0.6964 0.4753 0.5377
vn 0.0813 0.9132 -0.3994
vn -0.0813 0.9132 -0.3994
vn -0.0638 0.9557 -0.2873
vn 0.0638 0.9557 -0.2873
vn -0.0000 -0.7071 -0.7071
vn -0.0638 -0.2873 0.9557
vn 0.0638 -0.2873 0.9557
vn 0.0362 -0.1800 0.9830
vn -0.0362 -0.1800 0.9830
vn 0.5148 0.8334 0.2009
vn 0.5974 0.7981 0.0788
vn 0.5110 0.8596 -0.0030
vn 0.4420 0.8878 0.1281
vn -0.0362 0.9830 -0.1800
vn 0.0362 0.9830 -0.1800
vn 0.6622 -0.0387 0.7483
vn 0.5645 -0.1266 0.8156
vn -0.7933 0.4720 0.3845
vn -0.7933 0.3845 0.4720
vn -0.6963 0.4753 0.5378
vn -0.6963 0.5377 0.4753
vn -0.0813 -0.3994 0.9132
vn 0.0813 -0.3994 0.9132
vn -0.8699 0.3982 0.2911
vn -0.8699 0.2911 0.3982
vn -0.6622 -0.0387 0.7483
vn -0.5646 -0.1266 0.8156
vn -0.6622 0.7483 -0.0387
vn -0.5645 0.8156 -0.1266
vn 0.8699 0.2911 0.3982
vn 0.8699 0.3982 0.2911
vn -0.6531 0.6445 0.3975
vn -0.7528 0.5896 0.2929
vn -0.5845 0.7563 0.2938
vn -0.6794 0.7118 0.1781
vn -0.2461 0.9140 -0.3225
vn -0.2129 0.9554 -0.2047
vn -0.4265 0.8772 -0.2205
vn -0.3813 0.9191 -0.0990
vn 0.8284 0.5265 0.1912
vn 0.7528 0.5896 0.2929
vn 0.7514 0.6563 0.0689
vn 0.6794 0.7118 0.1781
vn 0.6622 0.7483 -0.0387
vn 0.1677 0.9821 -0.0861
vn 0.2129 0.9554 -0.2047
vn 0.3223 0.9461 0.0311
vn 0.3813 0.9191 -0.0990
vn 0.6531 0.3975 0.6445
vn 0.7528 0.2929 0.5896
vn 0.5845 0.2938 0.7563
vn 0.6794 0.1781 0.7118
vn 0.2462 -0.3225 0.9140
vn 0.2129 -0.2047 0.9554
vn 0.4265 -0.2205 0.8772
vn 0.3813 -0.0990 0.9191
vn -0.8284 0.1912 0.5265
vn -0.7528 0.2929 0.5896
vn -0.7514 0.0689 0.6563
vn -0.6794 0.1781 0.7118
vn -0.1677 -0.0861 0.9821
vn -0.2129 -0.2047 0.9554
vn -0.3223 0.0311 0.9461
vn -0.3813 -0.0990 0.9191
vn -0.8284 0.5265 0.1912
vn -0.7514 0.6563 0.0689
vn -0.1677 0.9821 -0.0861
vn -0.3223 0.9461 0.0311
vn 0.6531 0.6445 0.3975
vn 0.5845 0.7563 0.2938
vn 0.2461 0.9140 -0.3225
vn 0.4265 0.8772 -0.2205
vn 0.5645 0.8156 -0.1266
vn 0.8284 0.1912 0.5265
vn 0.7514 0.0689 0.6563
vn 0.1677 -0.0861 0.9821
vn 0.3223 0.0311 0.9461
vn -0.6531 0.3975 0.6445
vn -0.5845 0.2938 0.7563
vn -0.2461 -0.3225 0.9140
vn -0.4265 -0.2205 0.8772
vn 0.0000 0.7119 0.7022
vn -0.0000 0.7120 0.7022
usemtl MI_Trim_01
s 1
f 49/1/1 59/2/1 89/3/2 83/4/2
f 47/5/3 5/6/3 48/7/3
f 7/8/4 16/9/4 67/10/4 69/11/4 51/12/5 8/13/5 34/14/4
f 9/15/6 53/16/6 68/17/7 78/18/7 17/19/7 73/20/7 33/21/7
f 43/22/3 84/23/3 87/24/3 23/25/3 44/26/3
f 46/27/8 70/28/8 67/29/8 16/30/8
f 45/31/9 58/32/9 53/16/6 9/15/6
f 72/33/10 14/34/10 12/35/10 11/36/10
f 48/37/11 5/38/11 55/39/11 57/40/11
f 14/41/12 15/42/12 13/43/12 12/44/12
f 63/45/13 52/46/13 54/47/14 61/48/14
f 18/49/3 90/50/3 87/24/3 19/51/3
f 50/52/8 46/27/8 16/30/8 7/53/8
f 13/54/8 10/55/8 11/56/8 12/57/8
f 15/58/15 20/59/15 10/60/15 13/61/15
f 25/62/16 26/63/16 27/64/16 28/65/16
f 31/66/17 30/67/17 29/68/17 32/69/17
f 25/70/4 28/71/4 30/72/4 31/73/4
f 28/74/8 27/75/8 29/76/8 30/77/8
f 27/78/7 26/79/7 32/80/7 29/81/7
f 26/82/18 25/83/18 31/84/18 32/85/18
f 37/86/19 38/87/19 35/88/19 36/89/19
f 39/90/20 40/91/21 41/92/21 42/93/20
f 38/87/16 37/86/16 39/90/16 42/93/16
f 36/94/22 35/95/22 41/92/21 40/91/21
f 35/96/4 38/97/4 42/98/4 41/99/4
f 37/100/7 36/101/7 40/102/7 39/103/7
f 22/104/13 52/105/13 82/106/23 88/107/23
f 6/108/3 43/22/3 44/26/3
f 20/109/8 15/110/8 46/27/8 50/52/8
f 15/110/8 71/111/8 70/28/8 46/27/8
f 18/49/3 86/112/3 90/50/3
f 8/13/5 51/12/5 59/2/1 49/1/1
f 65/113/24 81/114/23 84/115/23 43/116/25
f 61/117/14 85/118/2 86/119/2 18/120/14
f 70/28/8 71/111/8 95/121/26 99/122/26
f 66/123/27 62/124/28 5/125/29 47/126/30
f 64/127/31 65/113/24 43/116/32 6/128/33
f 54/129/14 52/105/13 22/104/13 21/130/14
f 55/131/4 5/132/29 62/133/28 69/134/4
f 67/29/8 70/28/8 99/122/26 91/135/26
f 53/136/6 58/137/9 65/138/24 64/139/31
f 51/140/5 69/141/4 62/142/28
f 59/143/1 51/140/5 62/142/28 66/144/27
f 54/47/14 89/145/2 85/146/2 61/48/14
f 58/137/9 82/147/23 81/148/23 65/138/24
f 19/149/13 63/150/13 61/117/14 18/120/14
f 60/151/7 68/152/7 64/153/31 6/154/33
f 71/155/8 80/156/8 104/157/26 95/158/26
f 24/159/11 48/37/11 57/40/11 56/160/11
f 57/40/11 55/39/11 92/161/34 100/162/34
f 96/163/34 103/164/34 76/165/11 56/166/11
f 64/139/31 68/167/7 53/136/6
f 78/168/7 68/152/7 60/151/7 107/169/7 109/170/7 110/171/7 108/172/7
f 23/173/11 76/174/11 77/175/11 44/176/11
f 77/175/11 112/177/34 107/178/34 60/179/11
f 78/180/8 108/181/26 111/182/26 79/183/8
f 79/183/8 111/182/26 104/184/26 80/185/8
f 14/186/8 74/187/8 79/183/8 80/185/8
f 72/188/8 75/189/8 74/187/8 14/186/8
f 75/189/8 73/190/8 17/191/8 74/187/8
f 44/176/11 77/175/11 60/179/11 6/192/11
f 74/187/8 17/191/8 78/180/8 79/183/8
f 14/193/8 80/156/8 71/155/8 15/194/8
f 76/174/11 103/195/34 112/177/34 77/175/11
f 56/160/11 57/40/11 100/162/34 96/196/34
f 23/197/11 24/198/11 56/166/11 76/165/11
f 84/115/23 81/114/23 63/150/13 19/149/13
f 85/146/2 89/145/2 59/143/1 66/144/27
f 83/4/2 89/3/2 54/129/14 21/130/14
f 90/50/3 86/112/3 47/5/3 48/7/3 24/199/3
f 86/119/2 85/118/2 66/123/27 47/126/35
f 87/24/3 90/50/3 24/199/3 23/25/3
f 87/24/3 84/23/3 19/51/3
f 81/148/23 82/147/23 52/46/13 63/45/13
f 88/107/23 82/106/23 58/32/9 45/31/9
f 100/162/34 92/161/34 94/200/36 102/201/36
f 102/201/36 94/200/36 93/202/37 101/203/37
f 101/203/37 93/202/37 91/135/26 99/122/26
f 96/196/34 100/162/34 102/201/36 98/204/36
f 98/204/36 102/201/36 101/203/37 97/205/37
f 97/205/37 101/203/37 99/122/26 95/121/26
f 104/184/26 111/182/26 113/206/37 106/207/37
f 106/207/37 113/206/37 114/208/36 105/209/36
f 105/209/36 114/208/36 112/177/34 103/195/34
f 111/182/26 108/181/26 110/210/37 113/206/37
f 113/206/37 110/210/37 109/211/36 114/208/36
f 114/208/36 109/211/36 107/178/34 112/177/34
f 95/158/26 104/157/26 106/212/37 97/213/37
f 97/213/37 106/212/37 105/214/36 98/215/36
f 98/215/36 105/214/36 103/164/34 96/163/34
f 69/134/4 67/216/4 91/217/4 93/218/4 94/219/4 92/220/4 55/131/4
f 195/221/38 222/222/39 238/223/40 199/224/41
f 242/225/42 203/226/43 207/227/44 226/228/45
f 179/229/46 214/230/47 230/231/48 183/232/49
f 196/233/50 188/234/51 232/235/52 219/236/53
f 115/237/54 136/238/55 184/239/56 192/240/57
f 139/241/58 141/242/58 142/243/58 140/244/58 143/245/58 145/246/58 146/247/58 144/248/58 131/249/58 133/250/58 134/251/58 132/252/58 135/253/58 137/254/58 138/255/58 136/256/58 115/257/58 117/258/58 118/259/58 116/260/58 119/261/58 121/262/58 122/263/58 120/264/58 123/265/58 125/266/58 126/267/58 124/268/58 127/269/58 129/270/58 130/271/58 128/272/58
f 208/273/59 200/274/60 236/275/61 223/276/62
f 234/277/63 187/278/64 191/279/65 218/280/66
f 192/240/57 184/239/56 228/281/67 215/282/68
f 124/283/69 195/221/38 199/224/41 127/284/70
f 180/285/71 204/286/72 240/287/73 211/288/74
f 139/289/75 128/290/76 200/274/60 208/273/59
f 131/291/77 144/292/78 204/286/72 180/285/71
f 203/226/43 143/293/79 140/294/80 207/227/44
f 132/295/81 179/229/46 183/232/49 135/296/82
f 123/297/83 120/298/84 188/234/51 196/233/50
f 180/285/71 211/288/74 212/299/85 182/300/86
f 182/300/86 212/299/85 213/301/87 181/302/88
f 181/302/88 213/301/87 214/230/47 179/229/46
f 184/239/56 136/238/55 138/303/89 186/304/90
f 186/304/90 138/303/89 137/305/91 185/306/92
f 185/306/92 137/305/91 135/296/82 183/232/49
f 188/234/51 120/298/84 122/307/93 190/308/94
f 190/308/94 122/307/93 121/309/95 189/310/96
f 189/310/96 121/309/95 119/311/97 187/278/64
f 192/240/57 215/282/68 216/312/98 194/313/99
f 194/313/99 216/312/98 217/314/100 193/315/101
f 193/315/101 217/314/100 218/280/66 191/279/65
f 196/233/50 219/236/53 220/316/102 198/317/103
f 198/317/103 220/316/102 221/318/104 197/319/105
f 197/319/105 221/318/104 222/222/39 195/221/38
f 200/274/60 128/290/76 130/320/106 202/321/107
f 202/322/107 130/323/106 129/324/108 201/325/109
f 201/325/109 129/324/108 127/284/70 199/224/41
f 204/286/72 144/292/78 146/326/110 206/327/111
f 206/327/111 146/326/110 145/328/112 205/329/113
f 205/329/113 145/328/112 143/293/79 203/226/43
f 208/273/59 223/276/62 224/330/114 210/331/115
f 210/332/115 224/333/114 225/334/116 209/335/117
f 209/335/117 225/334/116 226/228/45 207/227/44
f 131/291/77 180/285/71 182/300/86 133/336/118
f 133/336/118 182/300/86 181/302/88 134/337/119
f 134/337/119 181/302/88 179/229/46 132/295/81
f 228/281/67 184/239/56 186/304/90 227/338/120
f 227/338/120 186/304/90 185/306/92 229/339/121
f 229/339/121 185/306/92 183/232/49 230/231/48
f 232/235/52 188/234/51 190/308/94 231/340/122
f 231/340/122 190/308/94 189/310/96 233/341/123
f 233/341/123 189/310/96 187/278/64 234/277/63
f 115/237/54 192/240/57 194/313/99 117/342/124
f 117/342/124 194/313/99 193/315/101 118/343/125
f 118/343/125 193/315/101 191/279/65 116/344/126
f 123/297/83 196/233/50 198/317/103 125/345/127
f 125/345/127 198/317/103 197/319/105 126/346/128
f 126/346/128 197/319/105 195/221/38 124/283/69
f 236/275/61 200/274/60 202/347/107 235/348/129
f 235/349/129 202/350/107 201/351/109 237/352/130
f 237/352/130 201/351/109 199/224/41 238/223/40
f 240/287/73 204/286/72 206/327/111 239/353/131
f 239/353/131 206/327/111 205/329/113 241/354/132
f 241/354/132 205/329/113 203/226/43 242/225/42
f 139/289/75 208/273/59 210/355/115 141/356/133
f 141/357/133 210/358/115 209/359/117 142/360/134
f 142/360/134 209/359/117 207/227/44 140/294/80
f 187/278/64 119/311/97 116/344/126 191/279/65
usemtl M_Black
f 163/361/11 165/362/11 166/363/11 164/364/11 167/365/11 169/366/11 170/367/11 168/368/11 155/369/11 157/370/11 158/371/11 156/372/11 159/373/11 161/374/11 162/375/11 160/376/11 147/377/11 149/378/11 150/379/11 148/380/11 151/381/11 153/382/11 154/383/11 152/384/11 171/385/11 173/386/11 174/387/11 172/388/11 175/389/11 177/390/11 178/391/11 176/392/11
f 243/393/11 244/394/11 212/395/11 211/396/11
f 244/394/11 245/397/11 213/398/11 212/395/11
f 245/397/11 246/399/11 214/400/11 213/398/11
f 247/401/11 248/402/11 216/403/11 215/404/11
f 248/402/11 249/405/11 217/406/11 216/403/11
f 249/405/11 250/407/11 218/408/11 217/406/11
f 251/409/11 252/410/11 220/411/11 219/412/11
f 252/410/11 253/413/11 221/414/11 220/411/11
f 253/413/11 254/415/11 222/416/11 221/414/11
f 255/417/11 256/418/11 224/419/11 223/420/11
f 256/418/11 257/421/11 225/422/11 224/419/11
f 257/421/11 258/423/11 226/424/11 225/422/11
f 259/425/11 260/426/11 228/427/11 227/428/11
f 261/429/11 259/425/11 227/428/11 229/430/11
f 262/431/11 261/429/11 229/430/11 230/432/11
f 263/433/11 264/434/11 232/435/11 231/436/11
f 265/437/11 263/433/11 231/436/11 233/438/11
f 266/439/11 265/437/11 233/438/11 234/440/11
f 267/441/11 268/442/11 236/443/11 235/444/11
f 269/445/11 267/441/11 235/444/11 237/446/11
f 270/447/11 269/445/11 237/446/11 238/448/11
f 271/449/11 272/450/11 240/451/11 239/452/11
f 273/453/11 271/449/11 239/452/11 241/454/11
f 274/455/11 273/453/11 241/454/11 242/456/11
f 250/407/11 266/439/11 234/440/11 218/408/11
f 272/450/11 243/393/11 211/396/11 240/451/11
f 258/423/11 274/455/11 242/456/11 226/424/11
f 268/442/11 255/417/11 223/420/11 236/443/11
f 254/415/11 270/447/11 238/448/11 222/416/11
f 264/434/11 251/409/11 219/412/11 232/435/11
f 260/426/11 247/401/11 215/404/11 228/427/11
f 246/399/11 262/431/11 230/432/11 214/400/11
f 176/457/11 178/458/11 244/459/11 243/460/11
f 178/458/11 177/461/11 245/462/11 244/459/11
f 177/461/11 175/463/11 246/464/11 245/462/11
f 152/465/11 154/466/11 248/467/11 247/468/11
f 154/466/11 153/469/11 249/470/11 248/467/11
f 153/469/11 151/471/11 250/472/11 249/470/11
f 160/473/11 162/474/11 252/475/11 251/476/11
f 162/474/11 161/477/11 253/478/11 252/475/11
f 161/477/11 159/479/11 254/480/11 253/478/11
f 168/481/11 170/482/11 256/483/11 255/484/11
f 170/482/11 169/485/11 257/486/11 256/483/11
f 169/485/11 167/487/11 258/488/11 257/486/11
f 173/489/11 171/490/11 260/491/11 259/492/11
f 174/493/11 173/489/11 259/492/11 261/494/11
f 172/495/11 174/493/11 261/494/11 262/496/11
f 149/497/11 147/498/11 264/499/11 263/500/11
f 150/501/11 149/497/11 263/500/11 265/502/11
f 148/503/11 150/501/11 265/502/11 266/504/11
f 157/505/11 155/506/11 268/507/11 267/508/11
f 158/509/11 157/505/11 267/508/11 269/510/11
f 156/511/11 158/509/11 269/510/11 270/512/11
f 165/513/11 163/514/11 272/515/11 271/516/11
f 166/517/11 165/513/11 271/516/11 273/518/11
f 164/519/11 166/517/11 273/518/11 274/520/11
f 151/471/11 148/503/11 266/504/11 250/472/11
f 163/514/11 176/457/11 243/460/11 272/515/11
f 167/487/11 164/519/11 274/520/11 258/488/11
f 155/506/11 168/481/11 255/484/11 268/507/11
f 159/479/11 156/511/11 270/512/11 254/480/11
f 147/498/11 160/473/11 251/476/11 264/499/11
f 171/490/11 152/465/11 247/468/11 260/491/11
f 175/463/11 172/495/11 262/496/11 246/464/11
usemtl MI_StatScreens_1
s off
f 4/521/135 3/522/135 1/523/135 2/524/135
f 283/525/135 285/526/135 278/527/135
f 281/528/135 282/529/135 283/525/135
f 283/525/135 284/530/135 285/526/135
f 285/526/135 275/531/135 278/527/135
f 275/531/135 276/532/135 277/533/135
f 278/527/136 275/531/136 277/533/136
f 278/527/135 279/534/135 281/528/135
f 279/534/135 280/535/135 281/528/135
f 281/528/135 283/525/135 278/527/135
