# Blender v3.6.0 OBJ File: 'AllModels.blend'
# www.blender.org
mtllib Prop_HologramHexagonPlanet.mtl
o Prop_HologramHexagonPlanet_Icosphere.001
v -0.080408 -0.718079 0.058420
v -0.656004 -0.293665 0.094526
v -0.292614 -0.293668 -0.594686
v 0.555568 -0.232240 -0.403639
v -0.456176 0.393059 0.403639
v 0.468960 0.545861 -0.064293
v 0.168900 0.692258 -0.122713
v 0.237607 0.603808 -0.315170
v 0.433795 0.482558 -0.315171
v 0.396075 0.428429 -0.426139
v 0.284698 0.460661 -0.479108
v 0.083768 0.545863 -0.465873
v -0.064515 0.692258 -0.198552
v -0.341606 0.545863 -0.327658
v 0.051283 0.460661 -0.554949
v -0.069956 0.428429 -0.577560
v -0.417187 0.545863 -0.223631
v -0.417187 0.545863 0.223631
v -0.570911 0.428428 -0.111946
v -0.030714 0.718079 0.094525
v -0.341606 0.545863 0.327658
v -0.064515 0.692258 0.198552
v -0.135205 0.572735 0.416110
v -0.006978 0.603808 0.394639
v 0.051283 0.460661 0.554949
v 0.147207 0.663569 0.245004
v 0.353965 0.572735 0.257171
v 0.468960 0.545861 0.064293
v 0.582370 0.319045 -0.284740
v 0.450767 0.319046 -0.465875
v 0.576458 -0.122856 -0.418818
v 0.004162 0.129031 -0.710883
v -0.109382 0.067603 -0.709815
v -0.207478 0.263794 -0.638544
v -0.421216 0.129031 -0.572668
v -0.475159 0.293668 -0.462060
v -0.711178 -0.061427 -0.111685
v -0.708876 0.067603 -0.115315
v -0.638513 0.319046 0.111946
v -0.640971 0.251886 0.220263
v -0.475158 0.293668 0.462060
v -0.328728 0.067603 0.638545
v -0.218765 0.135205 0.673286
v -0.207478 0.263793 0.638544
v 0.004162 0.129031 0.710883
v 0.011411 0.251887 0.677664
v 0.112813 0.293668 0.653107
v 0.292614 0.293668 0.594686
v 0.509708 -0.061429 0.508375
v 0.641275 0.067602 0.323371
v 0.648025 0.251885 0.198554
v 0.656004 0.293665 0.094526
v 0.109383 -0.067603 -0.709815
v 0.407557 -0.251887 -0.541532
v -0.414478 -0.129031 -0.577564
v -0.572732 -0.135205 -0.416113
v -0.641275 -0.067603 -0.323372
v -0.656004 -0.293665 -0.094526
v -0.555568 0.232240 0.403639
v -0.641004 0.061428 0.327660
v -0.576458 0.122856 0.418818
v -0.509708 0.061428 0.508375
v -0.450767 -0.319046 0.465875
v -0.389086 -0.251887 0.554951
v -0.292614 -0.293668 0.594686
v 0.212205 0.232240 0.653107
v 0.220186 0.122856 0.677666
v 0.218765 -0.135206 0.673286
v 0.328728 -0.067603 0.638545
v -0.011411 -0.251887 0.677664
v 0.303782 -0.319047 0.572666
v 0.686718 0.232238 0.000000
v 0.711178 0.061428 0.111685
v 0.674805 -0.129030 0.223632
v 0.712540 0.122855 0.000000
v 0.226321 -0.603808 -0.323370
v 0.069956 -0.428429 -0.577561
v -0.024915 -0.663569 -0.284739
v 0.006978 -0.603808 -0.394640
v -0.051283 -0.460661 -0.554949
v -0.527678 -0.428427 -0.245005
v -0.168900 -0.692258 -0.122712
v -0.373171 -0.603807 -0.128585
v -0.468961 -0.545861 -0.064293
v -0.543638 -0.460659 -0.122713
v -0.606308 -0.393056 -0.058420
v -0.468961 -0.545861 0.064293
v -0.278505 -0.663568 0.064293
v -0.543638 -0.460658 0.122713
v -0.527678 -0.428427 0.245005
v -0.168900 -0.692258 0.122713
v -0.206061 -0.545863 0.426139
v 0.570911 -0.428428 -0.111946
v 0.570911 -0.428428 0.111946
v 0.417187 -0.545863 -0.223631
v 0.437526 -0.572734 0.000000
v 0.208772 -0.692258 0.000000
v 0.099390 -0.718079 0.000000
v -0.051282 -0.460661 0.554949
v 0.135206 -0.572735 0.416110
v 0.341607 -0.545863 0.327659
v 0.367684 -0.460661 0.418816
v 0.030714 -0.718079 0.094525
v -0.080408 -0.718079 -0.058420
v 0.030714 -0.718079 -0.094525
v 0.524853 -0.393059 0.309112
v 0.586281 -0.293667 0.309113
v 0.555568 -0.232240 0.403639
v 0.475159 -0.293668 0.462060
v 0.456176 -0.393059 0.403639
v -0.112813 -0.293668 0.653107
v -0.212205 -0.232240 0.653108
v -0.242918 -0.393059 0.558579
v -0.131795 -0.393059 0.594685
v -0.686718 -0.232238 0.000000
v -0.606308 -0.393056 0.058420
v -0.212205 -0.232240 -0.653107
v -0.112813 -0.293668 -0.653107
v -0.131795 -0.393059 -0.594685
v -0.242918 -0.393059 -0.558579
v 0.475159 -0.293668 -0.462060
v 0.586281 -0.293667 -0.309113
v 0.524853 -0.393059 -0.309112
v 0.456176 -0.393059 -0.403639
v 0.242918 0.393059 0.558579
v 0.131795 0.393059 0.594685
v -0.524853 0.393059 0.309112
v -0.586281 0.293667 0.309113
v -0.524853 0.393059 -0.309112
v -0.456176 0.393059 -0.403639
v -0.555568 0.232240 -0.403639
v -0.586281 0.293667 -0.309113
v 0.131795 0.393059 -0.594685
v 0.242918 0.393059 -0.558579
v 0.292614 0.293668 -0.594686
v 0.212205 0.232240 -0.653107
v 0.112813 0.293668 -0.653107
v 0.606308 0.393056 -0.058420
v 0.606308 0.393056 0.058420
v 0.656004 0.293665 -0.094526
v 0.080408 0.718079 -0.058420
v -0.030714 0.718079 -0.094525
v -0.099390 0.718079 0.000000
v 0.080408 0.718079 0.058420
v -0.083767 -0.545863 0.465873
v -0.284699 -0.460661 0.479108
v -0.147207 -0.663569 0.245005
v -0.024914 -0.663569 0.284739
v 0.006979 -0.603808 0.394640
v -0.237607 -0.603807 0.315170
v 0.064515 -0.692258 0.198553
v 0.263105 -0.663569 0.111685
v 0.187524 -0.663569 0.215712
v 0.417187 -0.545862 0.223631
v 0.226322 -0.603808 0.323370
v 0.377482 -0.603807 0.115315
v 0.511941 -0.460660 0.220262
v 0.282892 -0.428429 0.508372
v 0.407557 -0.251887 0.541532
v 0.090846 -0.319047 0.641855
v 0.069956 -0.428429 0.577560
v 0.165698 -0.482558 0.509956
v 0.207478 -0.263794 0.638544
v 0.638513 -0.319046 -0.111946
v 0.511941 -0.460660 -0.220262
v 0.640971 -0.251886 -0.220262
v 0.638513 -0.319046 0.111946
v 0.536201 -0.482557 0.000000
v 0.671406 -0.263793 -0.000000
v 0.640971 -0.251886 0.220262
v 0.064515 -0.692258 -0.198553
v 0.187524 -0.663569 -0.215713
v 0.263105 -0.663569 -0.111685
v 0.341606 -0.545863 -0.327659
v 0.377482 -0.603807 -0.115314
v 0.367684 -0.460661 -0.418816
v -0.278504 -0.663568 -0.064292
v -0.373171 -0.603806 0.128586
v -0.396075 -0.428428 0.426139
v -0.582369 -0.319045 0.284741
v -0.433796 -0.482557 0.315171
v -0.543179 -0.263793 0.394642
v -0.648025 -0.251885 0.198554
v -0.083768 -0.545863 -0.465874
v -0.206061 -0.545863 -0.426138
v -0.284699 -0.460661 -0.479108
v -0.147207 -0.663569 -0.245004
v -0.237607 -0.603808 -0.315170
v -0.582369 -0.319045 -0.284741
v -0.648025 -0.251885 -0.198554
v -0.450767 -0.319046 -0.465875
v -0.396075 -0.428429 -0.426139
v -0.433796 -0.482557 -0.315170
v -0.543179 -0.263793 -0.394642
v -0.389086 -0.251887 -0.554951
v 0.090846 -0.319047 -0.641855
v -0.011411 -0.251887 -0.677664
v 0.303782 -0.319047 -0.572666
v 0.282891 -0.428429 -0.508372
v 0.165697 -0.482558 -0.509956
v 0.207478 -0.263794 -0.638544
v 0.677377 0.129030 0.215713
v 0.641004 -0.061428 0.327660
v 0.708876 -0.067603 0.115315
v 0.576458 -0.122857 0.418818
v 0.641004 -0.061428 -0.327660
v 0.674805 -0.129030 -0.223632
v 0.677377 0.129030 -0.215713
v 0.711178 0.061428 -0.111685
v 0.708876 -0.067603 -0.115315
v 0.641275 0.067603 -0.323371
v 0.648025 0.251885 -0.198553
v 0.113545 0.061428 0.710883
v -0.113545 -0.061428 0.710883
v -0.004162 -0.129031 0.710883
v 0.109383 -0.067603 0.709815
v -0.109383 0.067603 0.709815
v -0.220186 -0.122857 0.677666
v 0.421216 -0.129031 0.572668
v 0.414478 0.129031 0.577564
v 0.325986 0.061428 0.641857
v 0.505712 0.067602 0.509959
v 0.389087 0.251887 0.554951
v -0.674805 0.129031 0.223632
v -0.711178 -0.061427 0.111686
v -0.677377 -0.129030 0.215714
v -0.641275 -0.067603 0.323372
v -0.708876 0.067603 0.115315
v -0.712540 -0.122855 0.000000
v -0.325986 -0.061428 0.641857
v -0.414478 -0.129031 0.577564
v -0.421216 0.129031 0.572668
v -0.505711 -0.067603 0.509959
v -0.407557 0.251887 0.541532
v -0.509708 0.061428 -0.508375
v -0.576458 0.122856 -0.418818
v -0.407557 0.251887 -0.541532
v -0.325986 -0.061428 -0.641857
v -0.505711 -0.067603 -0.509959
v -0.328728 0.067603 -0.638546
v -0.220186 -0.122856 -0.677666
v -0.677377 -0.129030 -0.215714
v -0.674805 0.129030 -0.223632
v -0.641004 0.061428 -0.327660
v -0.640971 0.251886 -0.220262
v 0.414478 0.129031 -0.577563
v 0.325986 0.061428 -0.641857
v 0.220186 0.122856 -0.677666
v 0.389087 0.251887 -0.554951
v 0.509708 -0.061428 -0.508375
v 0.421216 -0.129031 -0.572668
v 0.328728 -0.067603 -0.638545
v 0.505712 0.067603 -0.509959
v -0.113544 -0.061428 -0.710883
v -0.004162 -0.129031 -0.710883
v 0.113545 0.061428 -0.710883
v 0.011411 0.251887 -0.677664
v 0.527678 0.428428 0.245005
v 0.582370 0.319045 0.284740
v 0.543637 0.460659 0.122713
v 0.396075 0.428429 0.426139
v 0.450767 0.319046 0.465875
v 0.543180 0.263792 0.394642
v 0.433796 0.482558 0.315171
v 0.284698 0.460661 0.479108
v -0.069956 0.428429 0.577560
v -0.090846 0.319047 0.641855
v -0.282891 0.428429 0.508372
v -0.303782 0.319047 0.572666
v -0.165698 0.482559 0.509955
v -0.367684 0.460661 0.418816
v -0.570911 0.428428 0.111946
v -0.511941 0.460660 0.220262
v -0.638513 0.319046 -0.111946
v -0.671406 0.263793 0.000000
v -0.536201 0.482557 0.000000
v -0.511941 0.460660 -0.220262
v -0.282891 0.428429 -0.508372
v -0.303782 0.319047 -0.572667
v -0.367684 0.460661 -0.418816
v -0.090846 0.319047 -0.641855
v -0.165698 0.482559 -0.509955
v 0.527678 0.428428 -0.245005
v 0.543180 0.263793 -0.394641
v 0.543637 0.460659 -0.122713
v 0.024915 0.663570 0.284739
v 0.168900 0.692258 0.122713
v 0.083768 0.545863 0.465873
v 0.206060 0.545863 0.426139
v 0.237607 0.603808 0.315170
v 0.278504 0.663569 -0.064293
v 0.278504 0.663569 0.064293
v 0.373170 0.603807 0.128585
v 0.373170 0.603807 -0.128585
v -0.208772 0.692258 0.000000
v -0.263104 0.663569 0.111685
v -0.187524 0.663570 0.215712
v -0.377481 0.603808 0.115314
v -0.226321 0.603808 0.323369
v -0.187524 0.663570 -0.215712
v -0.263104 0.663569 -0.111685
v -0.226321 0.603808 -0.323369
v -0.377481 0.603808 -0.115314
v 0.147207 0.663569 -0.245004
v 0.024915 0.663570 -0.284739
v 0.206060 0.545863 -0.426139
v -0.006978 0.603808 -0.394639
v 0.353965 0.572735 -0.257171
v -0.135205 0.572735 -0.416110
v -0.437526 0.572735 0.000000
v 0.572733 0.135205 -0.416112
v -0.218765 0.135206 -0.673286
v -0.707936 0.135205 0.000000
v 0.572733 0.135204 0.416113
v 0.218765 -0.135206 -0.673286
v -0.572732 -0.135205 0.416113
v 0.707936 -0.135205 -0.000000
v 0.135204 -0.572735 -0.416111
v -0.353966 -0.572734 -0.257170
v -0.353966 -0.572734 0.257171
vt 0.790893 0.005097
vt 0.790893 0.005097
vt 0.790893 0.005097
vt 0.790893 0.005097
vt 0.790893 0.005097
vt 0.793574 0.216221
vt 0.805109 0.279349
vt 0.784206 0.328012
vt 0.759363 0.294959
vt 0.762777 0.225868
vt 0.608900 0.344186
vt 0.588119 0.392293
vt 0.565266 0.352933
vt 0.570766 0.280501
vt 0.599444 0.275095
vt 0.417724 0.349987
vt 0.394660 0.388445
vt 0.374020 0.339782
vt 0.383816 0.271248
vt 0.412576 0.277555
vt 0.222881 0.288732
vt 0.197931 0.321785
vt 0.176810 0.273678
vt 0.188273 0.210894
vt 0.219381 0.220198
vt 1.014825 0.245076
vt 0.990640 0.284436
vt 0.966212 0.245978
vt 0.973482 0.182850
vt 1.007021 0.182292
vt 0.719381 0.779802
vt 0.688273 0.789106
vt 0.676810 0.726322
vt 0.697931 0.678216
vt 0.722881 0.711268
vt 0.507021 0.817708
vt 0.473482 0.817150
vt 0.466212 0.754022
vt 0.490640 0.715564
vt 0.514825 0.754924
vt 0.293574 0.783779
vt 0.262777 0.774132
vt 0.259363 0.705041
vt 0.284206 0.671988
vt 0.305109 0.720651
vt 0.099444 0.724905
vt 0.070766 0.719499
vt 0.065266 0.647067
vt 0.088119 0.607707
vt 0.108900 0.655814
vt 0.912576 0.722445
vt 0.883816 0.728752
vt 0.874020 0.660218
vt 0.894660 0.611555
vt 0.917724 0.650013
vt 0.974847 0.990842
vt 0.974847 0.990842
vt 0.974847 0.990842
vt 0.974847 0.990842
vt 0.974847 0.990842
vt 0.561219 0.167610
vt 0.599839 0.161660
vt 0.616040 0.221919
vt 0.550959 0.233274
vt 0.542958 0.074361
vt 0.600314 0.068412
vt 0.623091 0.112636
vt 0.532378 0.124534
vt 0.601129 0.017611
vt 0.639689 0.038446
vt 0.493685 0.049801
vt 0.495316 0.023017
vt 0.790893 0.005097
vt 0.790893 0.005097
vt 0.790893 0.005097
vt 0.790893 0.005097
vt 0.789969 0.115429
vt 0.746195 0.126047
vt 0.708723 0.094272
vt 0.709529 0.050626
vt 0.780517 0.040009
vt 0.815132 0.073037
vt 0.739253 0.186842
vt 0.810572 0.166577
vt 0.709466 0.295115
vt 0.707944 0.219079
vt 0.736452 0.331969
vt 0.655875 0.312942
vt 0.648996 0.236906
vt 0.675473 0.190326
vt 0.684346 0.342398
vt 0.633518 0.367047
vt 0.913064 0.236007
vt 0.913779 0.166533
vt 0.950344 0.142798
vt 0.940661 0.275400
vt 0.855082 0.248092
vt 0.847613 0.178618
vt 0.877966 0.138279
vt 0.885296 0.277226
vt 0.831387 0.299179
vt 1.270910 0.007407
vt 1.145338 0.017011
vt 1.038667 0.027338
vt 0.936502 0.027951
vt 0.831114 0.018181
vt 0.716103 0.007964
vt 1.015091 0.090673
vt 0.963988 0.091286
vt 0.923658 0.060588
vt 1.054603 0.059361
vt 1.029737 0.141628
vt 0.384180 0.158538
vt 0.423004 0.165479
vt 0.432747 0.231176
vt 0.367416 0.217928
vt 0.385248 0.066356
vt 0.443066 0.073297
vt 0.452547 0.123435
vt 0.361233 0.109553
vt 0.346340 0.036553
vt 0.389346 0.016710
vt 0.517779 0.339290
vt 0.520224 0.259577
vt 0.542167 0.385419
vt 0.465345 0.338223
vt 0.463368 0.258510
vt 0.491955 0.219490
vt 0.491464 0.378915
vt 0.440706 0.383319
vt 0.191534 0.111366
vt 0.236083 0.121604
vt 0.243132 0.181551
vt 0.170909 0.162008
vt 0.200360 0.037672
vt 0.273851 0.047911
vt 0.274316 0.090509
vt 0.165435 0.070031
vt 0.145338 0.017011
vt 0.270910 0.007407
vt 0.326965 0.307483
vt 0.334151 0.232060
vt 0.349245 0.361884
vt 0.273103 0.288995
vt 0.274746 0.213572
vt 0.307629 0.185465
vt 0.298287 0.336310
vt 0.245935 0.325507
vt 0.126396 0.243649
vt 0.133539 0.174554
vt 0.150432 0.293887
vt 0.068038 0.233291
vt 0.066752 0.164196
vt 0.102536 0.135273
vt 0.096163 0.273462
vt 0.014825 0.245076
vt 0.007021 0.182292
vt 0.029737 0.141628
vt 0.040609 0.273506
vt 0.844476 0.554043
vt 0.866961 0.500488
vt 0.892652 0.535897
vt 0.849245 0.638116
vt 0.813872 0.433734
vt 0.836504 0.380179
vt 0.863395 0.413605
vt 0.818021 0.520715
vt 0.787455 0.401398
vt 0.990841 0.356183
vt 0.965692 0.398360
vt 0.940286 0.356036
vt 0.941066 0.530755
vt 0.916214 0.488431
vt 0.915272 0.401156
vt 0.965585 0.485805
vt 0.940706 0.616680
vt 0.645535 0.625329
vt 0.668351 0.572386
vt 0.694772 0.605064
vt 0.650432 0.706113
vt 0.615396 0.504359
vt 0.638028 0.451417
vt 0.664379 0.485373
vt 0.618683 0.591257
vt 0.589836 0.468095
vt 0.764496 0.452178
vt 0.738495 0.415803
vt 0.743875 0.590976
vt 0.717832 0.554600
vt 0.715198 0.467008
vt 0.767191 0.539759
vt 0.745936 0.674492
vt 0.440286 0.643964
vt 0.465692 0.601640
vt 0.490841 0.643817
vt 0.440661 0.724600
vt 0.416213 0.511569
vt 0.441066 0.469245
vt 0.465585 0.514195
vt 0.415272 0.598844
vt 0.392652 0.464103
vt 0.566095 0.514693
vt 0.541423 0.471377
vt 0.541423 0.646021
vt 0.516203 0.602705
vt 0.516711 0.515294
vt 0.566677 0.601927
vt 0.540609 0.726494
vt 0.238495 0.584197
vt 0.264496 0.547822
vt 0.287455 0.598602
vt 0.236452 0.668031
vt 0.217832 0.445400
vt 0.243874 0.409024
vt 0.267191 0.460240
vt 0.215198 0.532991
vt 0.194772 0.394936
vt 0.366961 0.499512
vt 0.344476 0.445957
vt 0.336504 0.619821
vt 0.313872 0.566266
vt 0.318021 0.479284
vt 0.363395 0.586395
vt 0.331387 0.700821
vt 0.041423 0.528623
vt 0.066095 0.485307
vt 0.089836 0.531905
vt 0.042167 0.614581
vt 0.016203 0.397295
vt 0.041423 0.353978
vt 0.066677 0.398072
vt 0.016711 0.484706
vt 1.040609 0.273506
vt 1.041423 0.353978
vt 1.016203 0.397295
vt 0.168351 0.427613
vt 0.145535 0.374671
vt 0.138028 0.548583
vt 0.115396 0.495641
vt 0.118683 0.408742
vt 0.164379 0.514627
vt 0.133518 0.632953
vt 0.834151 0.767940
vt 0.826965 0.692517
vt 0.867416 0.782072
vt 0.774746 0.786428
vt 0.773103 0.711005
vt 0.798287 0.663689
vt 0.807629 0.814536
vt 0.743132 0.818449
vt 0.633539 0.825446
vt 0.626396 0.756351
vt 0.670909 0.837992
vt 0.566752 0.835804
vt 0.568038 0.766709
vt 0.596163 0.726538
vt 0.602535 0.864728
vt 0.529737 0.858372
vt 0.413779 0.833467
vt 0.413064 0.763994
vt 0.450344 0.857202
vt 0.347613 0.821382
vt 0.355082 0.751908
vt 0.385296 0.722774
vt 0.377966 0.861722
vt 0.310572 0.833423
vt 0.207944 0.780921
vt 0.209466 0.704885
vt 0.239253 0.813158
vt 0.148996 0.763094
vt 0.155875 0.687058
vt 0.184346 0.657602
vt 0.175472 0.809674
vt 0.116039 0.778081
vt 0.020224 0.740423
vt 0.017779 0.660710
vt 0.050959 0.766726
vt 0.963368 0.741490
vt 0.965345 0.661777
vt 0.991464 0.621085
vt 1.017779 0.660710
vt 1.020224 0.740423
vt 0.991955 0.780510
vt 0.932747 0.768824
vt 0.770910 0.992593
vt 0.645338 0.982989
vt 0.700360 0.962328
vt 0.773851 0.952089
vt 0.846340 0.963447
vt 0.889346 0.983290
vt 0.665435 0.929969
vt 0.691534 0.888635
vt 0.736083 0.878396
vt 0.774316 0.909492
vt 0.923004 0.834521
vt 0.884180 0.841462
vt 0.943066 0.926703
vt 0.885248 0.933644
vt 0.861232 0.890447
vt 0.952547 0.876565
vt 0.995316 0.976983
vt 0.993685 0.950199
vt 0.216103 0.992036
vt 0.331114 0.981819
vt 0.436502 0.972049
vt 0.538666 0.972662
vt 0.423658 0.939413
vt 0.463988 0.908714
vt 0.515091 0.909327
vt 0.554603 0.940639
vt 0.101129 0.982389
vt 0.139689 0.961554
vt 0.209529 0.949374
vt 0.280517 0.959991
vt 0.208723 0.905729
vt 0.246195 0.873953
vt 0.289969 0.884571
vt 0.315132 0.926963
vt 0.974847 0.990842
vt 0.974847 0.990842
vt 0.974847 0.990842
vt 0.974847 0.990842
vt 0.042958 0.925639
vt 0.032378 0.875466
vt 0.061219 0.832391
vt 0.099839 0.838340
vt 0.123091 0.887365
vt 0.100314 0.931588
vt 0.992312 0.849889
vt 1.032378 0.875466
vt 1.042958 0.925639
vt 1.050959 0.766726
vt 1.061219 0.832391
vt 0.168658 0.873686
vt 0.371492 0.916155
vt 0.608226 0.918608
vt 0.814877 0.877653
vt 0.991251 0.531039
vt 1.016711 0.484706
vt 1.041423 0.528623
vt 1.042167 0.614581
vt 0.188007 0.569541
vt 0.388017 0.638260
vt 0.593815 0.642228
vt 0.794466 0.575960
vt 0.093815 0.357772
vt 0.294465 0.424039
vt 0.491251 0.468962
vt 0.688007 0.430458
vt 0.888017 0.361740
vt 0.015091 0.090673
vt 0.054603 0.059361
vt 0.108226 0.081392
vt 0.038667 0.027338
vt 0.314878 0.122348
vt 0.492312 0.150112
vt 0.871492 0.083845
vt 0.668658 0.126315
vn -0.0000 -1.0000 -0.0000
vn 0.7236 -0.4472 0.5257
vn -0.2764 -0.4472 0.8506
vn -0.8944 -0.4472 0.0000
vn -0.2764 -0.4472 -0.8506
vn 0.7236 -0.4472 -0.5257
vn 0.2764 0.4472 0.8506
vn -0.7236 0.4472 0.5257
vn -0.7236 0.4472 -0.5257
vn 0.2764 0.4472 -0.8506
vn 0.8944 0.4472 0.0000
vn 0.0000 1.0000 0.0000
vn -0.2299 -0.6683 0.7075
vn -0.1625 -0.8507 0.5000
vn -0.0819 -0.9642 0.2521
vn 0.2145 -0.9642 0.1558
vn 0.4253 -0.8507 0.3090
vn 0.6018 -0.6683 0.4372
vn 0.5199 -0.5045 0.6894
vn 0.2629 -0.5257 0.8090
vn -0.0154 -0.5045 0.8633
vn 0.8163 -0.5045 -0.2814
vn 0.8506 -0.5257 -0.0000
vn 0.8163 -0.5045 0.2814
vn 0.2145 -0.9642 -0.1558
vn 0.4253 -0.8507 -0.3090
vn 0.6018 -0.6683 -0.4372
vn -0.7439 -0.6683 0.0000
vn -0.5257 -0.8507 0.0000
vn -0.2651 -0.9642 0.0000
vn -0.4950 -0.5045 0.7075
vn -0.6882 -0.5257 0.5000
vn -0.8258 -0.5045 0.2521
vn -0.2299 -0.6683 -0.7075
vn -0.1625 -0.8507 -0.5000
vn -0.0819 -0.9642 -0.2521
vn -0.8258 -0.5045 -0.2521
vn -0.6882 -0.5257 -0.5000
vn -0.4950 -0.5045 -0.7075
vn -0.0154 -0.5045 -0.8633
vn 0.2629 -0.5257 -0.8090
vn 0.5199 -0.5045 -0.6894
vn 0.9583 0.2394 0.1558
vn 0.9511 -0.0000 0.3090
vn 0.8669 -0.2394 0.4372
vn 0.8669 -0.2394 -0.4372
vn 0.9511 0.0000 -0.3090
vn 0.9583 0.2394 -0.1558
vn 0.1479 0.2394 0.9596
vn 0.0000 -0.0000 1.0000
vn -0.1479 -0.2394 0.9596
vn 0.6837 -0.2394 0.6894
vn 0.5878 -0.0000 0.8090
vn 0.4443 0.2394 0.8633
vn -0.8669 0.2394 0.4372
vn -0.9511 0.0000 0.3090
vn -0.9583 -0.2394 0.1558
vn -0.4443 -0.2394 0.8633
vn -0.5878 -0.0000 0.8090
vn -0.6837 0.2394 0.6894
vn -0.6837 0.2394 -0.6894
vn -0.5878 0.0000 -0.8090
vn -0.4443 -0.2394 -0.8633
vn -0.9583 -0.2394 -0.1558
vn -0.9511 -0.0000 -0.3090
vn -0.8669 0.2394 -0.4372
vn 0.4443 0.2394 -0.8633
vn 0.5878 0.0000 -0.8090
vn 0.6837 -0.2394 -0.6894
vn -0.1479 -0.2394 -0.9596
vn 0.0000 -0.0000 -1.0000
vn 0.1479 0.2394 -0.9596
vn 0.8258 0.5045 0.2521
vn 0.6882 0.5257 0.5000
vn 0.4950 0.5045 0.7075
vn 0.0154 0.5045 0.8633
vn -0.2629 0.5257 0.8090
vn -0.5199 0.5045 0.6894
vn -0.8163 0.5045 0.2814
vn -0.8506 0.5257 0.0000
vn -0.8163 0.5045 -0.2814
vn -0.5199 0.5045 -0.6894
vn -0.2629 0.5257 -0.8090
vn 0.0154 0.5045 -0.8633
vn 0.4950 0.5045 -0.7075
vn 0.6882 0.5257 -0.5000
vn 0.8258 0.5045 -0.2521
vn 0.0819 0.9642 0.2521
vn 0.1625 0.8507 0.5000
vn 0.2299 0.6683 0.7075
vn 0.7439 0.6683 0.0000
vn 0.5257 0.8507 0.0000
vn 0.2651 0.9642 0.0000
vn -0.2145 0.9642 0.1558
vn -0.4253 0.8507 0.3090
vn -0.6018 0.6683 0.4372
vn -0.2145 0.9642 -0.1558
vn -0.4253 0.8507 -0.3090
vn -0.6018 0.6683 -0.4372
vn 0.0819 0.9642 -0.2521
vn 0.1625 0.8507 -0.5000
vn 0.2299 0.6683 -0.7075
vn 0.3746 0.8863 -0.2722
vn 0.6252 0.7315 -0.2722
vn 0.4521 0.7315 -0.5105
vn -0.1431 0.8863 -0.4404
vn -0.0657 0.7315 -0.6787
vn -0.3458 0.7315 -0.5877
vn -0.4631 0.8863 -0.0000
vn -0.6658 0.7315 -0.1473
vn -0.6658 0.7315 0.1473
vn -0.1431 0.8863 0.4404
vn -0.3458 0.7315 0.5877
vn -0.0657 0.7315 0.6787
vn 0.3746 0.8863 0.2722
vn 0.4521 0.7315 0.5105
vn 0.6252 0.7315 0.2722
vn 0.8567 0.2684 -0.4404
vn 0.8089 0.0178 -0.5877
vn 0.6836 0.2684 -0.6787
vn -0.1541 0.2684 -0.9509
vn -0.3090 0.0178 -0.9509
vn -0.4343 0.2684 -0.8599
vn -0.9520 0.2684 -0.1473
vn -0.9998 0.0178 0.0000
vn -0.9520 0.2684 0.1473
vn -0.4343 0.2684 0.8599
vn -0.3090 0.0178 0.9509
vn -0.1541 0.2684 0.9509
vn 0.6836 0.2684 0.6787
vn 0.8089 0.0178 0.5877
vn 0.8567 0.2684 0.4404
vn 0.3090 -0.0178 -0.9509
vn 0.4343 -0.2684 -0.8599
vn 0.1541 -0.2684 -0.9509
vn -0.8089 -0.0178 -0.5877
vn -0.6836 -0.2684 -0.6787
vn -0.8567 -0.2684 -0.4404
vn -0.8089 -0.0178 0.5877
vn -0.8567 -0.2684 0.4404
vn -0.6836 -0.2684 0.6787
vn 0.3090 -0.0178 0.9509
vn 0.1541 -0.2684 0.9509
vn 0.4343 -0.2684 0.8599
vn 0.9998 -0.0178 -0.0000
vn 0.9520 -0.2684 0.1473
vn 0.9520 -0.2684 -0.1473
vn 0.3458 -0.7315 -0.5877
vn 0.1431 -0.8863 -0.4404
vn 0.0657 -0.7315 -0.6787
vn -0.4521 -0.7315 -0.5105
vn -0.3746 -0.8863 -0.2722
vn -0.6252 -0.7315 -0.2722
vn -0.6252 -0.7315 0.2722
vn -0.3746 -0.8863 0.2722
vn -0.4521 -0.7315 0.5105
vn 0.6658 -0.7315 -0.1473
vn 0.6658 -0.7315 0.1473
vn 0.4631 -0.8863 0.0000
vn 0.0657 -0.7315 0.6787
vn 0.1431 -0.8863 0.4404
vn 0.3458 -0.7315 0.5877
usemtl MI_HologramPlanet
s off
f 103/1/1 1/2/1 104/3/1 105/4/1 98/5/1
f 106/6/2 107/7/2 108/8/2 109/9/2 110/10/2
f 111/11/3 112/12/3 65/13/3 113/14/3 114/15/3
f 2/16/4 115/17/4 58/18/4 86/19/4 116/20/4
f 3/21/5 117/22/5 118/23/5 119/24/5 120/25/5
f 121/26/6 4/27/6 122/28/6 123/29/6 124/30/6
f 125/31/7 126/32/7 47/33/7 66/34/7 48/35/7
f 5/36/8 127/37/8 128/38/8 59/39/8 41/40/8
f 129/41/9 130/42/9 36/43/9 131/44/9 132/45/9
f 133/46/10 134/47/10 135/48/10 136/49/10 137/50/10
f 138/51/11 139/52/11 52/53/11 72/54/11 140/55/11
f 141/56/12 142/57/12 143/58/12 20/59/12 144/60/12
f 92/61/13 145/62/13 99/63/13 114/15/13 113/14/13 146/64/13
f 147/65/14 148/66/14 149/67/14 145/62/14 92/61/14 150/68/14
f 103/69/15 151/70/15 148/66/15 147/65/15 91/71/15 1/72/15
f 103/1/16 98/5/16 97/73/16 152/74/16 153/75/16 151/76/16
f 154/77/17 101/78/17 155/79/17 153/80/17 152/81/17 156/82/17
f 106/6/18 110/10/18 102/83/18 101/78/18 154/77/18 157/84/18
f 71/85/19 158/86/19 102/83/19 110/10/19 109/9/19 159/87/19
f 160/88/20 161/89/20 162/90/20 158/86/20 71/85/20 163/91/20
f 111/11/21 114/15/21 99/63/21 161/89/21 160/88/21 70/92/21
f 164/93/22 93/94/22 165/95/22 123/29/22 122/28/22 166/96/22
f 167/97/23 94/98/23 168/99/23 93/94/23 164/93/23 169/100/23
f 106/6/24 157/84/24 94/98/24 167/97/24 170/101/24 107/7/24
f 105/102/25 171/103/25 172/104/25 173/105/25 97/106/25 98/107/25
f 174/108/26 95/109/26 175/110/26 173/105/26 172/104/26 76/111/26
f 124/30/27 123/29/27 165/95/27 95/109/27 174/108/27 176/112/27
f 84/113/28 87/114/28 89/115/28 116/20/28 86/19/28 85/116/28
f 177/117/29 88/118/29 178/119/29 87/114/29 84/113/29 83/120/29
f 1/72/30 91/71/30 88/118/30 177/117/30 82/121/30 104/122/30
f 63/123/31 179/124/31 146/64/31 113/14/31 65/13/31 64/125/31
f 180/126/32 90/127/32 181/128/32 179/124/32 63/123/32 182/129/32
f 2/16/33 116/20/33 89/115/33 90/127/33 180/126/33 183/130/33
f 184/131/34 185/132/34 186/133/34 120/25/34 119/24/34 80/134/34
f 78/135/35 187/136/35 188/137/35 185/132/35 184/131/35 79/138/35
f 104/122/36 82/121/36 187/136/36 78/135/36 171/139/36 105/140/36
f 189/141/37 81/142/37 85/116/37 86/19/37 58/18/37 190/143/37
f 191/144/38 192/145/38 193/146/38 81/142/38 189/141/38 194/147/38
f 3/21/39 120/25/39 186/133/39 192/145/39 191/144/39 195/148/39
f 196/149/40 77/150/40 80/134/40 119/24/40 118/23/40 197/151/40
f 198/152/41 199/153/41 200/154/41 77/150/41 196/149/41 201/155/41
f 121/156/42 124/157/42 176/158/42 199/153/42 198/152/42 54/159/42
f 202/160/43 73/161/43 75/162/43 72/54/43 52/53/43 51/163/43
f 203/164/44 74/165/44 204/166/44 73/161/44 202/160/44 50/167/44
f 107/7/45 170/101/45 74/165/45 203/164/45 205/168/45 108/8/45
f 4/27/46 31/169/46 206/170/46 207/171/46 166/96/46 122/28/46
f 208/172/47 209/173/47 210/174/47 207/171/47 206/170/47 211/175/47
f 140/55/48 72/54/48 75/162/48 209/173/48 208/172/48 212/176/48
f 45/177/49 213/178/49 67/179/49 66/34/49 47/33/49 46/180/49
f 214/181/50 215/182/50 216/183/50 213/178/50 45/177/50 217/184/50
f 111/11/51 70/92/51 215/182/51 214/181/51 218/185/51 112/12/51
f 108/8/52 205/168/52 49/186/52 219/187/52 159/87/52 109/9/52
f 220/188/53 221/189/53 69/190/53 219/187/53 49/186/53 222/191/53
f 48/35/54 66/34/54 67/179/54 221/189/54 220/188/54 223/192/54
f 224/193/55 60/194/55 61/195/55 59/39/55 128/38/55 40/196/55
f 225/197/56 226/198/56 227/199/56 60/194/56 224/193/56 228/200/56
f 2/16/57 183/130/57 226/198/57 225/197/57 229/201/57 115/17/57
f 112/12/58 218/185/58 230/202/58 231/203/58 64/125/58 65/13/58
f 232/204/59 62/205/59 233/206/59 231/203/59 230/202/59 42/207/59
f 41/40/60 59/39/60 61/195/60 62/205/60 232/204/60 234/208/60
f 35/209/61 235/210/61 236/211/61 131/44/61 36/43/61 237/212/61
f 238/213/62 55/214/62 239/215/62 235/210/62 35/209/62 240/216/62
f 3/21/63 195/148/63 55/214/63 238/213/63 241/217/63 117/22/63
f 115/17/64 229/201/64 37/218/64 242/219/64 190/143/64 58/18/64
f 243/220/65 244/221/65 57/222/65 242/219/65 37/218/65 38/223/65
f 132/45/66 131/44/66 236/211/66 244/221/66 243/220/66 245/224/66
f 246/225/67 247/226/67 248/227/67 136/49/67 135/48/67 249/228/67
f 250/229/68 251/230/68 252/231/68 247/226/68 246/225/68 253/232/68
f 121/26/69 54/233/69 251/234/69 250/235/69 31/169/69 4/27/69
f 117/22/70 241/217/70 254/236/70 255/237/70 197/151/70 118/23/70
f 32/238/71 256/239/71 53/240/71 255/237/71 254/236/71 33/241/71
f 137/50/72 136/49/72 248/227/72 256/239/72 32/238/72 257/242/72
f 258/243/73 259/244/73 51/163/73 52/53/73 139/52/73 260/245/73
f 261/246/74 262/247/74 263/248/74 259/244/74 258/243/74 264/249/74
f 125/31/75 48/35/75 223/192/75 262/247/75 261/246/75 265/250/75
f 266/251/76 267/252/76 46/180/76 47/33/76 126/32/76 25/253/76
f 268/254/77 269/255/77 44/256/77 267/252/77 266/251/77 270/257/77
f 5/36/78 41/40/78 234/208/78 269/255/78 268/254/78 271/258/78
f 272/259/79 39/260/79 40/196/79 128/38/79 127/37/79 273/261/79
f 19/262/80 274/263/80 275/264/80 39/260/80 272/259/80 276/265/80
f 129/41/81 132/45/81 245/224/81 274/263/81 19/262/81 277/266/81
f 278/267/82 279/268/82 237/212/82 36/43/82 130/42/82 280/269/82
f 16/270/83 281/271/83 34/272/83 279/268/83 278/267/83 282/273/83
f 133/46/84 137/50/84 257/242/84 281/271/84 16/270/84 15/274/84
f 10/275/85 30/276/85 249/228/85 135/48/85 134/47/85 11/277/85
f 283/278/86 29/279/86 284/280/86 30/281/86 10/282/86 9/283/86
f 138/51/87 140/55/87 212/176/87 29/279/87 283/278/87 285/284/87
f 20/285/88 22/286/88 286/287/88 26/288/88 287/289/88 144/290/88
f 286/287/89 24/291/89 288/292/89 289/293/89 290/294/89 26/288/89
f 125/31/90 265/250/90 289/293/90 288/292/90 25/253/90 126/32/90
f 138/51/91 285/284/91 6/295/91 28/296/91 260/245/91 139/52/91
f 291/297/92 292/298/92 293/299/92 28/296/92 6/295/92 294/300/92
f 141/301/93 144/290/93 287/289/93 292/298/93 291/297/93 7/302/93
f 143/303/94 295/304/94 296/305/94 297/306/94 22/286/94 20/285/94
f 296/305/95 298/307/95 18/308/95 21/309/95 299/310/95 297/306/95
f 5/36/96 271/258/96 21/309/96 18/308/96 273/261/96 127/37/96
f 142/311/97 13/312/97 300/313/97 301/314/97 295/304/97 143/303/97
f 300/313/98 302/315/98 14/316/98 17/317/98 303/318/98 301/314/98
f 129/41/99 277/266/99 17/317/99 14/316/99 280/269/99 130/42/99
f 141/56/100 7/319/100 304/320/100 305/321/100 13/322/100 142/57/100
f 304/323/101 8/324/101 306/325/101 12/326/101 307/327/101 305/328/101
f 133/46/102 15/274/102 12/326/102 306/325/102 11/277/102 134/47/102
f 291/297/103 294/300/103 308/329/103 8/330/103 304/331/103 7/302/103
f 6/295/104 285/284/104 283/278/104 9/283/104 308/329/104 294/300/104
f 308/329/105 9/283/105 10/282/105 11/332/105 306/333/105 8/330/105
f 305/328/106 307/327/106 309/334/106 302/315/106 300/313/106 13/312/106
f 12/326/107 15/274/107 16/270/107 282/273/107 309/334/107 307/327/107
f 309/334/108 282/273/108 278/267/108 280/269/108 14/316/108 302/315/108
f 301/314/109 303/318/109 310/335/109 298/307/109 296/305/109 295/304/109
f 17/317/110 277/266/110 19/262/110 276/265/110 310/335/110 303/318/110
f 310/335/111 276/265/111 272/259/111 273/261/111 18/308/111 298/307/111
f 297/306/112 299/310/112 23/336/112 24/291/112 286/287/112 22/286/112
f 21/309/113 271/258/113 268/254/113 270/257/113 23/336/113 299/310/113
f 23/336/114 270/257/114 266/251/114 25/253/114 288/292/114 24/291/114
f 26/288/115 290/294/115 27/337/115 293/299/115 292/298/115 287/289/115
f 289/293/116 265/250/116 261/246/116 264/249/116 27/337/116 290/294/116
f 27/337/117 264/249/117 258/243/117 260/245/117 28/296/117 293/299/117
f 208/172/118 211/175/118 311/338/118 284/280/118 29/279/118 212/176/118
f 206/170/119 31/169/119 250/235/119 253/339/119 311/338/119 211/175/119
f 311/338/120 253/339/120 246/340/120 249/341/120 30/281/120 284/280/120
f 32/238/121 33/241/121 312/342/121 34/272/121 281/271/121 257/242/121
f 254/236/122 241/217/122 238/213/122 240/216/122 312/342/122 33/241/122
f 312/342/123 240/216/123 35/209/123 237/212/123 279/268/123 34/272/123
f 243/220/124 38/223/124 313/343/124 275/264/124 274/263/124 245/224/124
f 37/218/125 229/201/125 225/197/125 228/200/125 313/343/125 38/223/125
f 313/343/126 228/200/126 224/193/126 40/196/126 39/260/126 275/264/126
f 232/204/127 42/207/127 43/344/127 44/256/127 269/255/127 234/208/127
f 230/202/128 218/185/128 214/181/128 217/184/128 43/344/128 42/207/128
f 43/344/129 217/184/129 45/177/129 46/180/129 267/252/129 44/256/129
f 220/188/130 222/191/130 314/345/130 263/248/130 262/247/130 223/192/130
f 49/186/131 205/168/131 203/164/131 50/167/131 314/345/131 222/191/131
f 314/345/132 50/167/132 202/160/132 51/163/132 259/244/132 263/248/132
f 247/226/133 252/231/133 315/346/133 53/240/133 256/239/133 248/227/133
f 251/230/134 54/159/134 198/152/134 201/155/134 315/346/134 252/231/134
f 315/346/135 201/155/135 196/149/135 197/151/135 255/237/135 53/240/135
f 235/210/136 239/215/136 56/347/136 57/222/136 244/221/136 236/211/136
f 55/214/137 195/148/137 191/144/137 194/147/137 56/347/137 239/215/137
f 56/347/138 194/147/138 189/141/138 190/143/138 242/219/138 57/222/138
f 60/194/139 227/199/139 316/348/139 233/206/139 62/205/139 61/195/139
f 226/198/140 183/130/140 180/126/140 182/129/140 316/348/140 227/199/140
f 316/348/141 182/129/141 63/123/141 64/125/141 231/203/141 233/206/141
f 213/178/142 216/183/142 68/349/142 69/190/142 221/189/142 67/179/142
f 215/182/143 70/92/143 160/88/143 163/91/143 68/349/143 216/183/143
f 68/349/144 163/91/144 71/85/144 159/87/144 219/187/144 69/190/144
f 73/161/145 204/166/145 317/350/145 210/174/145 209/173/145 75/162/145
f 74/165/146 170/101/146 167/97/146 169/100/146 317/350/146 204/166/146
f 317/350/147 169/100/147 164/93/147 166/96/147 207/171/147 210/174/147
f 174/351/148 76/352/148 318/353/148 200/154/148 199/153/148 176/158/148
f 172/354/149 171/139/149 78/135/149 79/138/149 318/353/149 76/352/149
f 318/353/150 79/138/150 184/131/150 80/134/150 77/150/150 200/154/150
f 185/132/151 188/137/151 319/355/151 193/146/151 192/145/151 186/133/151
f 187/136/152 82/121/152 177/117/152 83/120/152 319/355/152 188/137/152
f 319/355/153 83/120/153 84/113/153 85/116/153 81/142/153 193/146/153
f 87/114/154 178/119/154 320/356/154 181/128/154 90/127/154 89/115/154
f 88/118/155 91/71/155 147/65/155 150/68/155 320/356/155 178/119/155
f 320/356/156 150/68/156 92/61/156 146/64/156 179/124/156 181/128/156
f 93/94/157 168/99/157 96/357/157 175/110/157 95/109/157 165/95/157
f 94/98/158 157/84/158 154/77/158 156/82/158 96/357/158 168/99/158
f 96/357/159 156/82/159 152/81/159 97/106/159 173/105/159 175/110/159
f 145/62/160 149/67/160 100/358/160 162/90/160 161/89/160 99/63/160
f 148/66/161 151/70/161 153/80/161 155/79/161 100/358/161 149/67/161
f 100/358/162 155/79/162 101/78/162 102/83/162 158/86/162 162/90/162
