# Blender v3.6.0 OBJ File: 'AllModels.blend'
# www.blender.org
mtllib Prop_Screen.mtl
o Prop_Screen_Plane.008
v 0.320042 0.516582 -0.108072
v -0.320040 0.516582 -0.108072
v 0.320042 0.245503 0.166758
v -0.320040 0.245503 0.166758
v -0.029104 0.000000 -0.060272
v 0.029104 0.000000 -0.060272
v 0.029104 0.000000 0.060272
v -0.029104 0.000000 0.060272
v 0.029104 0.283038 0.060272
v -0.029104 0.283038 0.060272
v -0.029104 0.400736 -0.060272
v 0.029104 0.400736 -0.060272
v 0.287490 0.523065 -0.170489
v 0.323068 0.513428 -0.160852
v 0.300291 0.521774 -0.169198
v 0.313313 0.518246 -0.165671
v 0.357785 0.488879 -0.136303
v 0.371677 0.464908 -0.112332
v 0.364731 0.482072 -0.129496
v 0.369816 0.473298 -0.120723
v 0.371677 0.236870 0.115706
v 0.357785 0.212899 0.139677
v 0.369815 0.228479 0.124096
v 0.364731 0.219705 0.132870
v 0.323068 0.188349 0.164226
v 0.287491 0.178713 0.173863
v 0.313313 0.183531 0.169044
v 0.300291 0.180004 0.172572
v -0.371676 0.464908 -0.112332
v -0.357785 0.488879 -0.136303
v -0.369815 0.473298 -0.120722
v -0.364730 0.482072 -0.129496
v -0.323067 0.513428 -0.160852
v -0.287490 0.523065 -0.170489
v -0.313313 0.518246 -0.165670
v -0.300290 0.521774 -0.169198
v -0.287490 0.178713 0.173863
v -0.323067 0.188349 0.164226
v -0.300290 0.180004 0.172572
v -0.313312 0.183531 0.169045
v -0.357785 0.212899 0.139677
v -0.371676 0.236870 0.115706
v -0.364730 0.219705 0.132870
v -0.369815 0.228479 0.124096
v -0.344724 0.501557 -0.114626
v -0.358619 0.477575 -0.090644
v -0.351671 0.494747 -0.107817
v -0.356757 0.485969 -0.099039
v -0.312197 0.524556 -0.137626
v -0.276576 0.534193 -0.147263
v -0.302436 0.529375 -0.142444
v -0.289398 0.532902 -0.145972
v 0.344724 0.501556 -0.114626
v 0.358620 0.477575 -0.090645
v 0.351672 0.494747 -0.107817
v 0.356758 0.485969 -0.099039
v 0.312198 0.524556 -0.137626
v 0.276577 0.534193 -0.147263
v 0.302437 0.529375 -0.142445
v 0.289398 0.532902 -0.145972
v 0.344724 0.234576 0.152355
v 0.358620 0.258557 0.128373
v 0.351672 0.241385 0.145545
v 0.356758 0.250163 0.136767
v 0.312198 0.211576 0.175354
v 0.276577 0.201939 0.184992
v 0.302437 0.206757 0.180173
v 0.289399 0.203230 0.183701
v -0.344724 0.234576 0.152355
v -0.358619 0.258557 0.128373
v -0.351671 0.241385 0.145546
v -0.356757 0.250163 0.136768
v -0.312197 0.211576 0.175355
v -0.276576 0.201939 0.184992
v -0.302436 0.206757 0.180173
v -0.289398 0.203230 0.183701
v -0.348708 0.481172 -0.080195
v -0.346846 0.489571 -0.088594
v -0.341758 0.498353 -0.097376
v -0.334808 0.505165 -0.104188
v 0.268270 0.536626 -0.135649
v 0.281120 0.535334 -0.134357
v 0.294178 0.531807 -0.130830
v 0.303947 0.526988 -0.126011
v 0.348709 0.269007 0.131970
v 0.346846 0.260608 0.140370
v 0.341759 0.251826 0.149152
v 0.334809 0.245014 0.155964
v -0.268270 0.213553 0.187424
v -0.281119 0.214844 0.186133
v -0.294178 0.218372 0.182605
v -0.303946 0.223191 0.177787
v -0.281119 0.535334 -0.134357
v -0.268270 0.536626 -0.135648
v -0.294178 0.531807 -0.130830
v -0.303946 0.526988 -0.126011
v 0.346846 0.489571 -0.088594
v 0.348709 0.481172 -0.080195
v 0.341759 0.498353 -0.097376
v 0.334809 0.505165 -0.104188
v 0.281120 0.214845 0.186133
v 0.268271 0.213553 0.187424
v 0.294178 0.218372 0.182605
v 0.303947 0.223191 0.177786
v -0.346846 0.260608 0.140370
v -0.348708 0.269007 0.131971
v -0.341758 0.251826 0.149152
v -0.334808 0.245014 0.155964
v -0.297220 0.558493 -0.017450
v -0.292267 0.327576 0.216661
v 0.086753 0.329726 0.214482
v 0.103925 0.338955 0.205125
v 0.300607 0.339658 0.204412
v 0.304106 0.392334 0.151008
v 0.285815 0.406805 0.136336
v 0.288830 0.561798 -0.020802
v 0.276344 0.562347 -0.021358
v 0.275015 0.569514 -0.028624
v -0.294304 0.568785 -0.027885
v -0.075797 -0.002449 -0.137563
v -0.000000 -0.002449 -0.137563
v -0.075797 -0.002449 0.000000
v -0.075797 0.043054 0.000000
v 0.000000 0.043054 0.000000
v -0.075797 -0.002449 0.137563
v 0.000000 -0.002449 0.137563
v 0.075797 -0.002449 -0.137563
v 0.075797 -0.002449 0.000000
v 0.075797 0.043054 0.000000
v 0.075797 -0.002449 0.137563
v -0.075797 0.043054 -0.115714
v -0.075797 0.021205 -0.137563
v -0.075797 0.041984 -0.122465
v -0.075797 0.038881 -0.128556
v -0.075797 0.034047 -0.133390
v -0.075797 0.027956 -0.136493
v -0.000000 0.043054 -0.115714
v -0.000000 0.021205 -0.137563
v -0.000000 0.041984 -0.122465
v -0.000000 0.038881 -0.128556
v -0.000000 0.034047 -0.133390
v -0.000000 0.027956 -0.136493
v -0.075797 0.021205 0.137563
v -0.075797 0.043054 0.115714
v -0.075797 0.027956 0.136493
v -0.075797 0.034047 0.133390
v -0.075797 0.038881 0.128556
v -0.075797 0.041984 0.122465
v 0.000000 0.021205 0.137563
v 0.000000 0.043054 0.115714
v 0.000000 0.027956 0.136493
v 0.000000 0.034047 0.133390
v 0.000000 0.038881 0.128556
v 0.000000 0.041984 0.122465
v 0.075797 0.021205 -0.137563
v 0.075797 0.043054 -0.115714
v 0.075797 0.027956 -0.136493
v 0.075797 0.034047 -0.133390
v 0.075797 0.038881 -0.128556
v 0.075797 0.041984 -0.122465
v 0.075797 0.043054 0.115714
v 0.075797 0.021205 0.137563
v 0.075797 0.041984 0.122465
v 0.075797 0.038881 0.128556
v 0.075797 0.034047 0.133390
v 0.075797 0.027956 0.136493
v 0.031770 -0.003400 -0.144542
v 0.031770 0.048202 0.000000
v 0.031770 -0.003400 0.144542
v 0.031770 0.048202 -0.121584
v 0.031770 0.023424 -0.144542
v 0.031770 0.046990 -0.128679
v 0.031770 0.043470 -0.135078
v 0.031770 0.037988 -0.140157
v 0.031770 0.031081 -0.143418
v 0.031770 0.023424 0.144542
v 0.031770 0.048202 0.121584
v 0.031770 0.031081 0.143418
v 0.031770 0.037988 0.140157
v 0.031770 0.043470 0.135079
v 0.031770 0.046990 0.128679
v 0.000000 0.046990 0.128679
v 0.000000 0.043470 0.135079
v -0.000000 0.043470 -0.135078
v -0.000000 0.046990 -0.128679
v 0.000000 0.048202 0.121584
v -0.000000 0.037988 -0.140157
v -0.000000 0.048202 -0.121584
v 0.000000 0.048202 0.000000
v -0.000000 0.031081 -0.143418
v -0.000000 -0.003400 -0.144542
v -0.000000 0.023424 -0.144542
v 0.000000 0.031081 0.143418
v 0.000000 0.023424 0.144542
v 0.000000 -0.003400 0.144542
v 0.000000 0.037988 0.140157
v -0.031770 -0.003400 -0.144542
v -0.031770 0.048202 0.000000
v -0.031770 -0.003400 0.144542
v -0.031770 0.048202 -0.121584
v -0.031770 0.023424 -0.144542
v -0.031770 0.046990 -0.128679
v -0.031770 0.043470 -0.135078
v -0.031770 0.037988 -0.140157
v -0.031770 0.031081 -0.143418
v -0.031770 0.023424 0.144542
v -0.031770 0.048202 0.121584
v -0.031770 0.031081 0.143418
v -0.031770 0.037988 0.140157
v -0.031770 0.043470 0.135079
v -0.031770 0.046990 0.128679
vt 0.830037 0.500000
vt 0.669963 0.500000
vt 0.669963 0.598631
vt 0.830037 0.598631
vt 0.830037 0.500000
vt 0.830037 0.598631
vt 0.669963 0.598631
vt 0.669963 0.500000
vt 0.669928 0.501713
vt 0.669928 0.527147
vt 0.778492 0.527147
vt 0.823637 0.501713
vt 0.000000 0.168033
vt 0.354681 0.168033
vt 0.354681 0.581967
vt 0.000000 0.581967
vt 0.669928 0.527355
vt 0.669928 0.501922
vt 0.823637 0.501922
vt 0.778492 0.527355
vt 0.494854 0.404922
vt 0.494854 0.162541
vt 0.895358 0.162541
vt 0.895358 0.404922
vt -0.072671 0.561914
vt -0.073103 0.573201
vt -0.107456 0.573201
vt -0.107876 0.561915
vt 1.080240 0.573200
vt 1.079808 0.561914
vt 1.115013 0.561914
vt 1.114593 0.573201
vt 0.782031 0.561914
vt 0.781598 0.573201
vt 0.747245 0.573201
vt 0.746825 0.561914
vt -0.042309 0.561914
vt 0.194744 0.561914
vt 0.194300 0.573201
vt -0.041864 0.573201
vt 0.291271 0.534312
vt 0.715866 0.534312
vt 0.715243 0.561914
vt 0.291894 0.561914
vt 0.650217 0.166778
vt 0.656234 0.167637
vt 0.662356 0.169982
vt 0.666942 0.173185
vt 0.683264 0.189507
vt 0.686529 0.194032
vt 0.688919 0.199866
vt 0.689794 0.205444
vt 0.689794 0.357056
vt 0.688920 0.362634
vt 0.686529 0.368467
vt 0.683264 0.372993
vt 0.666942 0.389314
vt 0.662356 0.392518
vt 0.656234 0.394863
vt 0.650217 0.395722
vt 0.379906 0.395722
vt 0.373888 0.394863
vt 0.367766 0.392518
vt 0.363180 0.389315
vt 0.346859 0.372993
vt 0.343594 0.368467
vt 0.341203 0.362634
vt 0.340328 0.357056
vt 0.340328 0.205444
vt 0.341203 0.199866
vt 0.343594 0.194032
vt 0.346859 0.189507
vt 0.363180 0.173185
vt 0.367766 0.169982
vt 0.373888 0.167637
vt 0.379906 0.166778
vt 0.745224 0.543394
vt 0.267830 0.543394
vt 0.268418 0.532107
vt 0.744636 0.532107
vt 0.225539 0.573201
vt 0.225106 0.561914
vt 0.260311 0.561914
vt 0.259891 0.573201
vt 0.714721 0.573201
vt 0.292416 0.573201
vt -0.072138 0.534312
vt -0.108395 0.534312
vt 0.812392 0.561914
vt 1.049446 0.561914
vt 1.049001 0.573200
vt 0.812837 0.573201
vt 0.745927 0.570996
vt 0.267127 0.570996
vt 0.811846 0.534312
vt 1.049992 0.534312
vt 1.079275 0.534312
vt 1.115531 0.534312
vt 0.782563 0.534312
vt 0.746307 0.534312
vt -0.042856 0.534312
vt 0.195291 0.534312
vt 0.803166 0.574259
vt 0.803073 0.562884
vt 0.791066 0.574278
vt 0.791176 0.562914
vt 0.725500 0.534962
vt 0.725406 0.562715
vt 0.737715 0.535325
vt 0.737949 0.563013
vt 0.204192 0.535194
vt 0.204064 0.562884
vt 0.215815 0.535235
vt 0.215961 0.562914
vt 0.224574 0.534312
vt 0.281791 0.574151
vt 0.281731 0.562715
vt 0.268992 0.574386
vt 0.269188 0.563013
vt -0.051536 0.574259
vt -0.051628 0.562884
vt -0.063636 0.574278
vt -0.063525 0.562914
vt 0.248850 0.566932
vt 0.248850 0.543394
vt -0.122627 0.561915
vt -0.122627 0.538377
vt -0.116987 0.535325
vt -0.116784 0.562929
vt 1.058894 0.535194
vt 1.058765 0.562884
vt 1.070516 0.535235
vt 1.070662 0.562914
vt 0.764204 0.532107
vt 0.764204 0.538665
vt 1.129764 0.566643
vt 1.129764 0.573201
vt 1.123693 0.574386
vt 1.123858 0.563097
vt 0.802945 0.535194
vt 0.791322 0.535235
vt 0.725345 0.574151
vt 0.738145 0.574386
vt 0.203971 0.574259
vt 0.216071 0.574277
vt 0.281636 0.534962
vt 0.269422 0.535324
vt 0.260830 0.534312
vt -0.051757 0.535194
vt -0.063380 0.535235
vt 0.248850 0.538665
vt 0.248850 0.532107
vt -0.122627 0.573201
vt -0.122627 0.566643
vt -0.116721 0.563097
vt -0.116557 0.574386
vt 1.058672 0.574259
vt 1.070772 0.574277
vt 0.764204 0.543394
vt 0.764204 0.566932
vt 1.129764 0.538377
vt 1.129764 0.561914
vt 1.123921 0.562929
vt 1.124123 0.535324
vt 0.529948 0.748672
vt 0.481914 0.748672
vt 0.481914 0.656269
vt 0.529948 0.656269
vt 0.410909 0.748672
vt 0.410909 0.656269
vt 0.269845 0.656269
vt 0.269845 0.748672
vt 0.508300 0.793336
vt 0.508300 0.827598
vt 0.421173 0.827598
vt 0.416089 0.826793
vt 0.411503 0.824456
vt 0.407863 0.820817
vt 0.405526 0.816231
vt 0.404721 0.811147
vt 0.404721 0.793336
vt 0.529948 0.748672
vt 0.529948 0.656269
vt 0.481914 0.656269
vt 0.481914 0.748672
vt 0.410909 0.748672
vt 0.410909 0.656269
vt 0.611879 0.793337
vt 0.611879 0.811147
vt 0.611073 0.816231
vt 0.608737 0.820817
vt 0.605097 0.824456
vt 0.600511 0.826793
vt 0.595427 0.827598
vt 0.508300 0.827632
vt 0.508300 0.861894
vt 0.421173 0.861894
vt 0.416089 0.861089
vt 0.411503 0.858752
vt 0.407863 0.855113
vt 0.405526 0.850526
vt 0.404721 0.845443
vt 0.404721 0.827632
vt 0.410909 0.748672
vt 0.269845 0.748672
vt 0.529948 0.748672
vt 0.481914 0.748672
vt 0.611879 0.827632
vt 0.611879 0.845442
vt 0.611074 0.850526
vt 0.608737 0.855112
vt 0.605097 0.858752
vt 0.600511 0.861089
vt 0.595427 0.861894
vt 0.529948 0.748672
vt 0.481914 0.748672
vt 0.410909 0.748672
vt 0.419140 0.656269
vt 0.419140 0.748672
vt 0.426565 0.656269
vt 0.426565 0.748672
vt 0.455835 0.656269
vt 0.455835 0.748672
vt 0.468203 0.656269
vt 0.468203 0.748672
vt 0.468203 0.656269
vt 0.468203 0.748672
vt 0.455835 0.656269
vt 0.455835 0.748672
vt 0.426565 0.656269
vt 0.426565 0.748672
vt 0.419140 0.656269
vt 0.419140 0.748672
vt 0.468203 0.748672
vt 0.455835 0.748672
vt 0.426565 0.748672
vt 0.419140 0.748672
vt 0.419140 0.748672
vt 0.426565 0.748672
vt 0.455835 0.748672
vt 0.468203 0.748672
vt 0.625000 0.567611
vt 0.625668 0.561887
vt 0.627491 0.555902
vt 0.629983 0.551259
vt 0.641046 0.536386
vt 0.644547 0.533102
vt 0.649228 0.530698
vt 0.653834 0.529818
vt 0.846166 0.529818
vt 0.850772 0.530698
vt 0.855453 0.533102
vt 0.858954 0.536386
vt 0.870017 0.551259
vt 0.872509 0.555902
vt 0.874332 0.561887
vt 0.875000 0.567611
vt 0.875000 0.712207
vt 0.874332 0.717931
vt 0.872509 0.723916
vt 0.870017 0.728559
vt 0.858954 0.743432
vt 0.855453 0.746716
vt 0.850772 0.749120
vt 0.846166 0.750000
vt 0.653834 0.750000
vt 0.649228 0.749120
vt 0.644547 0.746716
vt 0.641046 0.743432
vt 0.629983 0.728559
vt 0.627491 0.723916
vt 0.625668 0.717931
vt 0.625000 0.712207
vt 0.000000 0.000000
vt 1.000000 0.000000
vt 1.000000 1.000000
vt 0.000000 1.000000
vt 0.931731 0.923325
vt 0.040208 0.947076
vt 0.662361 0.099242
vt 0.946527 0.349539
vt 0.951239 0.921301
vt 0.929654 0.949763
vt 0.035651 0.909107
vt 0.043389 0.057267
vt 0.635534 0.065195
vt 0.969638 0.101837
vt 0.975104 0.296154
vt 0.244916 0.255657
vt 0.446828 0.255657
vt 0.648740 0.255657
vt 0.660521 0.253643
vt 0.671149 0.247798
vt 0.679584 0.238695
vt 0.684999 0.227224
vt 0.686865 0.214509
vt 0.686865 0.169962
vt 0.206791 0.169962
vt 0.206791 0.214509
vt 0.208657 0.227224
vt 0.214072 0.238695
vt 0.222506 0.247798
vt 0.233135 0.253643
vt 0.703747 0.305966
vt 0.703747 0.272403
vt 0.692941 0.272403
vt 0.692941 0.305966
vt 0.306066 0.305966
vt 0.306066 0.272403
vt 0.294846 0.272403
vt 0.294846 0.305966
vt 0.283377 0.272403
vt 0.283377 0.305966
vt 0.271758 0.305966
vt 0.271758 0.272403
vt 0.231482 0.272403
vt 0.231482 0.305966
vt 0.510389 0.305966
vt 0.510389 0.272403
vt 0.327838 0.272403
vt 0.327838 0.305966
vt 0.749021 0.305966
vt 0.749021 0.272403
vt 0.737402 0.272403
vt 0.737402 0.305966
vt 0.789297 0.305966
vt 0.789297 0.272403
vt 0.725933 0.272403
vt 0.725933 0.305966
vt 0.714713 0.272403
vt 0.714713 0.305966
vt 0.317032 0.272403
vt 0.317032 0.305966
vt 0.244916 0.255657
vt 0.233135 0.253643
vt 0.222506 0.247798
vt 0.214072 0.238695
vt 0.208657 0.227224
vt 0.206791 0.214509
vt 0.206791 0.169962
vt 0.686865 0.169962
vt 0.686865 0.214509
vt 0.684999 0.227224
vt 0.679584 0.238695
vt 0.671149 0.247798
vt 0.660521 0.253643
vt 0.648740 0.255657
vt 0.446828 0.255657
vt 0.703747 0.305966
vt 0.692941 0.305966
vt 0.306066 0.305966
vt 0.294846 0.305966
vt 0.283377 0.305966
vt 0.271758 0.305966
vt 0.231482 0.305966
vt 0.510389 0.305966
vt 0.327838 0.305966
vt 0.749021 0.305966
vt 0.737402 0.305966
vt 0.789297 0.305966
vt 0.725933 0.305966
vt 0.714713 0.305966
vt 0.317032 0.305966
vn 0.0000 -1.0000 -0.0000
vn 0.0000 0.7155 0.6986
vn -1.0000 0.0000 0.0000
vn 0.0000 0.0000 1.0000
vn 1.0000 0.0000 0.0000
vn 0.0000 0.0000 -1.0000
vn 0.5974 0.0788 0.7981
vn 0.5148 0.2009 0.8334
vn 0.4420 0.1281 0.8878
vn 0.5110 -0.0030 0.8596
vn -0.5148 0.2009 0.8334
vn -0.5974 0.0788 0.7981
vn -0.5110 -0.0030 0.8596
vn -0.4420 0.1281 0.8878
vn -0.5974 0.7981 0.0788
vn -0.5148 0.8334 0.2009
vn -0.4420 0.8878 0.1281
vn -0.5110 0.8596 -0.0030
vn 0.7933 0.3845 0.4720
vn 0.7933 0.4720 0.3845
vn 0.6963 0.5377 0.4753
vn 0.6963 0.4753 0.5377
vn 0.0813 0.9132 -0.3994
vn -0.0813 0.9132 -0.3994
vn -0.0638 0.9557 -0.2873
vn 0.0638 0.9557 -0.2873
vn -0.0000 -0.7071 -0.7071
vn -0.0638 -0.2873 0.9557
vn 0.0638 -0.2873 0.9557
vn 0.0362 -0.1800 0.9830
vn -0.0362 -0.1800 0.9830
vn 0.5149 0.8334 0.2009
vn 0.5974 0.7981 0.0788
vn 0.5110 0.8596 -0.0030
vn 0.4420 0.8878 0.1281
vn -0.0362 0.9830 -0.1800
vn 0.0362 0.9830 -0.1800
vn 0.6622 -0.0387 0.7483
vn 0.5645 -0.1266 0.8156
vn -0.7933 0.4720 0.3845
vn -0.7933 0.3845 0.4720
vn -0.6964 0.4753 0.5377
vn -0.6963 0.5377 0.4753
vn -0.0813 -0.3994 0.9132
vn 0.0813 -0.3994 0.9132
vn -0.8699 0.3982 0.2911
vn -0.8699 0.2911 0.3982
vn -0.6622 -0.0387 0.7483
vn -0.5645 -0.1266 0.8156
vn -0.6622 0.7483 -0.0387
vn -0.5645 0.8156 -0.1266
vn 0.8699 0.2911 0.3982
vn 0.8699 0.3982 0.2911
vn -0.6531 0.6445 0.3975
vn -0.7528 0.5896 0.2929
vn -0.5845 0.7563 0.2938
vn -0.6794 0.7118 0.1781
vn -0.2461 0.9140 -0.3225
vn -0.2129 0.9554 -0.2047
vn -0.4265 0.8772 -0.2205
vn -0.3813 0.9191 -0.0990
vn 0.8284 0.5265 0.1912
vn 0.7528 0.5896 0.2929
vn 0.7514 0.6563 0.0689
vn 0.6794 0.7118 0.1781
vn 0.6622 0.7483 -0.0387
vn 0.1677 0.9821 -0.0861
vn 0.2129 0.9554 -0.2047
vn 0.3223 0.9461 0.0311
vn 0.3813 0.9191 -0.0990
vn 0.6531 0.3975 0.6445
vn 0.7528 0.2929 0.5896
vn 0.5845 0.2938 0.7563
vn 0.6794 0.1781 0.7118
vn 0.2462 -0.3225 0.9140
vn 0.2129 -0.2047 0.9554
vn 0.4265 -0.2205 0.8772
vn 0.3813 -0.0990 0.9191
vn -0.8284 0.1912 0.5265
vn -0.7528 0.2929 0.5896
vn -0.7514 0.0689 0.6563
vn -0.6794 0.1781 0.7118
vn -0.1677 -0.0861 0.9821
vn -0.2129 -0.2047 0.9554
vn -0.3223 0.0311 0.9461
vn -0.3813 -0.0990 0.9191
vn -0.8284 0.5265 0.1912
vn -0.7514 0.6563 0.0689
vn -0.1677 0.9821 -0.0861
vn -0.3223 0.9461 0.0311
vn 0.6531 0.6445 0.3975
vn 0.5845 0.7563 0.2938
vn 0.2461 0.9140 -0.3225
vn 0.4265 0.8772 -0.2205
vn 0.5645 0.8156 -0.1266
vn 0.8284 0.1912 0.5265
vn 0.7514 0.0689 0.6563
vn 0.1677 -0.0861 0.9821
vn 0.3223 0.0311 0.9461
vn -0.6531 0.3975 0.6445
vn -0.5845 0.2938 0.7563
vn -0.2461 -0.3225 0.9140
vn -0.4265 -0.2205 0.8772
vn -0.0000 0.0785 -0.9969
vn -0.0000 0.9969 -0.0785
vn -0.0000 1.0000 -0.0000
vn 0.0000 0.0785 0.9969
vn -0.0000 0.9969 0.0785
vn -0.0000 0.9511 -0.3090
vn -0.0000 0.8090 -0.5878
vn -0.0000 0.5878 -0.8090
vn -0.0000 0.3090 -0.9511
vn 0.0000 0.3090 0.9511
vn 0.0000 0.5878 0.8090
vn 0.0000 0.8090 0.5878
vn -0.0000 0.9511 0.3090
vn 0.0000 0.7071 0.7071
vn 0.0000 0.7119 0.7022
vn 0.0000 0.9441 -0.3298
vn -0.0000 0.9964 -0.0846
vn 0.0000 0.7881 0.6156
vn 0.0000 0.5598 0.8286
vn 0.0000 0.2892 0.9573
vn 0.0000 0.0728 0.9973
vn -0.0000 0.9964 0.0846
vn -0.0000 0.0728 -0.9973
vn -0.0000 0.2892 -0.9573
vn -0.0000 0.5598 -0.8286
vn -0.0000 0.7881 -0.6156
vn -0.0000 0.9441 0.3298
usemtl MI_Trim_01
s 1
f 5/1/1 6/2/1 7/3/1 8/4/1
f 11/5/2 10/6/2 9/7/2 12/8/2
f 5/9/3 8/10/3 10/11/3 11/12/3
f 8/13/4 7/14/4 9/15/4 10/16/4
f 7/17/5 6/18/5 12/19/5 9/20/5
f 6/21/6 5/22/6 11/23/6 12/24/6
f 61/25/7 88/26/8 104/27/9 65/28/10
f 108/29/11 69/30/12 73/31/13 92/32/14
f 45/33/15 80/34/16 96/35/17 49/36/18
f 62/37/19 54/38/20 98/39/21 85/40/22
f 13/41/23 34/42/24 50/43/25 58/44/26
f 37/45/27 39/46/27 40/47/27 38/48/27 41/49/27 43/50/27 44/51/27 42/52/27 29/53/27 31/54/27 32/55/27 30/56/27 33/57/27 35/58/27 36/59/27 34/60/27 13/61/27 15/62/27 16/63/27 14/64/27 17/65/27 19/66/27 20/67/27 18/68/27 21/69/27 23/70/27 24/71/27 22/72/27 25/73/27 27/74/27 28/75/27 26/76/27
f 74/77/28 66/78/29 102/79/30 89/80/31
f 100/81/32 53/82/33 57/83/34 84/84/35
f 58/44/26 50/43/25 94/85/36 81/86/37
f 22/87/38 61/25/7 65/28/10 25/88/39
f 46/89/40 70/90/41 106/91/42 77/92/43
f 37/93/44 26/94/45 66/78/29 74/77/28
f 29/95/46 42/96/47 70/90/41 46/89/40
f 69/30/12 41/97/48 38/98/49 73/31/13
f 30/99/50 45/33/15 49/36/18 33/100/51
f 21/101/52 18/102/53 54/38/20 62/37/19
f 46/89/40 77/92/43 78/103/54 48/104/55
f 48/104/55 78/103/54 79/105/56 47/106/57
f 47/106/57 79/105/56 80/34/16 45/33/15
f 50/43/25 34/42/24 36/107/58 52/108/59
f 52/108/59 36/107/58 35/109/60 51/110/61
f 51/110/61 35/109/60 33/100/51 49/36/18
f 54/38/20 18/102/53 20/111/62 56/112/63
f 56/112/63 20/111/62 19/113/64 55/114/65
f 55/114/65 19/113/64 17/115/66 53/82/33
f 58/44/26 81/86/37 82/116/67 60/117/68
f 60/117/68 82/116/67 83/118/69 59/119/70
f 59/119/70 83/118/69 84/84/35 57/83/34
f 62/37/19 85/40/22 86/120/71 64/121/72
f 64/121/72 86/120/71 87/122/73 63/123/74
f 63/123/74 87/122/73 88/26/8 61/25/7
f 66/78/29 26/94/45 28/124/75 68/125/76
f 68/126/76 28/127/75 27/128/77 67/129/78
f 67/129/78 27/128/77 25/88/39 65/28/10
f 70/90/41 42/96/47 44/130/79 72/131/80
f 72/131/80 44/130/79 43/132/81 71/133/82
f 71/133/82 43/132/81 41/97/48 69/30/12
f 74/77/28 89/80/31 90/134/83 76/135/84
f 76/136/84 90/137/83 91/138/85 75/139/86
f 75/139/86 91/138/85 92/32/14 73/31/13
f 29/95/46 46/89/40 48/104/55 31/140/87
f 31/140/87 48/104/55 47/106/57 32/141/88
f 32/141/88 47/106/57 45/33/15 30/99/50
f 94/85/36 50/43/25 52/108/59 93/142/89
f 93/142/89 52/108/59 51/110/61 95/143/90
f 95/143/90 51/110/61 49/36/18 96/35/17
f 98/39/21 54/38/20 56/112/63 97/144/91
f 97/144/91 56/112/63 55/114/65 99/145/92
f 99/145/92 55/114/65 53/82/33 100/81/32
f 13/41/23 58/44/26 60/117/68 15/146/93
f 15/146/93 60/117/68 59/119/70 16/147/94
f 16/147/94 59/119/70 57/83/34 14/148/95
f 21/101/52 62/37/19 64/121/72 23/149/96
f 23/149/96 64/121/72 63/123/74 24/150/97
f 24/150/97 63/123/74 61/25/7 22/87/38
f 102/79/30 66/78/29 68/151/76 101/152/98
f 101/153/98 68/154/76 67/155/78 103/156/99
f 103/156/99 67/155/78 65/28/10 104/27/9
f 106/91/42 70/90/41 72/131/80 105/157/100
f 105/157/100 72/131/80 71/133/82 107/158/101
f 107/158/101 71/133/82 69/30/12 108/29/11
f 37/93/44 74/77/28 76/159/84 39/160/102
f 39/161/102 76/162/84 75/163/86 40/164/103
f 40/164/103 75/163/86 73/31/13 38/98/49
f 53/82/33 17/115/66 14/148/95 57/83/34
f 120/165/6 132/166/104 138/167/104 121/168/6
f 156/169/105 137/170/105 124/171/106 129/172/106
f 122/173/3 123/174/3 131/175/3 133/176/3 134/177/3 135/178/3 136/179/3 132/180/3 120/181/3
f 125/182/4 126/183/4 149/184/107 143/185/107
f 161/186/108 129/172/106 124/171/106 150/187/108
f 122/173/3 125/188/3 143/189/3 145/190/3 146/191/3 147/192/3 148/193/3 144/194/3 123/174/3
f 128/195/5 129/196/5 161/197/5 163/198/5 164/199/5 165/200/5 166/201/5 162/202/5 130/203/5
f 144/204/108 150/187/108 124/171/106 123/205/106
f 127/206/6 121/168/6 138/167/104 155/207/104
f 128/195/5 127/208/5 155/209/5 157/210/5 158/211/5 159/212/5 160/213/5 156/214/5 129/196/5
f 130/215/4 162/216/107 149/184/107 126/183/4
f 131/217/105 137/170/105 139/218/109 133/219/109
f 133/219/109 139/218/109 140/220/110 134/221/110
f 134/221/110 140/220/110 141/222/111 135/223/111
f 135/223/111 141/222/111 142/224/112 136/225/112
f 136/225/112 142/224/112 138/167/104 132/166/104
f 143/185/107 149/184/107 151/226/113 145/227/113
f 145/227/113 151/226/113 152/228/114 146/229/114
f 146/229/114 152/228/114 153/230/115 147/231/115
f 147/231/115 153/230/115 154/232/116 148/233/116
f 148/233/116 154/232/116 150/187/108 144/204/108
f 155/207/104 138/167/104 142/224/112 157/234/112
f 157/234/112 142/224/112 141/222/111 158/235/111
f 158/235/111 141/222/111 140/220/110 159/236/110
f 159/236/110 140/220/110 139/218/109 160/237/109
f 160/237/109 139/218/109 137/170/105 156/169/105
f 161/186/108 150/187/108 154/232/116 163/238/116
f 163/238/116 154/232/116 153/230/115 164/239/115
f 164/239/115 153/230/115 152/228/114 165/240/114
f 165/240/114 152/228/114 151/226/113 166/241/113
f 166/241/113 151/226/113 149/184/107 162/216/107
f 131/217/105 123/205/106 124/171/106 137/170/105
usemtl M_Black
f 106/242/117 105/243/117 107/244/117 108/245/117 92/246/117 91/247/117 90/248/117 89/249/117 102/250/117 101/251/117 103/252/117 104/253/117 88/254/117 87/255/117 86/256/117 85/257/117 98/258/117 97/259/117 99/260/117 100/261/117 84/262/117 83/263/117 82/264/117 81/265/117 94/266/117 93/267/117 95/268/117 96/269/117 80/270/117 79/271/117 78/272/117 77/273/117
usemtl MI_StatScreens_1
s off
f 4/274/118 3/275/118 1/276/118 2/277/118
f 117/278/118 119/279/118 112/280/118
f 115/281/118 116/282/118 117/278/118
f 117/278/118 118/283/118 119/279/118
f 119/279/118 109/284/118 112/280/118
f 109/284/118 110/285/118 111/286/118
f 112/280/118 109/284/118 111/286/118
f 112/280/118 113/287/118 115/281/118
f 113/287/118 114/288/118 115/281/118
f 115/281/118 117/278/118 112/280/118
usemtl MI_Trim_03_Dark
s 1
f 170/289/5 168/290/5 177/291/5 181/292/5 180/293/5 179/294/5 178/295/5 176/296/5 169/297/5 167/298/5 171/299/5 175/300/5 174/301/5 173/302/5 172/303/5
f 172/304/119 185/305/119 188/306/120 170/307/120
f 180/308/121 183/309/121 196/310/122 179/311/122
f 179/311/122 196/310/122 193/312/123 178/313/123
f 176/314/124 194/315/124 195/316/4 169/317/4
f 178/313/123 193/312/123 194/315/124 176/314/124
f 168/318/106 189/319/106 186/320/125 177/321/125
f 171/322/126 192/323/126 190/324/127 175/325/127
f 167/326/6 191/327/6 192/323/126 171/322/126
f 175/325/127 190/324/127 187/328/128 174/329/128
f 170/307/120 188/306/120 189/319/106 168/318/106
f 174/329/128 187/328/128 184/330/129 173/331/129
f 177/321/125 186/320/125 182/332/130 181/333/130
f 173/331/129 184/330/129 185/305/119 172/304/119
f 181/333/130 182/332/130 183/309/121 180/308/121
f 200/334/3 202/335/3 203/336/3 204/337/3 205/338/3 201/339/3 197/340/3 199/341/3 206/342/3 208/343/3 209/344/3 210/345/3 211/346/3 207/347/3 198/348/3
f 202/349/119 200/350/120 188/306/120 185/305/119
f 210/351/121 209/352/122 196/310/122 183/309/121
f 209/352/122 208/353/123 193/312/123 196/310/122
f 206/354/124 199/355/4 195/316/4 194/315/124
f 208/353/123 206/354/124 194/315/124 193/312/123
f 198/356/106 207/357/125 186/320/125 189/319/106
f 201/358/126 205/359/127 190/324/127 192/323/126
f 197/360/6 201/358/126 192/323/126 191/327/6
f 205/359/127 204/361/128 187/328/128 190/324/127
f 200/350/120 198/356/106 189/319/106 188/306/120
f 204/361/128 203/362/129 184/330/129 187/328/128
f 207/357/125 211/363/130 182/332/130 186/320/125
f 203/362/129 202/349/119 185/305/119 184/330/129
f 211/363/130 210/351/121 183/309/121 182/332/130
