# Blender v3.6.0 OBJ File: 'AllModels.blend'
# www.blender.org
mtllib Prop_Desk_Large.mtl
o Prop_Desk_Large_Cube.074
v -1.791664 0.689120 -0.527218
v -1.538017 0.689120 -0.739094
v -1.779250 0.689120 -0.592691
v -1.743222 0.689120 -0.651755
v -1.687107 0.689120 -0.698629
v -1.616398 0.689120 -0.728724
v 0.000000 0.689120 -0.739094
v -1.791664 0.689120 0.000000
v -1.538017 0.137296 -0.739094
v -1.616398 0.137296 -0.728724
v -1.687107 0.137296 -0.698629
v -1.743222 0.137296 -0.651755
v -1.779250 0.137296 -0.592691
v -1.791664 0.137296 -0.527218
v -1.791664 0.137296 0.000000
v 0.000000 0.137296 -0.739094
v -1.574053 0.045338 -0.793796
v -1.654271 0.045338 -0.782659
v -1.726637 0.045338 -0.750337
v -1.784067 0.045338 -0.699993
v -1.820939 0.045338 -0.636558
v -1.833644 0.045338 -0.566238
v -1.833644 0.045338 0.000000
v 0.000000 0.045338 -0.793796
v -1.574053 0.004593 -0.793796
v -1.654271 0.004593 -0.782659
v -1.726637 0.004593 -0.750337
v -1.784067 0.004593 -0.699993
v -1.820939 0.004593 -0.636558
v -1.833644 0.004593 -0.566238
v -1.833644 0.004593 0.000000
v 0.000000 0.004593 -0.793796
v 1.791664 0.689120 -0.527218
v 1.538017 0.689120 -0.739094
v 1.779250 0.689120 -0.592691
v 1.743222 0.689120 -0.651755
v 1.687107 0.689120 -0.698629
v 1.616398 0.689120 -0.728724
v 1.791664 0.689120 0.000000
v 1.538017 0.137296 -0.739094
v 1.616398 0.137296 -0.728724
v 1.687107 0.137296 -0.698629
v 1.743222 0.137296 -0.651755
v 1.779250 0.137296 -0.592691
v 1.791664 0.137296 -0.527218
v 1.791664 0.137296 0.000000
v 1.574053 0.045338 -0.793796
v 1.654271 0.045338 -0.782659
v 1.726637 0.045338 -0.750337
v 1.784067 0.045338 -0.699993
v 1.820939 0.045338 -0.636558
v 1.833644 0.045338 -0.566238
v 1.833644 0.045338 0.000000
v 1.574053 0.004593 -0.793796
v 1.654271 0.004593 -0.782659
v 1.726637 0.004593 -0.750337
v 1.784067 0.004593 -0.699993
v 1.820939 0.004593 -0.636558
v 1.833644 0.004593 -0.566238
v 1.833644 0.004593 0.000000
v -1.791664 0.689120 0.527218
v -1.538017 0.689120 0.739094
v -1.779250 0.689120 0.592691
v -1.743222 0.689120 0.651755
v -1.687107 0.689120 0.698629
v -1.616398 0.689120 0.728724
v 0.000000 0.689120 0.739094
v -1.538017 0.137296 0.739094
v -1.616398 0.137296 0.728724
v -1.687107 0.137296 0.698629
v -1.743222 0.137296 0.651755
v -1.779250 0.137296 0.592691
v -1.791664 0.137296 0.527218
v 0.000000 0.137296 0.739094
v -1.574053 0.045338 0.793796
v -1.654271 0.045338 0.782659
v -1.726637 0.045338 0.750337
v -1.784067 0.045338 0.699993
v -1.820939 0.045338 0.636558
v -1.833644 0.045338 0.566238
v 0.000000 0.045338 0.793796
v -1.574053 0.004593 0.793796
v -1.654271 0.004593 0.782659
v -1.726637 0.004593 0.750337
v -1.784067 0.004593 0.699993
v -1.820939 0.004593 0.636558
v -1.833644 0.004593 0.566238
v 0.000000 0.004593 0.793796
v 1.791664 0.689120 0.527218
v 1.538017 0.689120 0.739094
v 1.779250 0.689120 0.592691
v 1.743222 0.689120 0.651755
v 1.687107 0.689120 0.698629
v 1.616398 0.689120 0.728724
v 1.538017 0.137296 0.739094
v 1.616398 0.137296 0.728724
v 1.687107 0.137296 0.698629
v 1.743222 0.137296 0.651755
v 1.779250 0.137296 0.592691
v 1.791664 0.137296 0.527218
v 1.574053 0.045338 0.793796
v 1.654271 0.045338 0.782659
v 1.726637 0.045338 0.750337
v 1.784067 0.045338 0.699993
v 1.820939 0.045338 0.636558
v 1.833644 0.045338 0.566238
v 1.574053 0.004593 0.793796
v 1.654271 0.004593 0.782659
v 1.726637 0.004593 0.750337
v 1.784067 0.004593 0.699993
v 1.820939 0.004593 0.636558
v 1.833644 0.004593 0.566238
v -1.826835 0.816573 -0.985969
v -1.738249 0.816573 -1.000000
v -2.024920 0.816573 0.713330
v -2.010889 0.816573 0.801916
v -1.970170 0.816573 0.881830
v -1.906750 0.816573 0.945251
v -1.826835 0.816573 0.985969
v -1.738249 0.816573 1.000000
v -1.684287 0.674686 0.911966
v -1.962057 0.674686 0.650532
v -1.770122 0.674686 0.899170
v -1.847556 0.674686 0.862036
v -1.909008 0.674686 0.804199
v -1.948462 0.674686 0.731320
v -1.905020 1.000000 0.636529
v -1.635324 1.000000 0.892336
v -1.891820 1.000000 0.715578
v -1.853513 1.000000 0.786889
v -1.793847 1.000000 0.843481
v -1.718665 1.000000 0.879815
v -1.962057 0.674686 -0.650532
v -1.684287 0.674686 -0.911966
v -1.948462 0.674686 -0.731320
v -1.909008 0.674686 -0.804199
v -1.847556 0.674686 -0.862036
v -1.770122 0.674686 -0.899170
v -1.635324 1.000000 -0.892336
v -1.905020 1.000000 -0.636529
v -1.718665 1.000000 -0.879816
v -1.793847 1.000000 -0.843481
v -1.853513 1.000000 -0.786889
v -1.891820 1.000000 -0.715578
v 1.962057 0.674686 0.650532
v 1.684287 0.674686 0.911966
v 1.948462 0.674686 0.731320
v 1.909008 0.674686 0.804199
v 1.847556 0.674686 0.862036
v 1.770122 0.674686 0.899170
v 1.635324 1.000000 0.892336
v 1.905020 1.000000 0.636529
v 1.718665 1.000000 0.879815
v 1.793847 1.000000 0.843481
v 1.853513 1.000000 0.786889
v 1.891820 1.000000 0.715578
v 1.684287 0.674686 -0.911966
v 1.962057 0.674686 -0.650532
v 1.770122 0.674686 -0.899170
v 1.847556 0.674686 -0.862036
v 1.909008 0.674686 -0.804199
v 1.948462 0.674686 -0.731320
v 1.905020 1.000000 -0.636529
v 1.635324 1.000000 -0.892336
v 1.891820 1.000000 -0.715578
v 1.853513 1.000000 -0.786889
v 1.793847 1.000000 -0.843481
v 1.718665 1.000000 -0.879816
v -1.906750 0.816573 -0.945251
v -1.970170 0.816573 -0.881830
v -2.010889 0.816573 -0.801916
v -2.024920 0.816573 -0.713330
v 2.024920 0.816573 -0.713330
v 2.010889 0.816573 -0.801916
v 1.970170 0.816573 -0.881830
v 1.906750 0.816573 -0.945251
v 1.826835 0.816573 -0.985969
v 1.738249 0.816573 -1.000000
v 1.738249 0.816573 1.000000
v 1.826835 0.816573 0.985969
v 1.906750 0.816573 0.945251
v 1.970170 0.816573 0.881830
v 2.010889 0.816573 0.801916
v 2.024920 0.816573 0.713330
v -0.000000 0.674686 0.911966
v 0.000000 1.000000 0.892336
v 0.000000 0.816573 1.000000
v -1.582040 1.000000 0.835920
v -1.662666 1.000000 0.824224
v -1.735399 1.000000 0.790283
v -1.793120 1.000000 0.737417
v -1.830179 1.000000 0.670803
v -1.842949 1.000000 0.596960
v -1.662666 1.000000 -0.819523
v -1.582040 1.000000 -0.831219
v -1.735399 1.000000 -0.785581
v -1.793120 1.000000 -0.732716
v -1.830179 1.000000 -0.666102
v -1.842949 1.000000 -0.592259
v 1.830179 1.000000 -0.666102
v 1.842949 1.000000 -0.592259
v 1.793120 1.000000 -0.732716
v 1.735399 1.000000 -0.785581
v 1.662666 1.000000 -0.819523
v 1.582040 1.000000 -0.831219
v 1.662666 1.000000 0.824224
v 1.582040 1.000000 0.835920
v 1.735399 1.000000 0.790283
v 1.793120 1.000000 0.737417
v 1.830179 1.000000 0.670803
v 1.842949 1.000000 0.596960
v -0.000000 1.000000 0.835920
v -0.000000 0.674686 -0.911966
v 0.000000 1.000000 -0.892336
v 0.000000 0.816573 -1.000000
v 0.000000 1.000000 -0.831219
v -1.962057 0.674686 0.000000
v -1.905020 1.000000 0.000000
v -2.024920 0.816573 0.000000
v -1.842949 1.000000 0.002351
v 1.962057 0.674686 0.000000
v 1.905020 1.000000 0.000000
v 2.024920 0.816573 0.000000
v 1.842949 1.000000 0.002351
v -1.578898 0.973379 0.792372
v -1.650064 0.973379 0.782049
v -1.710920 0.973379 0.753650
v -1.758499 0.973379 0.710074
v -1.788529 0.973379 0.656095
v -1.799401 0.973379 0.593223
v -1.650064 0.973379 -0.777347
v -1.578898 0.973379 -0.787671
v -1.710920 0.973379 -0.748948
v -1.758499 0.973379 -0.705373
v -1.788529 0.973379 -0.651393
v -1.799401 0.973379 -0.588521
v 1.788528 0.973379 -0.651393
v 1.799401 0.973379 -0.588521
v 1.758499 0.973379 -0.705373
v 1.710920 0.973379 -0.748948
v 1.650064 0.973379 -0.777347
v 1.578898 0.973379 -0.787671
v 1.650064 0.973379 0.782049
v 1.578898 0.973379 0.792372
v 1.710920 0.973379 0.753650
v 1.758499 0.973379 0.710074
v 1.788528 0.973379 0.656095
v 1.799401 0.973379 0.593223
v -1.799401 0.973379 0.002351
v -0.000000 0.973379 0.792372
v 1.799401 0.973379 0.002351
v 0.000000 0.973379 -0.787671
v -1.582040 0.973379 0.835920
v -1.662666 0.973379 0.824224
v -1.735399 0.973379 0.790283
v -1.793120 0.973379 0.737417
v -1.830179 0.973379 0.670803
v -1.842949 0.973379 0.596960
v -1.662666 0.973379 -0.819523
v -1.582040 0.973379 -0.831219
v -1.735399 0.973379 -0.785581
v -1.793120 0.973379 -0.732716
v -1.830179 0.973379 -0.666102
v -1.842949 0.973379 -0.592259
v 1.830179 0.973379 -0.666102
v 1.842949 0.973379 -0.592259
v 1.793120 0.973379 -0.732716
v 1.735399 0.973379 -0.785581
v 1.662666 0.973379 -0.819523
v 1.582040 0.973379 -0.831219
v 1.662666 0.973379 0.824224
v 1.582040 0.973379 0.835920
v 1.735399 0.973379 0.790283
v 1.793120 0.973379 0.737417
v 1.830179 0.973379 0.670803
v 1.842949 0.973379 0.596960
v -1.842949 0.973379 0.002351
v -0.000000 0.973379 0.835920
v 1.842949 0.973379 0.002351
v 0.000000 0.973379 -0.831219
vt 0.668053 0.235293
vt 0.686789 0.235293
vt 0.686789 0.354341
vt 0.668053 0.354341
vt 0.649843 0.235293
vt 0.649843 0.354341
vt 0.475394 0.235293
vt 0.600330 0.235293
vt 0.600330 0.354341
vt 0.475394 0.354341
vt 0.632516 0.235293
vt 0.632516 0.354341
vt 0.616121 0.235293
vt 0.616121 0.354341
vt 1.051255 0.235293
vt 1.051255 0.354341
vt 0.668053 0.235293
vt 0.668053 0.354341
vt 0.686789 0.354341
vt 0.686789 0.235293
vt 0.649843 0.235293
vt 0.649843 0.354341
vt 0.475394 0.235293
vt 0.475394 0.354341
vt 0.600330 0.354341
vt 0.600330 0.235293
vt 0.632516 0.235293
vt 0.632516 0.354341
vt 0.616121 0.235293
vt 0.616121 0.354341
vt 0.668053 0.235293
vt 0.668053 0.354341
vt 0.686789 0.354341
vt 0.686789 0.235293
vt 0.649843 0.235293
vt 0.649843 0.354341
vt 0.600330 0.354341
vt 0.600330 0.235293
vt 0.632516 0.235293
vt 0.632516 0.354341
vt 0.616121 0.235293
vt 0.616121 0.354341
vt 1.051255 0.354341
vt 1.051255 0.235293
vt 0.668053 0.235293
vt 0.686789 0.235293
vt 0.686789 0.354341
vt 0.668053 0.354341
vt 0.649843 0.235293
vt 0.649843 0.354341
vt 0.600330 0.235293
vt 0.600330 0.354341
vt 0.632516 0.235293
vt 0.632516 0.354341
vt 0.616121 0.235293
vt 0.616121 0.354341
vt 0.788415 0.267202
vt 0.788415 0.316627
vt 0.438225 0.316627
vt 0.438225 0.267202
vt 0.780342 0.267202
vt 0.780342 0.316627
vt 0.647378 0.316627
vt 0.647378 0.267202
vt 0.630646 0.316627
vt 0.630646 0.267202
vt -1.285841 0.933373
vt -0.016753 0.933373
vt -0.016753 0.997644
vt -1.285841 0.997644
vt 0.821528 0.267202
vt 0.821528 0.316627
vt 0.676017 0.316627
vt 0.676017 0.267202
vt 0.860968 0.267202
vt 0.860968 0.316627
vt 0.474199 0.316627
vt 0.474199 0.267202
vt 0.420170 0.316627
vt 0.420170 0.267202
vt 0.402218 0.316627
vt 0.402218 0.267202
vt 0.384437 0.316627
vt 0.384437 0.267202
vt 0.366830 0.316627
vt 0.366830 0.267202
vt 0.349333 0.316627
vt 0.349333 0.267202
vt 0.613808 0.316627
vt 0.613808 0.267202
vt 0.596805 0.316627
vt 0.596805 0.267202
vt 0.579638 0.316627
vt 0.579638 0.267202
vt 0.562372 0.316627
vt 0.562372 0.267202
vt 0.454258 0.316627
vt 0.454258 0.267202
vt 0.434431 0.316627
vt 0.434431 0.267202
vt 0.414792 0.316627
vt 0.414792 0.267202
vt 0.395346 0.316627
vt 0.395346 0.267202
vt 0.376021 0.316627
vt 0.376021 0.267202
vt 0.657706 0.316627
vt 0.657706 0.267202
vt 0.639280 0.316627
vt 0.639280 0.267202
vt 0.620672 0.316627
vt 0.620672 0.267202
vt 0.601885 0.316627
vt 0.601885 0.267202
vt 0.582990 0.316627
vt 0.582990 0.267202
vt 0.227492 0.316627
vt 0.227492 0.267202
vt 0.881696 0.972031
vt 0.867105 0.972031
vt 0.867105 0.958888
vt 0.881696 0.958888
vt 0.109728 0.997644
vt 0.044671 0.997644
vt 0.044671 0.933373
vt 0.109728 0.933373
vt 1.504835 0.933373
vt 1.569891 0.933373
vt 1.569891 0.997644
vt 1.504835 0.997644
vt 0.048679 0.933373
vt 0.113736 0.933373
vt 0.113736 0.997644
vt 0.048679 0.997644
vt 2.900408 0.997644
vt 1.631317 0.997644
vt 1.631317 0.933373
vt 2.900408 0.933373
vt 1.436388 0.997644
vt 1.372581 0.997644
vt 1.372581 0.933373
vt 1.436388 0.933373
vt 0.237975 0.997644
vt 0.174167 0.997644
vt 0.174167 0.933373
vt 0.237975 0.933373
vt 1.313177 0.933373
vt 1.376587 0.933373
vt 1.376587 0.997644
vt 1.313177 0.997644
vt 0.241983 0.933373
vt 0.305394 0.933373
vt 0.305394 0.997644
vt 0.241983 0.997644
vt 1.565885 0.997644
vt 1.500828 0.997644
vt 1.500828 0.933373
vt 1.565885 0.933373
vt -0.020762 0.997644
vt -0.020762 0.933373
vt 1.440395 0.933373
vt 1.440395 0.997644
vt 0.178175 0.933373
vt 0.178175 0.997644
vt 0.809285 0.933373
vt 0.809285 0.997644
vt 1.309170 0.997644
vt 1.309170 0.933373
vt 1.635323 0.933373
vt 1.635323 0.997644
vt 2.904410 0.933373
vt 2.904410 0.997644
vt 0.301386 0.997644
vt 0.301386 0.933373
vt 0.805278 0.997644
vt 0.805278 0.933373
vt 0.216511 0.316627
vt 0.216511 0.267202
vt -1.289852 0.997644
vt -1.289852 0.933373
vt 0.210290 0.316627
vt 0.210290 0.267202
vt 0.222455 0.316627
vt 0.222455 0.267202
vt 0.142716 0.972031
vt 0.127873 0.972031
vt 0.127873 0.958888
vt 0.142716 0.958888
vt 0.805532 0.958888
vt 0.821395 0.958888
vt 0.821395 0.972031
vt 0.805532 0.972031
vt 0.113282 0.972031
vt 0.113281 0.958888
vt 0.837023 0.958888
vt 0.837023 0.972031
vt 0.997474 0.972031
vt 0.997474 0.958888
vt 0.881698 0.958888
vt 0.997475 0.958888
vt 0.997475 0.972031
vt 0.881698 0.972031
vt 0.852263 0.958888
vt 0.852263 0.972031
vt 0.805531 0.972031
vt 0.497489 0.972031
vt 0.497489 0.958888
vt 0.805531 0.958888
vt 0.867106 0.958888
vt 0.867106 0.972031
vt -0.002496 0.958888
vt 0.113282 0.958888
vt 0.113282 0.972031
vt -0.002496 0.972031
vt 0.497490 0.958888
vt 0.497490 0.972031
vt 0.127873 0.958888
vt 0.127873 0.972031
vt 0.189447 0.972031
vt 0.189447 0.958888
vt 0.142716 0.958888
vt 0.142716 0.972031
vt 0.157956 0.958888
vt 0.157956 0.972031
vt 0.189447 0.958888
vt 0.189447 0.972031
vt 0.173584 0.958888
vt 0.173584 0.972031
vt -0.002496 0.972031
vt -0.002496 0.958888
vt 0.821394 0.972031
vt 0.821394 0.958888
vt 0.837022 0.972031
vt 0.837022 0.958888
vt 0.173584 0.972031
vt 0.173584 0.958888
vt 0.852262 0.972031
vt 0.852262 0.958888
vt 0.157956 0.972031
vt 0.157956 0.958888
vt 0.865210 -0.624324
vt 0.903844 -0.617643
vt 0.937015 -0.599190
vt 0.963792 -0.569953
vt 0.981242 -0.532557
vt 0.987586 -0.488826
vt 0.987586 0.481398
vt 0.987586 1.451621
vt 0.981242 1.495352
vt 0.963792 1.532748
vt 0.937015 1.561985
vt 0.903845 1.580438
vt 0.865210 1.587119
vt 0.502123 1.587119
vt 0.139035 1.587120
vt 0.100401 1.580438
vt 0.067231 1.561985
vt 0.040454 1.532748
vt 0.023003 1.495353
vt 0.016659 1.451621
vt 0.016659 0.481398
vt 0.016659 -0.488826
vt 0.023003 -0.532557
vt 0.040454 -0.569953
vt 0.067231 -0.599189
vt 0.100401 -0.617643
vt 0.139035 -0.624324
vt 0.502123 -0.624324
vt 0.036319 1.418526
vt 0.042447 1.460766
vt 0.017414 1.468245
vt 0.010472 1.420391
vt 0.059302 1.496885
vt 0.037559 1.511414
vt 0.085166 1.525125
vt 0.068937 1.545674
vt 0.117205 1.542949
vt 0.108475 1.567670
vt 0.154521 1.549402
vt 0.152303 1.575249
vt 0.968000 1.460765
vt 0.974127 1.418526
vt 0.999974 1.420391
vt 0.993032 1.468244
vt 0.951144 1.496885
vt 0.972887 1.511414
vt 0.925280 1.525124
vt 0.941510 1.545674
vt 0.893242 1.542948
vt 0.901972 1.567669
vt 0.855925 1.549401
vt 0.858144 1.575249
vt 0.893242 -0.580153
vt 0.855925 -0.586607
vt 0.858143 -0.612454
vt 0.901971 -0.604874
vt 0.925280 -0.562330
vt 0.941509 -0.582878
vt 0.951144 -0.534090
vt 0.972887 -0.548619
vt 0.967999 -0.497970
vt 0.993032 -0.505449
vt 0.974127 -0.455731
vt 0.999974 -0.457596
vt 0.042446 -0.497970
vt 0.036319 -0.455731
vt 0.010472 -0.457596
vt 0.017414 -0.505449
vt 0.059302 -0.534090
vt 0.037559 -0.548619
vt 0.085166 -0.562329
vt 0.068937 -0.582878
vt 0.117204 -0.580153
vt 0.108474 -0.604874
vt 0.154521 -0.586606
vt 0.152302 -0.612453
vt 0.505223 1.549402
vt 0.505223 1.575249
vt 0.036319 0.481398
vt 0.010472 0.481398
vt 0.505223 -0.586606
vt 0.505223 -0.612454
vt 0.974127 0.481398
vt 0.999974 0.481398
vt 0.702247 0.908620
vt 0.720975 0.908620
vt 0.720975 0.933691
vt 0.702247 0.933691
vt 0.683982 0.908620
vt 0.683982 0.933691
vt 0.505707 0.908620
vt 0.633651 0.908620
vt 0.633651 0.933691
vt 0.505707 0.933691
vt 0.666490 0.908620
vt 0.666490 0.933691
vt 0.649810 0.908620
vt 0.649810 0.933691
vt 1.075272 0.908620
vt 1.075272 0.933691
vt 0.720975 0.942944
vt 0.702247 0.942944
vt 0.683982 0.942944
vt 0.633651 0.942944
vt 0.505707 0.942944
vt 0.666490 0.942944
vt 0.649810 0.942944
vt 1.075272 0.942944
vt 0.639399 0.909372
vt 0.639399 0.933770
vt 0.656513 0.933770
vt 0.656513 0.909372
vt 0.622707 0.909372
vt 0.622707 0.933770
vt 0.459787 0.909372
vt 0.459787 0.933770
vt 0.576711 0.933770
vt 0.576711 0.909372
vt 0.606722 0.909372
vt 0.606722 0.933770
vt 0.591478 0.909372
vt 0.591478 0.933770
vt 1.075417 0.933770
vt 1.075417 0.909372
vt 0.639399 0.942775
vt 0.656513 0.942775
vt 0.622707 0.942775
vt 0.459787 0.942775
vt 0.576711 0.942775
vt 0.606722 0.942775
vt 0.591478 0.942775
vt 1.075417 0.942775
vt 0.309167 0.908620
vt 0.309167 0.933691
vt 0.290440 0.933691
vt 0.290440 0.908620
vt 0.327433 0.908620
vt 0.327433 0.933691
vt 0.377763 0.933691
vt 0.377763 0.908620
vt 0.344924 0.908620
vt 0.344924 0.933691
vt 0.361605 0.908620
vt 0.361605 0.933691
vt -0.073699 0.933691
vt -0.073699 0.908620
vt 0.309167 0.942944
vt 0.290440 0.942944
vt 0.327433 0.942944
vt 0.377763 0.942944
vt 0.344924 0.942944
vt 0.361605 0.942944
vt -0.073699 0.942944
vt 0.280175 0.909372
vt 0.263060 0.909372
vt 0.263060 0.933770
vt 0.280175 0.933770
vt 0.296867 0.909372
vt 0.296867 0.933770
vt 0.342863 0.909372
vt 0.342863 0.933770
vt 0.312852 0.909372
vt 0.312852 0.933770
vt 0.328096 0.909372
vt 0.328096 0.933770
vt -0.069715 0.909372
vt -0.069715 0.933770
vt 0.263060 0.942775
vt 0.280175 0.942775
vt 0.296867 0.942775
vt 0.342863 0.942775
vt 0.312852 0.942775
vt 0.328096 0.942775
vt -0.069715 0.942775
vt 0.341189 0.643050
vt 0.341189 0.705746
vt 0.319871 0.705746
vt 0.319871 0.643050
vt 0.298933 0.705746
vt 0.298933 0.643050
vt 0.278398 0.705746
vt 0.278398 0.643050
vt 0.258278 0.705746
vt 0.258278 0.643050
vt 0.238257 0.705746
vt 0.238257 0.643050
vt 0.251101 0.705746
vt 0.251101 0.643050
vt 0.272513 0.643050
vt 0.272513 0.705746
vt 0.294031 0.643050
vt 0.294031 0.705746
vt 0.315992 0.643050
vt 0.315992 0.705746
vt 0.338385 0.643050
vt 0.338385 0.705746
vt 0.361185 0.643050
vt 0.361185 0.705746
vt 0.526662 0.705746
vt 0.526662 0.643050
vt 0.549462 0.643050
vt 0.549462 0.705746
vt 0.571854 0.643050
vt 0.571854 0.705746
vt 0.593816 0.643050
vt 0.593816 0.705746
vt 0.615334 0.643050
vt 0.615334 0.705746
vt 0.636746 0.643050
vt 0.636746 0.705746
vt 0.730714 0.231565
vt 0.728873 0.242507
vt 0.723529 0.252378
vt 0.715206 0.260212
vt 0.704718 0.265241
vt 0.693092 0.266975
vt 0.464966 0.266975
vt 0.236841 0.266975
vt 0.225215 0.265242
vt 0.214727 0.260212
vt 0.206404 0.252378
vt 0.201060 0.242507
vt 0.199219 0.231565
vt 0.199219 0.143455
vt 0.199219 0.055345
vt 0.201060 0.044403
vt 0.206404 0.034532
vt 0.214727 0.026698
vt 0.225215 0.021668
vt 0.236841 0.019935
vt 0.464966 0.019935
vt 0.693092 0.019935
vt 0.704718 0.021668
vt 0.715206 0.026698
vt 0.723529 0.034531
vt 0.728873 0.044402
vt 0.730714 0.055344
vt 0.730714 0.143455
vt 0.579821 0.705746
vt 0.579821 0.643050
vt 0.599322 0.643050
vt 0.599322 0.705746
vt 0.560223 0.705746
vt 0.560223 0.643050
vt 0.540221 0.705746
vt 0.540221 0.643050
vt 0.519826 0.705746
vt 0.519826 0.643050
vt 0.499061 0.705746
vt 0.499061 0.643050
vt 0.812065 0.643050
vt 0.812065 0.705746
vt 0.075637 0.705746
vt 0.075637 0.643050
vt 0.810664 0.643050
vt 0.810664 0.705746
vt 0.088412 0.705746
vt 0.088412 0.643050
vt 0.075781 0.705746
vt 0.075781 0.643050
vt 0.762778 0.643050
vt 0.762778 0.705746
vt 0.757722 0.643050
vt 0.757722 0.705746
vt 0.077183 0.705746
vt 0.077183 0.643050
vn -0.2638 0.0000 -0.9646
vn -0.0657 0.0000 -0.9978
vn -0.5220 0.0000 -0.8530
vn -1.0000 0.0000 0.0000
vn -0.9956 0.0000 -0.0936
vn -0.7575 0.0000 -0.6528
vn -0.9332 0.0000 -0.3593
vn 0.0000 0.0000 -1.0000
vn 0.2638 0.0000 -0.9646
vn 0.0657 0.0000 -0.9978
vn 0.5220 0.0000 -0.8530
vn 1.0000 0.0000 0.0000
vn 0.9956 0.0000 -0.0936
vn 0.7575 0.0000 -0.6528
vn 0.9332 0.0000 -0.3593
vn -0.2638 0.0000 0.9646
vn -0.0657 0.0000 0.9978
vn -0.5220 0.0000 0.8530
vn -0.9956 0.0000 0.0936
vn -0.7575 0.0000 0.6528
vn -0.9332 0.0000 0.3593
vn 0.0000 0.0000 1.0000
vn 0.2638 0.0000 0.9646
vn 0.0657 0.0000 0.9978
vn 0.5220 0.0000 0.8530
vn 0.9956 0.0000 0.0936
vn 0.7575 0.0000 0.6528
vn 0.9332 0.0000 0.3593
vn 0.0000 0.5062 0.8624
vn -0.0475 0.5249 0.8499
vn -0.0808 0.5371 0.8396
vn 0.8370 0.5471 0.0000
vn 0.8251 0.5624 0.0537
vn 0.8188 0.5688 0.0779
vn 0.7604 0.6053 0.2355
vn 0.7469 0.6104 0.2635
vn 0.0000 1.0000 0.0000
vn -0.8370 0.5471 0.0000
vn -0.8251 0.5624 -0.0537
vn -0.8188 0.5688 -0.0779
vn 0.0000 0.5062 -0.8624
vn 0.0475 0.5249 -0.8499
vn 0.0808 0.5371 -0.8396
vn -0.2205 0.5822 0.7825
vn -0.2640 0.5938 0.7601
vn -0.4406 0.6274 0.6421
vn -0.4574 0.6293 0.6283
vn -0.6217 0.6339 0.4601
vn -0.6190 0.6341 0.4634
vn -0.7604 0.6053 0.2355
vn -0.7469 0.6104 0.2635
vn -0.8251 0.5624 0.0537
vn -0.8188 0.5688 0.0779
vn 0.6217 0.6339 0.4601
vn 0.6190 0.6341 0.4634
vn 0.4406 0.6274 0.6421
vn 0.4574 0.6293 0.6283
vn 0.2205 0.5822 0.7825
vn 0.2640 0.5938 0.7601
vn 0.0475 0.5249 0.8499
vn 0.0808 0.5371 0.8396
vn 0.2205 0.5822 -0.7825
vn 0.2640 0.5938 -0.7601
vn 0.4406 0.6274 -0.6421
vn 0.4574 0.6293 -0.6283
vn 0.6217 0.6339 -0.4601
vn 0.6190 0.6341 -0.4634
vn 0.7604 0.6053 -0.2355
vn 0.7469 0.6104 -0.2635
vn 0.8251 0.5624 -0.0537
vn 0.8188 0.5688 -0.0779
vn -0.7604 0.6053 -0.2355
vn -0.7469 0.6104 -0.2635
vn -0.6217 0.6339 -0.4601
vn -0.6190 0.6341 -0.4634
vn -0.4406 0.6274 -0.6421
vn -0.4574 0.6293 -0.6283
vn -0.2205 0.5822 -0.7825
vn -0.2640 0.5938 -0.7601
vn -0.0475 0.5249 -0.8499
vn -0.0808 0.5371 -0.8396
vn 0.9963 0.0000 -0.0855
vn 0.9429 0.0000 -0.3330
vn -0.7848 0.0000 -0.6198
vn -0.9429 0.0000 -0.3330
vn 0.0720 0.0000 0.9974
vn 0.2863 0.0000 0.9581
vn -0.9963 0.0000 -0.0855
vn 0.5556 0.0000 0.8315
vn 0.9963 0.0000 0.0855
vn 0.7848 0.0000 0.6198
vn 0.0720 0.0000 -0.9974
vn 0.9429 0.0000 0.3330
vn -0.9963 0.0000 0.0855
vn -0.9429 0.0000 0.3330
vn -0.0720 0.0000 -0.9974
vn -0.7848 0.0000 0.6198
vn -0.5556 0.0000 0.8315
vn -0.0720 0.0000 0.9974
vn -0.2863 0.0000 0.9581
vn 0.2863 0.0000 -0.9581
vn 0.5556 0.0000 -0.8315
vn -0.2863 0.0000 -0.9581
vn 0.7848 0.0000 -0.6198
vn -0.5556 0.0000 -0.8315
vn -0.2093 0.5564 -0.8041
vn -0.0465 0.5234 -0.8508
vn -0.0674 0.5284 -0.8463
vn -0.2361 0.5604 -0.7939
vn -0.4305 0.5754 -0.6954
vn -0.4375 0.5755 -0.6910
vn -0.9097 0.4153 0.0000
vn -0.8968 0.4378 -0.0643
vn -0.9690 0.2277 -0.0962
vn -0.9772 0.2125 0.0000
vn -0.6393 0.5603 -0.5266
vn -0.6278 0.5622 -0.5383
vn -0.8164 0.5050 -0.2799
vn -0.9011 0.2606 -0.3465
vn 0.0000 0.5112 -0.8594
vn -0.2754 0.0000 -0.9613
vn -0.0689 0.0000 -0.9976
vn -0.5395 0.0000 -0.8420
vn -0.9960 0.0000 -0.0893
vn -0.7720 0.0000 -0.6356
vn -0.9385 0.0000 -0.3454
vn 0.2093 0.5564 -0.8041
vn 0.2361 0.5604 -0.7939
vn 0.0674 0.5284 -0.8463
vn 0.0465 0.5234 -0.8508
vn 0.4305 0.5754 -0.6954
vn 0.4375 0.5755 -0.6910
vn 0.9097 0.4153 0.0000
vn 0.9772 0.2125 0.0000
vn 0.9690 0.2277 -0.0962
vn 0.8968 0.4378 -0.0643
vn 0.6393 0.5603 -0.5266
vn 0.6278 0.5622 -0.5383
vn 0.8164 0.5050 -0.2799
vn 0.9011 0.2606 -0.3465
vn 0.2754 0.0000 -0.9613
vn 0.0689 0.0000 -0.9976
vn 0.5395 0.0000 -0.8420
vn 0.9960 0.0000 -0.0893
vn 0.7720 0.0000 -0.6356
vn 0.9385 0.0000 -0.3454
vn -0.2093 0.5564 0.8041
vn -0.2361 0.5604 0.7939
vn -0.0674 0.5284 0.8463
vn -0.0465 0.5234 0.8508
vn -0.4305 0.5754 0.6954
vn -0.4375 0.5755 0.6910
vn -0.9690 0.2277 0.0962
vn -0.8968 0.4378 0.0643
vn -0.6393 0.5603 0.5266
vn -0.6278 0.5622 0.5383
vn -0.8164 0.5050 0.2799
vn -0.9011 0.2606 0.3465
vn 0.0000 0.5112 0.8594
vn -0.2754 0.0000 0.9613
vn -0.0689 0.0000 0.9976
vn -0.5395 0.0000 0.8420
vn -0.9960 0.0000 0.0893
vn -0.7720 0.0000 0.6356
vn -0.9385 0.0000 0.3454
vn 0.2093 0.5564 0.8041
vn 0.0465 0.5234 0.8508
vn 0.0674 0.5284 0.8463
vn 0.2361 0.5604 0.7939
vn 0.4305 0.5754 0.6954
vn 0.4375 0.5755 0.6910
vn 0.8968 0.4378 0.0643
vn 0.9690 0.2277 0.0962
vn 0.6393 0.5603 0.5266
vn 0.6278 0.5622 0.5383
vn 0.8164 0.5050 0.2799
vn 0.9011 0.2606 0.3465
vn 0.2754 0.0000 0.9613
vn 0.0689 0.0000 0.9976
vn 0.5395 0.0000 0.8420
vn 0.9960 0.0000 0.0893
vn 0.7720 0.0000 0.6356
vn 0.9385 0.0000 0.3454
vn -0.0745 -0.5451 -0.8351
vn -0.0526 -0.5402 -0.8399
vn -0.2336 -0.5727 -0.7858
vn -0.2575 -0.5755 -0.7762
vn -0.4683 -0.5837 -0.6633
vn -0.4685 -0.5837 -0.6632
vn -0.6735 -0.5565 -0.4865
vn -0.6564 -0.5605 -0.5049
vn -0.8336 -0.4925 -0.2503
vn -0.8104 -0.5061 -0.2950
vn -0.9030 -0.4260 -0.0563
vn -0.8950 -0.4372 -0.0883
vn 0.8950 -0.4372 -0.0883
vn 0.9030 -0.4260 -0.0563
vn 0.8336 -0.4925 -0.2503
vn 0.8104 -0.5061 -0.2950
vn 0.6735 -0.5565 -0.4865
vn 0.6564 -0.5605 -0.5049
vn 0.4683 -0.5837 -0.6633
vn 0.4685 -0.5837 -0.6632
vn 0.2336 -0.5727 -0.7858
vn 0.2575 -0.5755 -0.7762
vn 0.0526 -0.5402 -0.8399
vn 0.0745 -0.5451 -0.8351
vn 0.0745 -0.5451 0.8351
vn 0.0526 -0.5402 0.8399
vn 0.2336 -0.5727 0.7858
vn 0.2575 -0.5755 0.7762
vn 0.4683 -0.5837 0.6633
vn 0.4685 -0.5837 0.6632
vn 0.6735 -0.5565 0.4865
vn 0.6564 -0.5605 0.5049
vn 0.8336 -0.4925 0.2503
vn 0.8104 -0.5061 0.2950
vn 0.9030 -0.4260 0.0563
vn 0.8950 -0.4372 0.0883
vn 0.0000 -1.0000 -0.0000
vn -0.8336 -0.4925 0.2503
vn -0.8104 -0.5061 0.2950
vn -0.8950 -0.4372 0.0883
vn -0.9030 -0.4260 0.0563
vn -0.6735 -0.5565 0.4865
vn -0.6564 -0.5605 0.5049
vn -0.4683 -0.5837 0.6633
vn -0.4685 -0.5837 0.6632
vn -0.2336 -0.5727 0.7858
vn -0.2575 -0.5755 0.7762
vn -0.0526 -0.5402 0.8399
vn -0.0745 -0.5451 0.8351
vn 0.0000 -0.5272 -0.8497
vn -0.9143 -0.4051 0.0000
vn 0.9143 -0.4051 0.0000
vn 0.0000 -0.5272 0.8497
usemtl MI_Trim_03
s 1
f 6/1/1 2/2/2 9/3/2 10/4/1
f 5/5/3 6/1/1 10/4/1 11/6/3
f 8/7/4 1/8/5 14/9/5 15/10/4
f 4/11/6 5/5/3 11/6/3 12/12/6
f 3/13/7 4/11/6 12/12/6 13/14/7
f 1/8/5 3/13/7 13/14/7 14/9/5
f 2/2/2 7/15/8 16/16/8 9/3/2
f 38/17/9 41/18/9 40/19/10 34/20/10
f 37/21/11 42/22/11 41/18/9 38/17/9
f 39/23/12 46/24/12 45/25/13 33/26/13
f 36/27/14 43/28/14 42/22/11 37/21/11
f 35/29/15 44/30/15 43/28/14 36/27/14
f 33/26/13 45/25/13 44/30/15 35/29/15
f 34/20/10 40/19/10 16/16/8 7/15/8
f 66/31/16 69/32/16 68/33/17 62/34/17
f 65/35/18 70/36/18 69/32/16 66/31/16
f 8/7/4 15/10/4 73/37/19 61/38/19
f 64/39/20 71/40/20 70/36/18 65/35/18
f 63/41/21 72/42/21 71/40/20 64/39/20
f 61/38/19 73/37/19 72/42/21 63/41/21
f 62/34/17 68/33/17 74/43/22 67/44/22
f 94/45/23 90/46/24 95/47/24 96/48/23
f 93/49/25 94/45/23 96/48/23 97/50/25
f 39/23/12 89/51/26 100/52/26 46/24/12
f 92/53/27 93/49/25 97/50/25 98/54/27
f 91/55/28 92/53/27 98/54/27 99/56/28
f 89/51/26 91/55/28 99/56/28 100/52/26
f 90/46/24 67/44/22 74/43/22 95/47/24
f 187/57/29 186/58/29 128/59/30 120/60/31
f 223/61/32 222/62/32 152/63/33 184/64/34
f 156/65/35 183/66/36 184/64/34 152/63/33
f 214/67/37 139/68/37 195/69/37 216/70/37
f 219/71/38 218/72/38 140/73/39 172/74/40
f 215/75/41 214/76/41 164/77/42 178/78/43
f 120/60/31 128/59/30 132/79/44 119/80/45
f 119/80/45 132/79/44 131/81/46 118/82/47
f 118/82/47 131/81/46 130/83/48 117/84/49
f 117/84/49 130/83/48 129/85/50 116/86/51
f 116/86/51 129/85/50 127/87/52 115/88/53
f 155/89/54 182/90/55 183/66/36 156/65/35
f 154/91/56 181/92/57 182/90/55 155/89/54
f 153/93/58 180/94/59 181/92/57 154/91/56
f 151/95/60 179/96/61 180/94/59 153/93/58
f 168/97/62 177/98/63 178/78/43 164/77/42
f 167/99/64 176/100/65 177/98/63 168/97/62
f 166/101/66 175/102/67 176/100/65 167/99/64
f 165/103/68 174/104/69 175/102/67 166/101/66
f 163/105/70 173/106/71 174/104/69 165/103/68
f 144/107/72 171/108/73 172/74/40 140/73/39
f 143/109/74 170/110/75 171/108/73 144/107/72
f 142/111/76 169/112/77 170/110/75 143/109/74
f 141/113/78 113/114/79 169/112/77 142/111/76
f 139/115/80 114/116/81 113/114/79 141/113/78
f 179/96/61 151/95/60 186/117/29 187/118/29
f 193/119/82 192/120/83 257/121/83 258/122/82
f 167/123/37 168/124/37 204/125/37 203/126/37
f 131/127/37 132/128/37 189/129/37 190/130/37
f 141/131/37 142/132/37 196/133/37 194/134/37
f 186/135/37 151/136/37 207/137/37 212/138/37
f 155/139/37 156/140/37 210/141/37 209/142/37
f 165/143/37 166/144/37 202/145/37 200/146/37
f 127/147/37 129/148/37 192/149/37 193/150/37
f 144/151/37 140/152/37 199/153/37 198/154/37
f 153/155/37 154/156/37 208/157/37 206/158/37
f 168/124/37 164/159/37 205/160/37 204/125/37
f 130/161/37 131/127/37 190/130/37 191/162/37
f 142/132/37 143/163/37 197/164/37 196/133/37
f 139/68/37 141/131/37 194/134/37 195/69/37
f 218/165/37 127/147/37 193/150/37 220/166/37
f 156/140/37 152/167/37 211/168/37 210/141/37
f 132/128/37 128/169/37 188/170/37 189/129/37
f 166/144/37 167/123/37 203/126/37 202/145/37
f 128/169/37 186/171/37 212/172/37 188/170/37
f 163/173/37 165/143/37 200/146/37 201/174/37
f 154/156/37 155/139/37 209/142/37 208/157/37
f 222/175/37 163/173/37 201/174/37 224/176/37
f 151/136/37 153/155/37 206/158/37 207/137/37
f 129/148/37 130/161/37 191/162/37 192/149/37
f 143/163/37 144/151/37 198/154/37 197/164/37
f 114/116/81 139/115/80 214/177/41 215/178/41
f 164/159/37 214/179/37 216/180/37 205/160/37
f 140/152/37 218/165/37 220/166/37 199/153/37
f 115/88/53 127/87/52 218/181/38 219/182/38
f 152/167/37 222/175/37 224/176/37 211/168/37
f 173/106/71 163/105/70 222/183/32 223/184/32
f 209/185/84 210/186/85 275/187/85 274/188/84
f 195/189/86 194/190/87 259/191/87 260/192/86
f 210/186/85 211/193/88 276/194/88 275/187/85
f 194/190/87 196/195/89 261/196/89 259/191/87
f 220/197/12 193/119/82 258/122/82 277/198/12
f 199/199/90 220/200/12 277/201/12 264/202/90
f 196/195/89 197/203/91 262/204/91 261/196/89
f 188/205/92 212/206/8 278/207/8 253/208/92
f 197/203/91 198/209/93 263/210/93 262/204/91
f 224/211/4 201/212/94 266/213/94 279/214/4
f 198/209/93 199/199/90 264/202/90 263/210/93
f 216/215/22 195/189/86 260/192/86 280/216/22
f 201/212/94 200/217/95 265/218/95 266/213/94
f 212/206/8 207/219/96 272/220/96 278/207/8
f 200/217/95 202/221/97 267/222/97 265/218/95
f 202/221/97 203/223/98 268/224/98 267/222/97
f 205/225/99 216/215/22 280/216/22 270/226/99
f 203/223/98 204/227/100 269/228/100 268/224/98
f 211/193/88 224/229/4 279/230/4 276/194/88
f 189/231/101 188/205/92 253/208/92 254/232/101
f 204/227/100 205/225/99 270/226/99 269/228/100
f 190/233/102 189/231/101 254/232/101 255/234/102
f 207/219/96 206/235/103 271/236/103 272/220/96
f 191/237/104 190/233/102 255/234/102 256/238/104
f 206/235/103 208/239/105 273/240/105 271/236/103
f 192/120/83 191/237/104 256/238/104 257/121/83
f 208/239/105 209/185/84 274/188/84 273/240/105
usemtl MI_HologramDesk
f 238/241/37 237/242/37 239/243/37 240/244/37 241/245/37 242/246/37 252/247/37 232/248/37 231/249/37 233/250/37 234/251/37 235/252/37 236/253/37 249/254/37 230/255/37 229/256/37 228/257/37 227/258/37 226/259/37 225/260/37 250/261/37 244/262/37 243/263/37 245/264/37 246/265/37 247/266/37 248/267/37 251/268/37
f 225/269/37 226/270/37 254/271/37 253/272/37
f 226/270/37 227/273/37 255/274/37 254/271/37
f 227/273/37 228/275/37 256/276/37 255/274/37
f 228/275/37 229/277/37 257/278/37 256/276/37
f 229/277/37 230/279/37 258/280/37 257/278/37
f 231/281/37 232/282/37 260/283/37 259/284/37
f 233/285/37 231/281/37 259/284/37 261/286/37
f 234/287/37 233/285/37 261/286/37 262/288/37
f 235/289/37 234/287/37 262/288/37 263/290/37
f 236/291/37 235/289/37 263/290/37 264/292/37
f 237/293/37 238/294/37 266/295/37 265/296/37
f 239/297/37 237/293/37 265/296/37 267/298/37
f 240/299/37 239/297/37 267/298/37 268/300/37
f 241/301/37 240/299/37 268/300/37 269/302/37
f 242/303/37 241/301/37 269/302/37 270/304/37
f 243/305/37 244/306/37 272/307/37 271/308/37
f 245/309/37 243/305/37 271/308/37 273/310/37
f 246/311/37 245/309/37 273/310/37 274/312/37
f 247/313/37 246/311/37 274/312/37 275/314/37
f 248/315/37 247/313/37 275/314/37 276/316/37
f 249/317/37 236/291/37 264/292/37 277/318/37
f 250/319/37 225/269/37 253/272/37 278/320/37
f 238/294/37 251/321/37 279/322/37 266/295/37
f 232/282/37 252/323/37 280/324/37 260/283/37
f 244/306/37 250/319/37 278/320/37 272/307/37
f 252/323/37 242/303/37 270/304/37 280/324/37
f 230/279/37 249/317/37 277/318/37 258/280/37
f 251/321/37 248/315/37 276/316/37 279/322/37
usemtl MI_Trim_03_Dark
f 10/325/106 9/326/107 17/327/108 18/328/109
f 11/329/110 10/325/106 18/328/109 19/330/111
f 15/331/112 14/332/113 22/333/114 23/334/115
f 12/335/116 11/329/110 19/330/111 20/336/117
f 13/337/118 12/335/116 20/336/117 21/338/119
f 14/332/113 13/337/118 21/338/119 22/333/114
f 9/326/107 16/339/120 24/340/120 17/327/108
f 18/328/121 17/327/122 25/341/122 26/342/121
f 19/330/123 18/328/121 26/342/121 27/343/123
f 23/334/115 22/333/114 30/344/124 31/345/4
f 20/336/125 19/330/123 27/343/123 28/346/125
f 21/338/119 20/336/125 28/346/125 29/347/126
f 22/333/114 21/338/119 29/347/126 30/344/124
f 17/327/122 24/340/8 32/348/8 25/341/122
f 41/349/127 48/350/128 47/351/129 40/352/130
f 42/353/131 49/354/132 48/350/128 41/349/127
f 46/355/133 53/356/134 52/357/135 45/358/136
f 43/359/137 50/360/138 49/354/132 42/353/131
f 44/361/139 51/362/140 50/360/138 43/359/137
f 45/358/136 52/357/135 51/362/140 44/361/139
f 40/352/130 47/351/129 24/363/120 16/364/120
f 48/350/141 55/365/141 54/366/142 47/351/142
f 49/354/143 56/367/143 55/365/141 48/350/141
f 53/356/134 60/368/12 59/369/144 52/357/135
f 50/360/145 57/370/145 56/367/143 49/354/143
f 51/362/140 58/371/146 57/370/145 50/360/145
f 52/357/135 59/369/144 58/371/146 51/362/140
f 47/351/142 54/366/142 32/372/8 24/363/8
f 69/373/147 76/374/148 75/375/149 68/376/150
f 70/377/151 77/378/152 76/374/148 69/373/147
f 15/331/112 23/334/115 80/379/153 73/380/154
f 71/381/155 78/382/156 77/378/152 70/377/151
f 72/383/157 79/384/158 78/382/156 71/381/155
f 73/380/154 80/379/153 79/384/158 72/383/157
f 68/376/150 75/375/149 81/385/159 74/386/159
f 76/374/160 83/387/160 82/388/161 75/375/161
f 77/378/162 84/389/162 83/387/160 76/374/160
f 23/334/115 31/345/4 87/390/163 80/379/153
f 78/382/164 85/391/164 84/389/162 77/378/162
f 79/384/158 86/392/165 85/391/164 78/382/164
f 80/379/153 87/390/163 86/392/165 79/384/158
f 75/375/161 82/388/161 88/393/22 81/385/22
f 96/394/166 95/395/167 101/396/168 102/397/169
f 97/398/170 96/394/166 102/397/169 103/399/171
f 46/355/133 100/400/172 106/401/173 53/356/134
f 98/402/174 97/398/170 103/399/171 104/403/175
f 99/404/176 98/402/174 104/403/175 105/405/177
f 100/400/172 99/404/176 105/405/177 106/401/173
f 95/395/167 74/406/159 81/407/159 101/396/168
f 102/397/178 101/396/179 107/408/179 108/409/178
f 103/399/180 102/397/178 108/409/178 109/410/180
f 53/356/134 106/401/173 112/411/181 60/368/12
f 104/403/182 103/399/180 109/410/180 110/412/182
f 105/405/177 104/403/182 110/412/182 111/413/183
f 106/401/173 105/405/177 111/413/183 112/411/181
f 101/396/179 81/407/22 88/414/22 107/408/179
f 114/415/184 134/416/185 138/417/186 113/418/187
f 113/418/187 138/417/186 137/419/188 169/420/189
f 169/420/189 137/419/188 136/421/190 170/422/191
f 170/422/191 136/421/190 135/423/192 171/424/193
f 171/424/193 135/423/192 133/425/194 172/426/195
f 173/427/196 158/428/197 162/429/198 174/430/199
f 174/430/199 162/429/198 161/431/200 175/432/201
f 175/432/201 161/431/200 160/433/202 176/434/203
f 176/434/203 160/433/202 159/435/204 177/436/205
f 177/436/205 159/435/204 157/437/206 178/438/207
f 179/439/208 146/440/209 150/441/210 180/442/211
f 180/442/211 150/441/210 149/443/212 181/444/213
f 181/444/213 149/443/212 148/445/214 182/446/215
f 182/446/215 148/445/214 147/447/216 183/448/217
f 183/448/217 147/447/216 145/449/218 184/450/219
f 133/451/220 135/452/220 136/453/220 137/454/220 138/455/220 134/456/220 213/457/220 157/458/220 159/459/220 160/460/220 161/461/220 162/462/220 158/463/220 221/464/220 145/465/220 147/466/220 148/467/220 149/468/220 150/469/220 146/470/220 185/471/220 121/472/220 123/473/220 124/474/220 125/475/220 126/476/220 122/477/220 217/478/220
f 126/479/221 116/480/222 115/481/223 122/482/224
f 125/483/225 117/484/226 116/480/222 126/479/221
f 124/485/227 118/486/228 117/484/226 125/483/225
f 123/487/229 119/488/230 118/486/228 124/485/227
f 121/489/231 120/490/232 119/488/230 123/487/229
f 213/491/233 215/492/233 178/438/207 157/437/206
f 217/493/234 219/494/234 172/426/195 133/425/194
f 221/495/235 223/496/235 184/450/219 145/449/218
f 185/497/236 187/498/236 120/490/232 121/489/231
f 146/440/209 179/439/208 187/499/236 185/500/236
f 134/416/185 114/415/184 215/501/233 213/502/233
f 122/482/224 115/481/223 219/503/234 217/504/234
f 158/428/197 173/427/196 223/505/235 221/506/235
